SplineFontDB: 3.0
FontName: Leipzig
FullName: Leipzig
FamilyName: Leipzig
Weight: Regular
Copyright: Created by Etienne Darbellay, Jean-Francois Marti and Laurent Pugin. \nThis font is licensed under the SIL Open Font License \\(http://scripts.sil.org/OFL\\).\nVersion 5.2.37

StartChar: uniE0A3
Encoding: 57507 57507 0
Width: 314
VWidth: 2048
Flags: HW
AnchorPoint: "cutOutSE" 269 -60 basechar 0
AnchorPoint: "cutOutNW" 35 60 basechar 0
LayerCount: 2
Fore
SplineSet
278 64 m 0
 278 86 261 103 235 103 c 0
 223 103 209 100 194 93 c 0
 109 50 29 -1 29 -63 c 1
 34 -88 44 -95 78 -95 c 1
 145 -84 278 0 278 64 c 0
0 -36 m 0
 0 32 73 138 200 138 c 0
 266 138 314 99 314 41 c 0
 314 -43 208 -132 96 -132 c 0
 32 -132 0 -100 0 -36 c 0
EndSplineSet
EndChar

StartChar: uniE080
Encoding: 57472 57472 1
Width: 427
VWidth: 2048
Flags: HW
LayerCount: 2
Fore
SplineSet
209 251 m 1024,0,0
210 -250 m 4,12,13
 111 -250 0 -156 0 1 c 0,0,1
 0 153 93 251 209 251 c 0,4,5
 325 251 414 132 414 1 c 256,8,9
 414 -138 311 -250 210 -250 c 4,12,13
119 1 m 0,28,29
 119 -78 132 -214 207 -214 c 0,19,20
 275 -214 291 -102 291 1 c 0,22,23
 291 77 276 217 207 217 c 0,25,26
 139 217 119 81 119 1 c 0,28,29
EndSplineSet
EndChar

StartChar: uniE081
Encoding: 57473 57473 2
Width: 296
VWidth: 2048
Flags: HW
LayerCount: 2
Fore
SplineSet
48 -250 m 1
 48 -214 l 1
 71 -214 88 -208 97 -196 c 1
 105 -182 109 -163 109 -139 c 2
 109 111 l 1
 27 -18 l 1
 0 -5 l 1
 107 250 l 1
 235 250 l 1
 235 -144 l 2
 235 -168 240 -186 249 -197 c 128
 258 -208 274 -214 296 -214 c 1
 296 -250 l 1
 48 -250 l 1
EndSplineSet
EndChar

StartChar: uniE082
Encoding: 57474 57474 3
Width: 402
VWidth: 2048
Flags: HW
LayerCount: 2
Fore
SplineSet
104 -185 m 1
 86 -185 49 -199 39 -250 c 1
 3 -250 l 1
 0 -221 l 1
 0 -196 6 -175 18 -157 c 1
 29 -138 40 -127 57 -114 c 1
 178 -32 l 1
 215 -3 l 2
 230 8 242 26 253 51 c 1
 265 75 271 98 271 121 c 0
 271 161 252 209 177 209 c 0
 152 209 145 209 127 201 c 1
 113 196 104 189 101 179 c 1
 104 170 108 164 111 161 c 2
 135 144 l 1
 147 137 152 133 162 123 c 1
 167 116 169 107 169 96 c 0
 169 84 169 39 90 22 c 1
 60 22 14 48 14 116 c 0
 14 182 95 251 211 251 c 0
 283 251 392 219 392 101 c 0
 392 48 360 6 279 -32 c 1
 188 -73 l 2
 162 -84 143 -96 131 -110 c 1
 180 -103 l 1
 264 -103 295 -144 328 -144 c 0
 348 -144 361 -124 367 -83 c 1
 402 -83 l 1
 402 -235 334 -251 288 -251 c 0
 271 -251 223 -251 209 -244 c 6
 219 -244 l 1
 191 -227 l 1
 142 -190 122 -187 104 -185 c 1
EndSplineSet
EndChar

StartChar: uniE083
Encoding: 57475 57475 4
Width: 383
VWidth: 2048
Flags: HW
LayerCount: 2
Fore
SplineSet
188 250 m 0
 285 250 365 198 365 134 c 0
 365 65 325 23 247 9 c 1
 303 4 372 -35 372 -107 c 0
 372 -138 362 -164 341 -185 c 1
 322 -206 296 -223 263 -234 c 1
 213 -245 l 2
 198 -248 177 -252 158 -252 c 0
 108 -252 72 -236 45 -214 c 1
 29 -204 22 -196 11 -180 c 1
 4 -167 0 -155 0 -142 c 0
 0 -99 27 -59 68 -59 c 1
 71 -61 l 1
 132 -61 146 -103 146 -131 c 0
 146 -150 122 -173 120 -188 c 1
 127 -205 140 -213 157 -213 c 0
 201 -213 251 -184 251 -135 c 0
 251 -60 217 -10 113 -10 c 1
 113 26 l 1
 197 26 244 48 244 124 c 0
 244 178 207 212 157 212 c 256
 131 212 114 205 106 190 c 1
 121 168 150 174 150 120 c 0
 150 83 113 58 79 58 c 0
 57 58 10 73 10 134 c 0
 10 213 111 250 188 250 c 0
EndSplineSet
EndChar

StartChar: uniE084
Encoding: 57476 57476 5
Width: 387
VWidth: 2048
Flags: HW
LayerCount: 2
Fore
SplineSet
0 -78 m 1
 84 19 114 102 134 251 c 1
 304 251 l 1
 291 219 222 119 205 100 c 2
 121 3 l 1
 88 -33 62 -60 41 -78 c 1
 203 -78 l 1
 203 24 l 1
 330 147 l 1
 330 -78 l 1
 387 -78 l 1
 387 -117 l 1
 330 -117 l 1
 330 -151 l 2
 330 -194 349 -216 387 -216 c 1
 387 -250 l 1
 143 -250 l 1
 143 -214 l 1
 191 -214 203 -188 203 -144 c 2
 203 -117 l 1
 0 -117 l 1
 0 -78 l 1
EndSplineSet
EndChar

StartChar: uniE085
Encoding: 57477 57477 6
Width: 354
VWidth: 2048
Flags: HW
LayerCount: 2
Fore
SplineSet
141 38 m 0
 127 38 85 33 49 -13 c 1
 17 -13 l 1
 22 250 l 1
 77 239 130 232 180 232 c 0
 220 232 265 238 314 249 c 1
 306 197 275 135 155 135 c 1
 105 137 l 2
 86 139 74 141 56 147 c 1
 51 36 l 1
 89 62 132 75 180 75 c 0
 274 75 357 11 357 -84 c 0
 357 -184 259 -250 146 -250 c 0
 58 -250 0 -197 0 -135 c 0
 0 -82 39 -52 75 -52 c 0
 112 -52 144 -84 144 -124 c 0
 144 -128 143 -134 140 -142 c 1
 113 -179 l 2
 111 -182 110 -187 110 -193 c 0
 110 -208 122 -216 146 -216 c 0
 220 -216 238 -139 238 -84 c 0
 238 -29 203 38 141 38 c 0
EndSplineSet
EndChar

StartChar: uniE086
Encoding: 57478 57478 7
Width: 394
VWidth: 2048
Flags: HW
LayerCount: 2
Fore
SplineSet
264 -91 m 0
 264 -54 236 1 197 1 c 0
 162 1 132 -53 132 -110 c 0
 132 -162 154 -214 200 -214 c 0
 247 -214 264 -146 264 -91 c 0
210 214 m 0
 174 214 120 181 120 30 c 1
 122 -6 l 1
 162 18 203 30 242 30 c 0
 322 30 382 -18 382 -91 c 0
 382 -190 283 -250 200 -250 c 4
 40 -250 0 -77 0 -6 c 256
 0 15 2 37 7 65 c 1
 17 100 l 129
 43 185 90 215 115 226 c 0
 156 245 189 250 218 250 c 0
 311 250 360 187 360 145 c 0
 360 87 308 73 287 73 c 0
 254 73 228 97 222 108 c 128
 219 113 216 122 215 133 c 1
 226 163 l 2
 232 178 235 190 235 198 c 0
 235 209 226 214 210 214 c 0
EndSplineSet
EndChar

StartChar: uniE087
Encoding: 57479 57479 8
Width: 404
VWidth: 2048
Flags: HW
LayerCount: 2
Fore
SplineSet
330 125 m 1
 319 116 277 79 235 79 c 1
 217 81 202 87 191 96 c 1
 174 115 158 130 143 141 c 1
 130 152 116 158 101 158 c 0
 78 158 56 136 37 92 c 1
 0 92 l 1
 0 247 l 1
 37 247 l 1
 41 229 48 219 58 217 c 1
 66 218 73 220 80 225 c 1
 90 230 l 1
 104 240 l 2
 107 242 118 246 125 247 c 130
 136 249 l 130
 144 250 169 250 178 250 c 0
 217 250 235 243 268 207 c 1
 279 192 294 184 312 181 c 1
 339 184 357 210 366 251 c 1
 404 250 l 1
 403 241 393 162 375 126 c 1
 370 113 363 98 354 80 c 2
 321 20 l 1
 266 -72 252 -142 252 -250 c 1
 78 -250 l 5
 78 -205 89 -164 111 -128 c 1
 134 -93 170 -54 217 -11 c 1
 316 73 330 85 330 125 c 1
EndSplineSet
EndChar

StartChar: uniE088
Encoding: 57480 57480 9
Width: 386
VWidth: 2048
Flags: HW
LayerCount: 2
Fore
SplineSet
185 -214 m 0
 261 -214 273 -156 275 -146 c 1
 275 -112 240 -86 218 -73 c 2
 166 -44 l 1
 145 -34 134 -27 132 -24 c 1
 93 -57 74 -78 70 -116 c 1
 75 -139 93 -214 185 -214 c 0
291 135 m 0
 291 196 219 211 178 211 c 0
 138 211 101 194 101 160 c 1
 104 139 116 122 127 110 c 1
 144 95 160 84 175 76 c 1
 240 48 l 1
 274 75 291 104 291 135 c 0
166 -250 m 4
 109 -250 0 -224 -0 -118 c 0
 0 -71 30 -32 89 -2 c 1
 56 13 10 58 10 117 c 0
 10 196 95 249 188 249 c 2
 206 249 l 130
 211 249 227 250 234 248 c 1
 259 248 360 218 360 138 c 0
 360 101 337 62 291 22 c 1
 334 -3 374 -49 374 -97 c 0
 374 -198 256 -250 166 -250 c 4
EndSplineSet
EndChar

StartChar: uniE089
Encoding: 57481 57481 10
Width: 397
VWidth: 2048
Flags: HW
LayerCount: 2
Fore
SplineSet
119 107 m 0
 119 56 141 3 185 3 c 0
 223 3 249 51 249 113 c 0
 249 163 218 213 185 213 c 0
 145 213 119 157 119 107 c 0
94 -74 m 0
 134 -74 166 -101 166 -139 c 0
 166 -147 163 -158 157 -173 c 2
 150 -189 l 1
 145 -204 l 1
 147 -212 157 -216 176 -216 c 0
 232 -216 260 -143 260 3 c 1
 228 -21 189 -33 141 -33 c 0
 112 -33 85 -27 62 -13 c 1
 11 13 5 65 -0 95 c 1
 0 159 56 250 188 250 c 0
 346 250 385 99 385 13 c 0
 385 -132 293 -250 178 -250 c 4
 69 -250 23 -182 23 -149 c 0
 23 -103 56 -74 94 -74 c 0
EndSplineSet
EndChar

StartChar: uniE0A2
Encoding: 57506 57506 11
Width: 405
VWidth: 2048
Flags: HW
AnchorPoint: "cutOutSE" 392 -58 basechar 0
AnchorPoint: "cutOutNW" 15 61 basechar 0
LayerCount: 2
Fore
SplineSet
198 133 m 0
 300 133 405 88 405 0 c 0
 405 -92 307 -133 198 -133 c 0
 97 -133 0 -87 0 0 c 256
 0 88 93 133 198 133 c 0
293 -21 m 0
 293 -7 290 8 285 23 c 0
 278 43 267 61 252 77 c 0
 232 98 209 108 184 108 c 1
 164 106 l 1
 149 101 137 92 128 78 c 1
 124 69 122 61 120 54 c 128
 118 47 117 38 117 27 c 0
 117 12 120 -7 126 -30 c 128
 132 -53 144 -71 160 -85 c 1
 175 -100 196 -108 222 -108 c 0
 226 -108 232 -107 240 -106 c 0
 259 -101 272 -91 280 -76 c 128
 288 -61 293 -42 293 -21 c 0
EndSplineSet
EndChar

StartChar: uniE0A4
Encoding: 57508 57508 12
Width: 314
VWidth: 2048
Flags: HMW
AnchorPoint: "cutOutSE" 272 -61 basechar 0
AnchorPoint: "cutOutNW" 36 60 basechar 0
LayerCount: 2
Fore
SplineSet
0 -39 m 0
 0 29 73 133 200 133 c 0
 266 133 314 96 314 38 c 0
 314 -46 208 -133 96 -133 c 4
 32 -133 0 -103 0 -39 c 0
EndSplineSet
EndChar

StartChar: uniE05C
Encoding: 57436 57436 13
Width: 656
VWidth: 2048
Flags: HW
LayerCount: 2
Fore
SplineSet
175 0 m 1
 175 502 l 1
 218 502 l 1
 218 46 l 1
 231 53 243 64 255 75 c 1
 265 87 275 99 282 113 c 1
 288 127 292 144 296 162 c 0
 299 182 301 203 301 224 c 1
 308 189 333 170 374 164 c 1
 452 183 473 232 474 329 c 0
 474 373 465 406 443 429 c 1
 425 452 402 464 374 464 c 0
 331 464 309 427 308 380 c 1
 315 395 327 398 347 404 c 1
 353 404 357 402 363 400 c 2
 380 390 l 1
 390 376 l 1
 397 358 l 1
 393 326 374 310 341 310 c 0
 285 310 264 349 264 408 c 1
 272 436 277 452 294 469 c 0
 301 476 308 482 317 486 c 1
 320 489 339 495 344 497 c 1
 378 500 l 1
 413 502 l 1
 533 502 603 441 603 324 c 1
 606 291 l 1
 606 239 586 194 546 157 c 1
 526 140 501 128 472 118 c 1
 441 109 408 105 371 105 c 1
 278 17 l 1
 278 -17 l 1
 371 -105 l 1
 408 -105 441 -109 472 -118 c 1
 501 -128 526 -140 546 -157 c 1
 586 -194 606 -239 606 -291 c 1
 603 -324 l 1
 603 -441 533 -502 413 -502 c 1
 378 -500 l 1
 344 -497 l 1
 339 -495 320 -489 317 -486 c 1
 286 -473 274 -444 264 -408 c 1
 264 -349 285 -310 341 -310 c 0
 374 -310 393 -326 397 -358 c 1
 390 -376 l 1
 380 -390 l 1
 363 -400 l 2
 357 -402 353 -404 347 -404 c 1
 327 -398 315 -395 308 -380 c 1
 309 -427 331 -464 374 -464 c 0
 402 -464 425 -452 443 -429 c 1
 465 -406 474 -373 474 -329 c 0
 473 -232 452 -183 374 -164 c 1
 333 -170 308 -189 301 -224 c 1
 301 -203 299 -182 296 -162 c 0
 292 -144 288 -127 282 -113 c 1
 275 -99 265 -87 255 -75 c 1
 243 -64 231 -53 218 -46 c 1
 218 -502 l 1
 175 -502 l 1
 175 0 l 1
0 502 m 1
 118 502 l 1
 118 0 l 1
 118 -502 l 1
 0 -502 l 1
 0 0 l 5
 0 502 l 1
EndSplineSet
EndChar

StartChar: uniE05D
Encoding: 57437 57437 14
Width: 616
VWidth: 2048
Flags: HW
LayerCount: 2
Fore
SplineSet
380 -545 m 0
 380 -518 359 -505 331 -505 c 0
 316 -505 300 -513 300 -530 c 0
 300 -544 310 -555 318 -564 c 0
 326 -572 334 -582 344 -589 c 0
 349 -591 354 -593 357 -593 c 0
 374 -593 380 -563 380 -545 c 0
266 -626 m 0
 263 -628 260 -631 259 -634 c 0
 253 -642 249 -653 249 -664 c 0
 249 -666 249 -668 250 -671 c 0
 257 -703 284 -723 303 -723 c 0
 323 -723 340 -703 340 -687 c 0
 340 -682 338 -678 336 -673 c 0
 329 -654 311 -636 294 -625 c 0
 290 -623 285 -619 280 -619 c 0
 274 -619 269 -622 266 -626 c 0
0 502 m 1
 118 502 l 1
 118 167 118 -167 118 -502 c 1
 0 -502 l 1
 0 -167 0 167 0 502 c 1
303 -735 m 0
 267 -735 211 -711 211 -665 c 0
 211 -637 236 -608 262 -599 c 0
 266 -598 268 -597 268 -594 c 0
 268 -592 267 -591 266 -591 c 0
 255 -578 250 -564 250 -550 c 0
 250 -516 279 -489 321 -488 c 1
 319 -487 318 -487 317 -486 c 0
 286 -473 274 -444 264 -408 c 1
 264 -349 285 -310 341 -310 c 0
 374 -310 393 -326 397 -358 c 1
 390 -376 l 1
 380 -390 l 1
 363 -400 l 2
 357 -402 353 -404 347 -404 c 0
 327 -398 315 -395 308 -380 c 1
 309 -427 331 -464 374 -464 c 0
 402 -464 424 -451 443 -429 c 0
 464 -405 474 -373 474 -329 c 0
 473 -232 452 -183 374 -164 c 1
 333 -170 308 -189 301 -224 c 1
 301 -135 275 -78 218 -46 c 1
 218 -502 l 1
 175 -502 l 1
 175 -167 175 167 175 502 c 1
 218 502 l 1
 218 46 l 1
 275 78 301 135 301 224 c 1
 308 189 333 170 374 164 c 1
 452 183 473 232 474 329 c 0
 474 373 464 405 443 429 c 0
 424 451 402 464 374 464 c 0
 331 464 309 427 308 380 c 1
 315 395 327 398 347 404 c 0
 353 404 357 402 363 400 c 2
 380 390 l 1
 390 376 l 1
 397 358 l 1
 393 326 374 310 341 310 c 0
 285 310 264 349 264 408 c 1
 274 444 286 473 317 486 c 0
 320 489 339 495 344 497 c 2
 378 500 l 1
 413 502 l 1
 533 502 603 441 603 324 c 1
 606 291 l 1
 606 239 587 193 546 157 c 0
 506 122 445 105 371 105 c 1
 278 17 l 1
 278 -17 l 1
 371 -105 l 1
 445 -105 506 -122 546 -157 c 0
 587 -193 606 -239 606 -291 c 1
 603 -324 l 1
 603 -438 537 -502 423 -502 c 0
 420 -502 416 -502 413 -502 c 2
 381 -501 l 1
 400 -510 416 -524 416 -548 c 0
 416 -583 394 -591 385 -598 c 0
 379 -603 377 -608 377 -614 c 0
 377 -620 378 -625 381 -630 c 0
 388 -641 390 -652 390 -664 c 0
 390 -691 372 -717 344 -729 c 0
 333 -733 317 -735 303 -735 c 0
EndSplineSet
EndChar

StartChar: uniE051
Encoding: 57425 57425 15
Width: 650
VWidth: 2048
Flags: HW
LayerCount: 2
Fore
SplineSet
224 -392 m 0
 276 -392 322 -436 322 -488 c 0
 322 -539 288 -574 217 -594 c 1
 234 -618 268 -630 319 -630 c 0
 381 -630 435 -587 459 -545 c 0
 468 -529 472 -504 472 -471 c 0
 472 -451 470 -429 467 -404 c 0
 458 -351 449 -298 441 -245 c 1
 418 -249 393 -251 365 -251 c 0
 306 -251 263 -244 235 -231 c 0
 147 -189 85 -138 48 -77 c 0
 20 -30 -1 39 -1 120 c 0
 -1 245 82 369 154 436 c 0
 199 478 250 521 307 563 c 1
 304 579 299 609 294 655 c 0
 290 698 289 728 289 744 c 0
 289 861 305 916 358 1001 c 0
 392 1055 422 1082 447 1083 c 0
 468 1083 490 1053 516 991 c 0
 545 922 557 874 557 817 c 0
 557 707 536 655 490 576 c 0
 477 556 427 486 392 458 c 0
 379 449 367 439 355 429 c 1
 386 248 l 1
 394 249 404 250 414 250 c 0
 472 250 516 238 547 215 c 0
 610 169 646 102 646 9 c 0
 646 -114 559 -200 465 -239 c 1
 473 -296 482 -349 490 -401 c 0
 494 -432 496 -459 496 -481 c 0
 496 -511 491 -534 482 -551 c 0
 458 -596 424 -626 383 -642 c 1
 392 -642 l 2
 402 -642 411 -642 420 -642 c 0
 442 -642 459 -642 459 -646 c 0
 459 -668 425 -680 404 -684 c 2
 375 -690 l 2
 364 -692 353 -694 341 -697 c 2
 327 -700 l 1
 322 -704 320 -719 320 -726 c 0
 320 -727 321 -729 324 -729 c 0
 332 -729 346 -726 355 -726 c 0
 379 -726 386 -738 398 -738 c 1
 401 -741 l 1
 416 -752 424 -774 424 -796 c 0
 424 -856 366 -893 312 -893 c 0
 281 -893 250 -873 250 -835 c 0
 250 -819 258 -808 273 -804 c 1
 277 -804 l 2
 291 -804 301 -816 301 -830 c 0
 301 -845 287 -848 284 -866 c 1
 284 -877 301 -880 313 -880 c 0
 328 -879 353 -870 373 -813 c 0
 378 -799 380 -789 380 -781 c 0
 380 -753 358 -749 347 -749 c 0
 320 -749 300 -776 290 -776 c 0
 279 -776 279 -772 279 -767 c 0
 279 -754 302 -684 317 -655 c 1
 309 -655 300 -655 292 -654 c 1
 282 -680 206 -851 205 -859 c 0
 205 -880 232 -870 232 -881 c 0
 232 -886 227 -890 220 -890 c 0
 215 -889 209 -889 203 -889 c 0
 184 -889 160 -891 139 -891 c 0
 117 -891 100 -889 100 -881 c 1
 108 -863 129 -888 147 -851 c 0
 155 -835 186 -756 186 -754 c 0
 186 -754 l 2
 186 -754 188 -749 188 -745 c 0
 188 -741 187 -738 181 -738 c 0
 171 -738 167 -757 147 -757 c 0
 141 -757 136 -754 136 -749 c 0
 136 -747 136 -746 138 -743 c 0
 144 -736 218 -650 225 -644 c 0
 226 -643 228 -642 229 -641 c 1
 219 -638 210 -633 200 -628 c 0
 146 -602 120 -566 120 -511 c 0
 120 -445 160 -392 224 -392 c 0
518 850 m 0
 518 906 496 939 463 939 c 0
 462 939 462 939 461 939 c 0
 366 939 326 764 326 653 c 0
 326 629 328 605 331 582 c 1
 381 621 423 664 458 710 c 0
 498 763 518 810 518 850 c 0
570 -46 m 0
 570 63 518 119 418 119 c 0
 414 119 410 119 406 119 c 1
 460 -207 l 1
 533 -182 570 -129 570 -46 c 0
254 -3 m 0
 254 -54 295 -108 329 -125 c 1
 326 -127 322 -130 319 -135 c 1
 249 -102 203 -47 196 37 c 0
 196 41 196 44 196 48 c 0
 196 116 240 174 284 207 c 0
 307 224 333 236 362 243 c 1
 333 413 l 1
 312 400 281 376 241 340 c 0
 191 296 155 256 132 221 c 0
 87 153 64 93 64 41 c 0
 64 -37 97 -99 158 -150 c 0
 216 -199 283 -223 361 -223 c 0
 386 -223 411 -220 436 -214 c 1
 417 -103 400 7 382 117 c 1
 310 115 254 70 254 -3 c 0
EndSplineSet
EndChar

StartChar: uniE050
Encoding: 57424 57424 16
Width: 646
VWidth: 2048
Flags: HW
LayerCount: 2
Fore
SplineSet
441 -245 m 1
 418 -249 393 -251 365 -251 c 0
 306 -251 263 -244 235 -231 c 0
 147 -189 85 -138 48 -77 c 0
 22 -33 5 26 0 99 c 0
 0 105 -1 112 -1 118 c 0
 -1 172 14 229 44 288 c 0
 73 345 109 394 154 436 c 128
 199 478 250 521 307 563 c 1
 304 579 299 609 294 655 c 0
 290 698 289 728 289 744 c 0
 289 861 305 916 358 1001 c 0
 392 1055 422 1083 447 1083 c 0
 468 1083 490 1053 516 991 c 128
 542 929 555 876 557 832 c 0
 557 827 557 822 557 817 c 0
 557 708 536 655 490 576 c 0
 477 556 427 486 392 458 c 0
 379 449 367 439 355 429 c 1
 386 248 l 1
 394 249 404 250 414 250 c 0
 472 250 516 238 547 215 c 0
 606 172 639 111 645 31 c 0
 646 24 646 16 646 9 c 0
 646 -114 559 -200 465 -239 c 1
 473 -296 482 -349 490 -401 c 0
 495 -432 496 -459 496 -481 c 0
 496 -511 491 -534 482 -551 c 0
 447 -615 394 -650 324 -654 c 0
 319 -654 313 -655 308 -655 c 0
 271 -655 236 -645 200 -628 c 0
 150 -604 123 -569 120 -523 c 0
 120 -519 120 -516 120 -512 c 0
 120 -483 127 -457 140 -436 c 0
 158 -408 185 -394 219 -392 c 0
 221 -392 223 -392 225 -392 c 0
 274 -392 318 -434 322 -479 c 0
 322 -482 322 -485 322 -488 c 0
 322 -539 288 -574 217 -594 c 1
 234 -618 268 -630 319 -630 c 0
 381 -630 435 -587 459 -545 c 0
 468 -529 472 -504 472 -471 c 0
 472 -451 471 -429 467 -404 c 0
 459 -351 449 -298 441 -245 c 1
461 939 m 0
 366 939 326 764 326 653 c 0
 326 629 328 605 331 582 c 1
 381 621 423 664 458 710 c 0
 498 763 518 810 518 850 c 0
 518 853 518 855 518 858 c 0
 514 911 496 939 463 939 c 0
 462 939 462 939 461 939 c 0
406 119 m 1
 460 -207 l 1
 533 -182 570 -129 570 -46 c 0
 570 -39 570 -31 569 -23 c 0
 562 72 512 119 418 119 c 0
 414 119 410 119 406 119 c 1
382 117 m 1
 310 115 254 70 254 -3 c 0
 254 -5 254 -7 254 -10 c 0
 256 -56 297 -109 329 -125 c 1
 326 -127 322 -130 319 -135 c 1
 249 -102 203 -47 196 37 c 0
 196 41 196 44 196 48 c 0
 196 116 240 174 284 207 c 0
 307 224 333 236 362 243 c 1
 333 413 l 1
 312 400 281 376 241 340 c 0
 191 296 155 256 132 221 c 0
 87 152 65 91 65 39 c 0
 65 35 65 30 65 26 c 0
 70 -42 100 -101 158 -150 c 128
 216 -199 283 -223 361 -223 c 0
 386 -223 411 -220 436 -214 c 1
 417 -103 400 7 382 117 c 1
EndSplineSet
EndChar

StartChar: uniE052
Encoding: 57426 57426 17
Width: 646
VWidth: 2048
Flags: HW
LayerCount: 2
Fore
SplineSet
382 117 m 1
 310 115 254 70 254 -3 c 0
 254 -5 254 -7 254 -10 c 0
 256 -56 297 -109 329 -125 c 1
 326 -127 322 -130 319 -135 c 1
 249 -102 203 -47 196 37 c 0
 196 41 196 44 196 48 c 0
 196 116 240 174 284 207 c 0
 307 224 333 236 362 243 c 1
 333 413 l 1
 312 400 281 376 241 340 c 0
 191 296 155 256 132 221 c 0
 87 152 65 91 65 39 c 0
 65 35 65 30 65 26 c 0
 70 -42 100 -101 158 -150 c 0
 216 -199 283 -223 361 -223 c 0
 386 -223 411 -220 436 -214 c 1
 417 -103 400 7 382 117 c 1
406 119 m 1
 460 -207 l 1
 533 -182 570 -129 570 -46 c 0
 570 -39 570 -31 569 -23 c 0
 562 72 512 119 418 119 c 0
 414 119 410 119 406 119 c 1
461 939 m 0
 366 939 326 764 326 653 c 0
 326 629 328 605 331 582 c 1
 381 621 423 664 458 710 c 0
 498 763 518 810 518 850 c 0
 518 853 518 855 518 858 c 0
 514 911 496 939 463 939 c 0
 462 939 462 939 461 939 c 0
441 -245 m 1
 418 -249 393 -251 365 -251 c 0
 306 -251 263 -244 235 -231 c 0
 147 -189 85 -138 48 -77 c 0
 22 -33 5 26 0 99 c 0
 0 105 -1 112 -1 118 c 0
 -1 172 14 229 44 288 c 0
 73 345 109 394 154 436 c 0
 199 478 250 521 307 563 c 1
 304 579 299 609 294 655 c 0
 290 698 289 728 289 744 c 0
 289 861 305 916 358 1001 c 0
 392 1055 422 1083 447 1083 c 0
 468 1083 490 1053 516 991 c 0
 542 929 555 876 557 832 c 0
 557 827 557 822 557 817 c 0
 557 708 536 655 490 576 c 0
 477 556 427 486 392 458 c 0
 379 449 367 439 355 429 c 1
 386 248 l 1
 394 249 404 250 414 250 c 0
 472 250 516 238 547 215 c 0
 606 172 639 111 645 31 c 0
 646 24 646 16 646 9 c 0
 646 -114 559 -200 465 -239 c 1
 473 -296 482 -349 490 -401 c 0
 495 -432 496 -459 496 -481 c 0
 496 -511 491 -534 482 -551 c 0
 457 -597 423 -628 380 -643 c 1
 401 -644 465 -656 465 -703 c 0
 465 -738 443 -746 434 -753 c 0
 428 -758 426 -763 426 -769 c 0
 426 -775 426 -780 430 -785 c 1
 436 -796 439 -807 439 -819 c 0
 439 -846 421 -872 393 -884 c 0
 382 -888 366 -890 352 -890 c 0
 318 -890 270 -869 262 -832 c 0
 261 -827 260 -824 260 -820 c 0
 260 -792 285 -763 311 -754 c 0
 315 -753 317 -752 317 -749 c 0
 317 -747 316 -746 315 -746 c 0
 304 -733 299 -719 299 -705 c 0
 299 -684 310 -665 329 -654 c 1
 328 -654 326 -654 324 -654 c 0
 319 -654 313 -655 308 -655 c 0
 271 -655 236 -645 200 -628 c 0
 150 -604 123 -569 120 -523 c 0
 120 -519 120 -516 120 -512 c 0
 120 -483 127 -457 140 -436 c 0
 158 -408 185 -394 219 -392 c 0
 221 -392 223 -392 225 -392 c 0
 274 -392 318 -434 322 -479 c 0
 322 -482 322 -485 322 -488 c 0
 322 -539 288 -574 217 -594 c 1
 234 -618 268 -630 319 -630 c 0
 381 -630 435 -587 459 -545 c 0
 468 -529 472 -504 472 -471 c 0
 472 -451 471 -429 467 -404 c 0
 459 -351 449 -298 441 -245 c 1
315 -781 m 1
 312 -783 309 -786 308 -789 c 1
 302 -797 298 -808 298 -819 c 0
 298 -821 298 -823 299 -826 c 0
 306 -858 333 -878 352 -878 c 0
 372 -878 389 -858 389 -842 c 0
 389 -837 387 -833 385 -828 c 0
 380 -815 371 -804 360 -794 c 0
 354 -789 349 -784 343 -780 c 0
 339 -778 334 -774 329 -774 c 0
 323 -774 318 -777 315 -781 c 1
349 -685 m 1
 349 -699 359 -710 367 -719 c 0
 375 -727 383 -737 393 -744 c 1
 398 -746 403 -748 406 -748 c 0
 423 -748 428 -718 429 -700 c 0
 429 -691 426 -680 420 -674 c 0
 412 -665 397 -660 380 -660 c 1
 365 -661 351 -668 349 -685 c 1
EndSplineSet
EndChar

StartChar: uniE053
Encoding: 57427 57427 18
Width: 646
VWidth: 2048
Flags: HW
LayerCount: 2
Fore
SplineSet
382 117 m 5
 310 115 254 70 254 -3 c 0
 254 -5 254 -7 254 -10 c 4
 256 -56 297 -109 329 -125 c 5
 326 -127 322 -130 319 -135 c 5
 249 -102 203 -47 196 37 c 4
 196 41 196 44 196 48 c 0
 196 116 240 174 284 207 c 4
 307 224 333 236 362 243 c 5
 333 413 l 5
 312 400 281 376 241 340 c 4
 191 296 155 256 132 221 c 4
 87 152 65 91 65 39 c 0
 65 35 65 30 65 26 c 4
 70 -42 100 -101 158 -150 c 4
 216 -199 283 -223 361 -223 c 4
 386 -223 411 -220 436 -214 c 5
 417 -103 400 7 382 117 c 5
406 119 m 5
 460 -207 l 5
 533 -182 570 -129 570 -46 c 0
 570 -39 570 -31 569 -23 c 4
 562 72 512 119 418 119 c 0
 414 119 410 119 406 119 c 5
461 939 m 4
 366 939 326 764 326 653 c 4
 326 629 328 605 331 582 c 5
 381 621 423 664 458 710 c 4
 498 763 518 810 518 850 c 0
 518 853 518 855 518 858 c 4
 514 911 496 939 463 939 c 0
 462 939 462 939 461 939 c 4
441 -245 m 5
 418 -249 393 -251 365 -251 c 4
 306 -251 263 -244 235 -231 c 4
 147 -189 85 -138 48 -77 c 4
 22 -33 5 26 0 99 c 4
 0 105 -1 112 -1 118 c 0
 -1 172 14 229 44 288 c 4
 73 345 109 394 154 436 c 4
 199 478 250 521 307 563 c 5
 304 579 299 609 294 655 c 4
 290 698 289 728 289 744 c 4
 289 861 305 916 358 1001 c 4
 380 1036 401 1060 419 1073 c 5
 390 1080 358 1099 352 1128 c 4
 351 1133 350 1136 350 1140 c 4
 350 1168 375 1197 401 1206 c 4
 405 1207 407 1208 407 1211 c 4
 407 1213 406 1214 405 1214 c 4
 394 1227 389 1241 389 1255 c 4
 389 1279 403 1301 429 1311 c 5
 439 1316 451 1317 463 1317 c 6
 467 1317 l 6
 483 1317 555 1307 555 1257 c 4
 555 1222 533 1214 524 1207 c 4
 518 1202 516 1197 516 1191 c 4
 516 1185 516 1180 520 1175 c 5
 526 1164 529 1153 529 1141 c 4
 529 1114 511 1088 483 1076 c 4
 479 1075 474 1073 469 1072 c 5
 484 1058 499 1032 516 991 c 4
 542 929 555 876 557 832 c 4
 557 827 557 822 557 817 c 0
 557 708 536 655 490 576 c 4
 477 556 427 486 392 458 c 4
 379 449 367 439 355 429 c 5
 386 248 l 5
 394 249 404 250 414 250 c 4
 472 250 516 238 547 215 c 4
 606 172 639 111 645 31 c 4
 646 24 646 16 646 9 c 0
 646 -114 559 -200 465 -239 c 5
 473 -296 482 -349 490 -401 c 4
 495 -432 496 -459 496 -481 c 4
 496 -511 491 -534 482 -551 c 4
 447 -615 394 -650 324 -654 c 4
 319 -654 313 -655 308 -655 c 0
 271 -655 236 -645 200 -628 c 4
 150 -604 123 -569 120 -523 c 4
 120 -519 120 -516 120 -512 c 0
 120 -483 127 -457 140 -436 c 4
 158 -408 185 -394 219 -392 c 4
 221 -392 223 -392 225 -392 c 0
 274 -392 318 -434 322 -479 c 4
 322 -482 322 -485 322 -488 c 0
 322 -539 288 -574 217 -594 c 5
 234 -618 268 -630 319 -630 c 4
 381 -630 435 -587 459 -545 c 4
 468 -529 472 -504 472 -471 c 4
 472 -451 471 -429 467 -404 c 4
 459 -351 449 -298 441 -245 c 5
405 1179 m 5
 402 1177 399 1174 398 1171 c 5
 392 1163 388 1152 388 1141 c 4
 388 1139 388 1137 389 1134 c 4
 396 1104 420 1084 439 1082 c 5
 442 1083 444 1083 447 1083 c 4
 448 1083 449 1083 450 1083 c 4
 466 1087 479 1104 479 1118 c 4
 479 1123 477 1127 475 1132 c 4
 470 1145 461 1156 450 1166 c 4
 444 1171 439 1176 433 1180 c 4
 429 1182 424 1186 419 1186 c 4
 413 1186 408 1183 405 1179 c 5
439 1275 m 5
 439 1261 449 1250 457 1241 c 4
 465 1233 473 1223 483 1216 c 5
 488 1214 493 1212 496 1212 c 4
 513 1212 518 1242 519 1260 c 4
 519 1269 516 1280 510 1286 c 4
 502 1295 487 1300 470 1300 c 5
 455 1299 441 1292 439 1275 c 5
EndSplineSet
EndChar

StartChar: uniE054
Encoding: 57428 57428 19
Width: 646
VWidth: 2048
Flags: HW
LayerCount: 2
Fore
SplineSet
254 -3 m 0
 254 -54 295 -108 329 -125 c 1
 326 -127 322 -130 319 -135 c 1
 249 -102 203 -47 196 37 c 0
 196 41 196 44 196 48 c 0
 196 116 240 174 284 207 c 0
 307 224 333 236 362 243 c 1
 333 413 l 1
 312 400 281 376 241 340 c 0
 191 296 155 256 132 221 c 0
 87 152 65 91 65 39 c 0
 65 -38 98 -99 158 -150 c 0
 216 -199 283 -223 361 -223 c 0
 386 -223 411 -220 436 -214 c 1
 417 -103 400 7 382 117 c 1
 310 115 254 70 254 -3 c 0
570 -46 m 0
 570 63 519 119 418 119 c 0
 414 119 410 119 406 119 c 1
 460 -207 l 1
 533 -182 570 -129 570 -46 c 0
518 850 m 0
 518 906 496 939 463 939 c 0
 462 939 462 939 461 939 c 0
 366 939 326 764 326 653 c 0
 326 629 328 605 331 582 c 1
 381 621 423 664 458 710 c 0
 498 763 518 810 518 850 c 0
225 -392 m 0
 276 -392 322 -437 322 -488 c 0
 322 -539 288 -574 217 -594 c 1
 234 -618 268 -630 319 -630 c 0
 381 -630 435 -587 459 -545 c 0
 468 -529 472 -504 472 -471 c 0
 472 -451 471 -429 467 -404 c 0
 459 -351 449 -298 441 -245 c 1
 418 -249 393 -251 365 -251 c 0
 306 -251 263 -244 235 -231 c 0
 147 -189 85 -138 48 -77 c 0
 21 -31 -1 38 -1 118 c 0
 -1 244 83 369 154 436 c 0
 199 478 250 521 307 563 c 1
 304 579 299 609 294 655 c 0
 290 698 289 728 289 744 c 0
 289 861 305 916 358 1001 c 0
 373 1026 388 1044 402 1058 c 1
 400 1058 398 1058 396 1058 c 0
 378 1058 354 1056 333 1056 c 0
 310 1056 291 1058 291 1067 c 1
 299 1085 320 1060 338 1097 c 0
 346 1113 377 1192 377 1194 c 0
 377 1194 l 2
 377 1194 379 1199 379 1203 c 0
 379 1207 378 1210 372 1210 c 0
 362 1210 358 1191 338 1191 c 0
 332 1191 327 1194 327 1199 c 0
 327 1201 327 1202 329 1205 c 0
 335 1212 409 1298 416 1304 c 0
 423 1310 427 1313 432 1313 c 0
 442 1313 449 1302 465 1302 c 0
 471 1302 476 1306 479 1306 c 0
 483 1306 484 1305 484 1301 c 2
 484 1297 l 1
 483 1290 397 1097 396 1089 c 1
 396 1074 410 1075 418 1072 c 1
 428 1079 438 1083 447 1083 c 2
 448 1083 l 1
 443 1091 441 1101 441 1113 c 0
 441 1129 449 1140 464 1144 c 1
 468 1144 l 2
 482 1144 492 1132 492 1118 c 0
 492 1103 478 1100 475 1082 c 1
 475 1071 492 1068 504 1068 c 0
 519 1069 544 1078 564 1135 c 0
 569 1149 571 1159 571 1167 c 0
 571 1195 549 1199 538 1199 c 0
 511 1199 491 1172 481 1172 c 0
 470 1172 470 1176 470 1181 c 0
 470 1197 506 1304 518 1306 c 1
 583 1306 l 2
 593 1306 602 1306 611 1306 c 0
 633 1306 650 1306 650 1302 c 0
 650 1280 616 1268 595 1264 c 2
 566 1258 l 2
 555 1256 544 1254 532 1251 c 2
 518 1248 l 1
 513 1244 511 1229 511 1222 c 0
 511 1221 512 1219 515 1219 c 0
 523 1219 537 1222 546 1222 c 0
 570 1222 577 1210 589 1210 c 1
 592 1207 l 1
 607 1196 615 1174 615 1152 c 0
 615 1092 557 1055 503 1055 c 0
 496 1055 488 1056 481 1058 c 1
 492 1043 504 1020 516 991 c 0
 542 929 555 876 557 832 c 0
 557 827 557 822 557 817 c 0
 557 707 536 655 490 576 c 1
 477 556 427 486 392 458 c 1
 379 449 367 439 355 429 c 1
 386 248 l 1
 394 249 404 250 414 250 c 0
 472 250 516 238 547 215 c 0
 610 169 646 102 646 9 c 0
 646 -114 559 -200 465 -239 c 1
 473 -296 482 -349 490 -401 c 0
 495 -432 496 -459 496 -481 c 0
 496 -511 491 -534 482 -551 c 0
 445 -619 389 -655 308 -655 c 0
 272 -655 236 -645 200 -628 c 0
 147 -603 120 -567 120 -513 c 0
 120 -444 159 -392 225 -392 c 0
EndSplineSet
EndChar

StartChar: uniE062
Encoding: 57442 57442 20
Width: 698
VWidth: 2048
Flags: HW
LayerCount: 2
Fore
SplineSet
158 96 m 4
 209 96 231 82 246 47 c 6
 262 8 l 5
 262 -9 260 -22 255 -32 c 5
 252 -43 245 -53 236 -63 c 4
 219 -81 187 -106 152 -106 c 4
 97 -106 75 -93 40 -62 c 4
 16 -41 5 -7 5 38 c 4
 5 84 19 119 37 150 c 4
 67 202 108 229 174 243 c 5
 210 249 l 5
 236 251 l 5
 390 251 471 183 510 69 c 4
 521 37 528 1 528 -38 c 4
 528 -141 502 -220 460 -288 c 4
 371 -433 226 -518 48 -576 c 5
 18 -581 l 5
 9 -581 4 -578 4 -573 c 5
 7 -563 9 -562 14 -557 c 5
 49 -542 84 -527 110 -513 c 6
 188 -470 l 5
 284 -413 350 -334 385 -212 c 132
 394 -179 402 -152 407 -112 c 132
 410 -90 412 -77 413 -73 c 5
 406 -4 397 42 390 67 c 4
 383 92 386 89 374 107 c 4
 366 119 355 130 343 141 c 4
 319 162 281 185 225 185 c 4
 177 185 141 177 112 157 c 4
 84 138 70 113 70 84 c 4
 70 76 70 76 70 68 c 5
 72 63 73 59 74 57 c 5
 98 79 126 96 158 96 c 4
585 -118 m 132
 585 -86 608 -60 642 -60 c 4
 660 -60 675 -66 682 -78 c 132
 691 -93 698 -96 698 -118 c 4
 698 -127 696 -134 693 -139 c 5
 687 -158 666 -176 642 -176 c 4
 608 -176 585 -150 585 -118 c 132
642 177 m 4
 673 177 698 150 698 119 c 4
 698 89 673 61 642 61 c 5
 619 64 l 5
 600 71 585 96 585 119 c 5
 588 142 l 5
 597 162 616 177 642 177 c 4
EndSplineSet
EndChar

StartChar: uniE063
Encoding: 57443 57443 21
Width: 698
VWidth: 2048
Flags: HW
LayerCount: 2
Fore
SplineSet
158 96 m 4
 209 96 231 82 246 47 c 6
 262 8 l 5
 262 -9 260 -22 255 -32 c 5
 252 -43 245 -53 236 -63 c 4
 219 -81 187 -106 152 -106 c 4
 97 -106 75 -93 40 -62 c 4
 16 -41 5 -7 5 38 c 4
 5 84 19 119 37 150 c 4
 67 202 108 229 174 243 c 5
 210 249 l 5
 236 251 l 5
 390 251 471 183 510 69 c 4
 521 37 528 1 528 -38 c 4
 528 -141 502 -220 460 -288 c 4
 371 -433 226 -518 48 -576 c 5
 18 -581 l 5
 9 -581 4 -578 4 -573 c 5
 7 -563 9 -562 14 -557 c 5
 49 -542 84 -527 110 -513 c 6
 188 -470 l 5
 284 -413 350 -334 385 -212 c 132
 394 -179 402 -152 407 -112 c 132
 410 -90 412 -77 413 -73 c 5
 406 -4 397 42 390 67 c 4
 383 92 386 89 374 107 c 4
 366 119 355 130 343 141 c 4
 319 162 281 185 225 185 c 4
 177 185 141 177 112 157 c 4
 84 138 70 113 70 84 c 4
 70 76 70 76 70 68 c 5
 72 63 73 59 74 57 c 5
 98 79 126 96 158 96 c 4
585 -118 m 132
 585 -86 608 -60 642 -60 c 4
 660 -60 675 -66 682 -78 c 132
 691 -93 698 -96 698 -118 c 4
 698 -127 696 -134 693 -139 c 5
 687 -158 666 -176 642 -176 c 4
 608 -176 585 -150 585 -118 c 132
642 177 m 4
 673 177 698 150 698 119 c 4
 698 89 673 61 642 61 c 5
 619 64 l 5
 600 71 585 96 585 119 c 5
 588 142 l 5
 597 162 616 177 642 177 c 4
254 -752 m 2
 254 -752 154 -752 150 -752 c 0
 145 -752 139 -749 139 -743 c 1
 141 -738 142 -735 150 -735 c 0
 158 -735 168 -732 168 -732 c 1
 168 -732 177 -730 185 -714 c 0
 193 -698 221 -621 221 -621 c 1
 221 -621 223 -616 223 -612 c 0
 223 -609 222 -606 217 -606 c 0
 213 -606 209 -609 205 -614 c 0
 201 -619 194 -624 185 -624 c 0
 178 -624 173 -621 173 -616 c 0
 173 -614 173 -613 175 -611 c 0
 181 -604 253 -521 258 -516 c 0
 265 -509 270 -506 274 -506 c 0
 278 -506 285 -510 290 -514 c 0
 295 -517 299 -518 306 -518 c 0
 311 -518 316 -514 319 -514 c 0
 323 -514 324 -515 324 -518 c 0
 324 -519 324 -521 324 -522 c 0
 322 -528 241 -714 240 -722 c 0
 240 -728 244 -736 253 -736 c 0
 259 -736 265 -738 265 -743 c 0
 265 -748 261 -752 254 -752 c 2
305 -669 m 0xabcc
 307 -669 308 -669 309 -669 c 0
 322 -669 332 -680 332 -694 c 0
 332 -699 330 -705 327 -709 c 0
 322 -715 317 -718 315 -726 c 1
 315 -728 l 2
 315 -739 332 -742 341 -742 c 2
 343 -742 l 2xabc4
 358 -742 381 -732 401 -677 c 0
 405 -664 407 -655 407 -646 c 0
 407 -620 387 -616 375 -616 c 0
 357 -616 337 -635 329 -640 c 0
 327 -642 324 -642 321 -642 c 0
 317 -642 314 -641 314 -641 c 2
 312 -640 311 -637 311 -634 c 0
 311 -630 312 -626 312 -624 c 0
 312 -623 313 -623 313 -622 c 0
 317 -604 326 -586 332 -568 c 0xabac
 335 -559 344 -541 344 -534 c 1
 346 -527 350 -515 357 -514 c 1
 365 -514 392 -514 419 -514 c 0
 446 -514 474 -514 482 -515 c 0
 483 -515 483 -516 483 -517 c 0
 483 -521 478 -529 477 -530 c 0
 475 -534 471 -537 468 -539 c 0
 464 -542 460 -545 455 -547 c 0
 447 -550 439 -552 430 -554 c 0
 421 -555 412 -557 403 -559 c 0
 392 -562 381 -562 370 -566 c 0
 366 -567 361 -568 357 -570 c 0x7ba4
 352 -573 351 -581 351 -587 c 1
 350 -589 350 -591 350 -593 c 0
 350 -595 350 -596 352 -597 c 2
 353 -598 l 1
 355 -598 358 -596 361 -596 c 1
 363 -595 365 -595 367 -595 c 0
 373 -594 379 -594 384 -594 c 0
 406 -594 414 -599 425 -606 c 1
 427 -608 l 1x6bac
 438 -616 443 -627 447 -640 c 0
 449 -646 450 -654 450 -662 c 0
 450 -670 449 -678 448 -684 c 0
 443 -708 423 -726 402 -738 c 0
 385 -747 363 -755 343 -755 c 0
 328 -755 313 -751 302 -742 c 0
 291 -733 283 -715 283 -699 c 0
 283 -687 288 -676 299 -671 c 0
 301 -670 303 -670 305 -669 c 0xabcc
EndSplineSet
EndChar

StartChar: uniE064
Encoding: 57444 57444 22
Width: 698
VWidth: 2048
Flags: HW
LayerCount: 2
Fore
SplineSet
158 96 m 4
 209 96 231 82 246 47 c 6
 262 8 l 5
 262 -9 260 -22 255 -32 c 5
 252 -43 245 -53 236 -63 c 4
 219 -81 187 -106 152 -106 c 4
 97 -106 75 -93 40 -62 c 4
 16 -41 5 -7 5 38 c 4
 5 84 19 119 37 150 c 4
 67 202 108 229 174 243 c 5
 210 249 l 5
 236 251 l 5
 390 251 471 183 510 69 c 4
 521 37 528 1 528 -38 c 4
 528 -141 502 -220 460 -288 c 4
 371 -433 226 -518 48 -576 c 5
 18 -581 l 5
 9 -581 4 -578 4 -573 c 5
 7 -563 9 -562 14 -557 c 5
 49 -542 84 -527 110 -513 c 6
 188 -470 l 5
 284 -413 350 -334 385 -212 c 132
 394 -179 402 -152 407 -112 c 132
 410 -90 412 -77 413 -73 c 5
 406 -4 397 42 390 67 c 4
 383 92 386 89 374 107 c 4
 366 119 355 130 343 141 c 4
 319 162 281 185 225 185 c 4
 177 185 141 177 112 157 c 4
 84 138 70 113 70 84 c 4
 70 76 70 76 70 68 c 5
 72 63 73 59 74 57 c 5
 98 79 126 96 158 96 c 4
585 -118 m 132
 585 -86 608 -60 642 -60 c 4
 660 -60 675 -66 682 -78 c 132
 691 -93 698 -96 698 -118 c 4
 698 -127 696 -134 693 -139 c 5
 687 -158 666 -176 642 -176 c 4
 608 -176 585 -150 585 -118 c 132
642 177 m 4
 673 177 698 150 698 119 c 4
 698 89 673 61 642 61 c 5
 619 64 l 5
 600 71 585 96 585 119 c 5
 588 142 l 5
 597 162 616 177 642 177 c 4
232 -572 m 0
 232 -539 261 -513 303 -513 c 2
 308 -513 l 2
 323 -513 392 -523 392 -570 c 0
 392 -604 371 -611 362 -619 c 0
 356 -624 354 -629 354 -634 c 0
 354 -639 355 -644 358 -649 c 0
 364 -659 366 -670 366 -681 c 0
 366 -708 350 -733 323 -744 c 0
 311 -748 296 -750 284 -750 c 0
 249 -750 195 -727 195 -683 c 0
 195 -656 219 -628 244 -620 c 0
 249 -618 250 -617 250 -615 c 0
 250 -613 249 -612 248 -611 c 0
 237 -600 232 -586 232 -572 c 0
358 -567 m 2
 358 -542 336 -529 312 -529 c 2
 310 -529 l 1
 295 -530 282 -537 280 -553 c 1x0520
 280 -555 l 2
 280 -567 290 -578 297 -586 c 0
 306 -595 320 -614 335 -614 c 0
 352 -614 357 -585 358 -570 c 1
 358 -567 l 2
261 -638 m 0x2808
 243 -638 232 -663 232 -681 c 2
 232 -688 l 1
 239 -720 265 -738 283 -738 c 0
 303 -738 318 -720 318 -704 c 0
 318 -699 317 -695 315 -691 c 0
 310 -678 302 -667 291 -658 c 0
 286 -653 280 -649 275 -644 c 1
 271 -642 266 -638 261 -638 c 0x2808
EndSplineSet
EndChar

StartChar: uniE065
Encoding: 57445 57445 23
Width: 698
VWidth: 2048
Flags: HW
LayerCount: 2
Fore
SplineSet
642 177 m 0
 673 177 698 150 698 119 c 0
 698 89 673 61 642 61 c 1
 619 64 l 1
 600 71 585 96 585 119 c 1
 588 142 l 1
 597 162 616 177 642 177 c 0
585 -118 m 128
 585 -86 608 -60 642 -60 c 0
 660 -60 675 -66 682 -78 c 128
 691 -93 698 -96 698 -118 c 0
 698 -127 696 -134 693 -139 c 1
 687 -158 666 -176 642 -176 c 0
 608 -176 585 -150 585 -118 c 128
158 96 m 0
 209 96 231 82 246 47 c 2
 262 8 l 1
 262 -9 260 -22 255 -32 c 1
 252 -43 245 -53 236 -63 c 0
 219 -81 187 -106 152 -106 c 0
 97 -106 75 -93 40 -62 c 0
 16 -41 5 -7 5 38 c 0
 5 84 19 119 37 150 c 0
 67 202 108 229 174 243 c 1
 210 249 l 1
 236 251 l 1
 270 251 301 247 328 241 c 1
 315 250 305 263 302 278 c 0
 301 283 300 286 300 290 c 0
 300 318 325 347 351 356 c 0
 355 357 357 358 357 361 c 0
 357 363 356 364 355 364 c 0
 344 377 339 391 339 405 c 0
 339 429 353 451 379 461 c 1
 389 466 401 467 413 467 c 2
 417 467 l 2
 433 467 505 457 505 407 c 0
 505 372 483 364 474 357 c 0
 468 352 466 347 466 341 c 0
 466 335 466 330 470 325 c 1
 476 314 479 303 479 291 c 0
 479 264 461 238 433 226 c 0
 422 222 406 220 392 220 c 0
 390 220 389 220 387 220 c 1
 448 190 486 138 510 69 c 0
 521 37 528 1 528 -38 c 0
 528 -141 502 -220 460 -288 c 0
 371 -433 226 -518 48 -576 c 1
 18 -581 l 1
 9 -581 4 -578 4 -573 c 1
 7 -563 9 -562 14 -557 c 1
 49 -542 84 -527 110 -513 c 2
 188 -470 l 1
 284 -413 350 -334 385 -212 c 0
 394 -179 402 -152 407 -112 c 0
 410 -90 412 -77 413 -73 c 1
 406 -4 397 42 390 67 c 0
 383 92 386 89 374 107 c 0
 366 119 355 130 343 141 c 0
 319 162 281 185 225 185 c 0
 177 185 141 177 112 157 c 0
 84 138 70 113 70 84 c 0
 70 76 70 76 70 68 c 1
 72 63 73 59 74 57 c 1
 98 79 126 96 158 96 c 0
355 329 m 1
 352 327 349 324 348 321 c 1
 342 313 338 302 338 291 c 0
 338 289 338 287 339 284 c 0
 346 252 373 232 392 232 c 0
 412 232 429 252 429 268 c 0
 429 273 427 277 425 282 c 0
 420 295 411 306 400 316 c 0
 394 321 389 326 383 330 c 0
 379 332 374 336 369 336 c 0
 363 336 358 333 355 329 c 1
389 425 m 1
 389 411 399 400 407 391 c 0
 415 383 423 373 433 366 c 1
 438 364 443 362 446 362 c 0
 463 362 468 392 469 410 c 0
 469 419 466 430 460 436 c 0
 452 445 437 450 420 450 c 1
 405 449 391 442 389 425 c 1
EndSplineSet
EndChar

StartChar: uniE066
Encoding: 57446 57446 24
Width: 698
VWidth: 2048
Flags: HW
LayerCount: 2
Fore
SplineSet
642 177 m 0
 673 177 698 150 698 119 c 0
 698 89 673 61 642 61 c 1
 619 64 l 1
 600 71 585 96 585 119 c 1
 588 142 l 1
 597 162 616 177 642 177 c 0
585 -118 m 128
 585 -86 608 -60 642 -60 c 0
 660 -60 675 -66 682 -78 c 128
 691 -93 698 -96 698 -118 c 0
 698 -127 696 -134 693 -139 c 1
 687 -158 666 -176 642 -176 c 0
 608 -176 585 -150 585 -118 c 128
225 185 m 0
 147 185 70 155 70 84 c 0
 70 76 70 76 70 68 c 1
 72 63 73 59 74 57 c 1
 98 79 126 96 158 96 c 0
 209 96 231 82 246 47 c 2
 262 8 l 1
 262 -9 260 -22 255 -32 c 1
 252 -43 245 -53 236 -63 c 0
 219 -81 187 -106 152 -106 c 0
 97 -106 75 -93 40 -62 c 0
 16 -41 5 -7 5 38 c 0
 5 84 19 119 37 150 c 0
 65 199 131 231 189 246 c 1
 191 250 192 252 193 252 c 0
 194 252 194 250 195 250 c 0
 196 250 199 253 207 269 c 0
 215 285 246 364 246 366 c 0
 246 366 l 2
 246 366 248 371 248 375 c 0
 248 379 247 382 241 382 c 0
 231 382 227 363 207 363 c 0
 201 363 196 366 196 371 c 0
 196 373 196 374 198 377 c 0
 204 384 278 470 285 476 c 0
 292 482 296 485 301 485 c 0
 311 485 318 474 334 474 c 0
 340 474 345 478 348 478 c 0
 352 478 353 477 353 473 c 2
 353 469 l 1
 352 462 266 269 265 261 c 0
 265 255 267 252 270 250 c 1
 292 248 312 246 331 241 c 1
 319 251 310 265 310 285 c 0
 310 301 318 312 333 316 c 1
 337 316 l 2
 351 316 361 304 361 290 c 0
 361 275 347 272 344 254 c 1
 344 243 361 240 373 240 c 0
 388 241 413 250 433 307 c 0
 438 321 440 331 440 339 c 0
 440 367 418 371 407 371 c 0
 380 371 360 344 350 344 c 0
 339 344 339 348 339 353 c 0
 339 369 375 476 387 478 c 1
 452 478 l 2
 462 478 471 478 480 478 c 0
 502 478 519 478 519 474 c 0
 519 452 485 440 464 436 c 2
 435 430 l 2
 424 428 413 426 401 423 c 2
 387 420 l 1
 382 416 380 401 380 394 c 0
 380 393 381 391 384 391 c 0
 392 391 406 394 415 394 c 0
 439 394 446 382 458 382 c 1
 461 379 l 1
 476 368 484 346 484 324 c 0
 484 264 426 227 372 227 c 1
 441 198 485 143 510 69 c 0
 521 37 528 1 528 -38 c 0
 528 -141 502 -220 460 -288 c 0
 371 -433 226 -518 48 -576 c 1
 18 -581 l 1
 9 -581 4 -578 4 -573 c 1
 7 -563 9 -562 14 -557 c 1
 49 -542 84 -527 110 -513 c 2
 188 -470 l 1
 284 -413 350 -334 385 -212 c 0
 394 -179 402 -152 407 -112 c 0
 410 -90 412 -77 413 -73 c 1
 406 -4 397 42 390 67 c 0
 383 92 386 89 374 107 c 0
 366 119 355 130 343 141 c 0
 319 162 281 185 225 185 c 0
EndSplineSet
EndChar

StartChar: uniE262
Encoding: 57954 57954 25
Width: 197
VWidth: 2048
Flags: HW
AnchorPoint: "cutOutNW" 40 161 basechar 0
AnchorPoint: "cutOutNE" 156 211 basechar 0
AnchorPoint: "cutOutSE" 156 -160 basechar 0
AnchorPoint: "cutOutSW" 40 -205 basechar 0
LayerCount: 2
Fore
SplineSet
136 186 m 1
 136 355 l 1
 153 355 l 1
 153 191 l 1
 197 205 l 1
 197 114 l 1
 153 100 l 1
 153 -65 l 1
 197 -53 l 1
 197 -144 l 1
 153 -157 l 1
 153 -312 l 1
 136 -312 l 1
 136 -162 l 1
 60 -184 l 1
 60 -339 l 1
 43 -339 l 1
 43 -190 l 1
 0 -203 l 1
 0 -113 l 1
 43 -99 l 1
 43 68 l 1
 0 54 l 1
 0 146 l 5
 43 159 l 5
 43 328 l 1
 60 328 l 1
 60 165 l 1
 136 186 l 1
60 73 m 1
 60 -94 l 1
 136 -72 l 1
 136 96 l 1
 60 73 l 1
EndSplineSet
EndChar

StartChar: uniE261
Encoding: 57953 57953 26
Width: 157
VWidth: 2048
Flags: HW
AnchorPoint: "cutOutSW" 137 -190 basechar 0
AnchorPoint: "cutOutNE" 20 184 basechar 0
LayerCount: 2
Fore
SplineSet
0 -188 m 1
 0 351 l 1
 18 351 l 1
 18 160 l 1
 157 182 l 1
 157 4 157 -173 157 -351 c 1
 140 -351 l 1
 140 -165 l 1
 0 -188 l 1
18 -100 m 1
 140 -83 l 1
 140 93 l 1
 18 74 l 1
 18 -100 l 1
EndSplineSet
EndChar

StartChar: uniE260
Encoding: 57952 57952 27
Width: 200
VWidth: 2048
Flags: HW
AnchorPoint: "cutOutSE" 108 -86 basechar 0
AnchorPoint: "cutOutNE" 24 141 basechar 0
LayerCount: 2
Fore
SplineSet
20 110 m 1
 52 126 74 137 113 137 c 0
 139 137 148 134 167 124 c 0
 180 117 191 104 194 86 c 2
 198 61 l 1
 198 33 182 4 153 -28 c 0
 130 -53 114 -72 88 -96 c 2
 0 -175 l 1
 0 469 l 1
 20 469 l 1
 20 110 l 1
90 106 m 1
 58 106 42 96 20 77 c 1
 20 -117 l 1
 51 -86 74 -58 91 -33 c 0
 112 -1 123 26 123 51 c 0
 123 60 124 67 124 71 c 0
 124 85 121 92 113 101 c 1
 105 104 l 1
 90 106 l 1
EndSplineSet
EndChar

StartChar: uniE264
Encoding: 57956 57956 28
Width: 388
VWidth: 2048
Flags: HW
AnchorPoint: "cutOutNE" 214 140 basechar 0
AnchorPoint: "cutOutSE" 308 -75 basechar 0
LayerCount: 2
Fore
SplineSet
280 106 m 1
 248 106 232 96 210 77 c 1
 210 -117 l 1
 241 -86 264 -58 281 -33 c 0
 302 -1 313 26 313 51 c 0
 314 60 314 67 314 71 c 0
 314 85 311 92 303 101 c 1
 295 104 l 1
 280 106 l 1
113 137 m 0
 151 137 178 124 190 96 c 1
 190 469 l 1
 210 469 l 1
 210 110 l 1
 242 126 264 137 303 137 c 0
 329 137 338 134 357 124 c 0
 370 117 381 104 384 86 c 2
 388 61 l 1
 388 33 372 4 343 -28 c 0
 320 -53 304 -72 278 -96 c 2
 190 -175 l 1
 190 24 l 1
 178 -4 144 -39 123 -63 c 0
 114 -74 102 -85 88 -96 c 2
 0 -175 l 1
 0 42 0 254 0 469 c 1
 20 469 l 1
 20 110 l 1
 52 126 74 137 113 137 c 0
90 106 m 1
 58 106 42 96 20 77 c 1
 20 -117 l 1
 51 -86 74 -58 91 -33 c 0
 112 -1 123 26 123 51 c 0
 124 60 124 67 124 71 c 0
 124 85 121 92 113 101 c 1
 105 104 l 1
 90 106 l 1
EndSplineSet
EndChar

StartChar: uniE266
Encoding: 57958 57958 29
Width: 578
VWidth: 2048
Flags: HW
AnchorPoint: "cutOutSE" 492 -78 basechar 0
AnchorPoint: "cutOutNE" 404 142 basechar 0
LayerCount: 2
Fore
SplineSet
280 106 m 1
 248 106 232 96 210 77 c 1
 210 -117 l 1
 241 -86 264 -58 281 -33 c 0
 302 -1 313 26 313 51 c 0
 314 60 314 67 314 71 c 0
 314 85 311 92 303 101 c 1
 295 104 l 1
 280 106 l 1
303 137 m 0
 341 137 368 124 380 96 c 1
 380 469 l 1
 400 469 l 1
 400 110 l 1
 432 126 454 137 493 137 c 0
 519 137 528 134 547 124 c 0
 560 117 571 104 574 86 c 2
 578 61 l 1
 578 33 562 4 533 -28 c 0
 510 -53 494 -72 468 -96 c 2
 380 -175 l 1
 380 24 l 1
 368 -4 334 -39 313 -63 c 0
 304 -74 292 -85 278 -96 c 2
 190 -175 l 1
 190 24 l 1
 178 -4 144 -39 123 -63 c 0
 114 -74 102 -85 88 -96 c 2
 0 -175 l 1
 0 469 l 1
 20 469 l 1
 20 110 l 1
 52 126 74 137 113 137 c 0
 151 137 178 124 190 96 c 1
 190 469 l 1
 210 469 l 1
 210 110 l 1
 242 126 264 137 303 137 c 0
470 106 m 1
 438 106 422 96 400 77 c 1
 400 -117 l 1
 431 -86 454 -58 471 -33 c 0
 492 -1 503 26 503 51 c 0
 504 60 504 67 504 71 c 0
 504 85 501 92 493 101 c 1
 485 104 l 1
 470 106 l 1
90 106 m 1
 58 106 42 96 20 77 c 1
 20 -117 l 1
 51 -86 74 -58 91 -33 c 0
 112 -1 123 26 123 51 c 0
 124 60 124 67 124 71 c 0
 124 85 121 92 113 101 c 1
 105 104 l 1
 90 106 l 1
EndSplineSet
EndChar

StartChar: uniE267
Encoding: 57959 57959 30
Width: 378
VWidth: 2048
Flags: HW
AnchorPoint: "cutOutNE" 204 139 basechar 0
AnchorPoint: "cutOutSE" 292 -80 basechar 0
AnchorPoint: "cutOutSW" 135 -195 basechar 0
LayerCount: 2
Fore
SplineSet
0 -188 m 1
 0 351 l 1
 18 351 l 1
 18 160 l 1
 157 182 l 1
 157 4 157 -173 157 -351 c 1
 140 -351 l 1
 140 -165 l 1
 0 -188 l 1
18 -100 m 1
 140 -83 l 1
 140 93 l 1
 18 74 l 1
 18 -100 l 1
200 110 m 1
 232 126 254 137 293 137 c 0
 319 137 328 134 347 124 c 0
 360 117 371 104 374 86 c 2
 378 61 l 1
 378 33 362 4 333 -28 c 0
 310 -53 294 -72 268 -96 c 2
 180 -175 l 1
 180 469 l 1
 200 469 l 1
 200 110 l 1
270 106 m 1
 238 106 222 96 200 77 c 1
 200 -117 l 1
 231 -86 254 -58 271 -33 c 0
 292 -1 303 26 303 51 c 0
 303 60 304 67 304 71 c 0
 304 85 301 92 293 101 c 1
 285 104 l 1
 270 106 l 1
EndSplineSet
EndChar

StartChar: uniE263
Encoding: 57955 57955 31
Width: 258
VWidth: 2048
Flags: HW
LayerCount: 2
Fore
SplineSet
0 120 m 5
 74 120 l 5
 74 66 l 5
 89 49 l 5
 168 49 l 5
 183 65 l 5
 183 120 l 5
 257 120 l 5
 257 48 l 5
 198 48 l 5
 173 20 l 5
 173 -18 l 5
 198 -50 l 5
 257 -50 l 5
 257 -120 l 5
 182 -120 l 5
 182 -65 l 5
 168 -50 l 5
 88 -50 l 5
 74 -65 l 5
 74 -120 l 5
 0 -120 l 5
 0 -48 l 5
 60 -48 l 5
 86 -18 l 5
 86 20 l 5
 58 49 l 5
 0 49 l 5
 0 120 l 5
EndSplineSet
EndChar

StartChar: uniE265
Encoding: 57957 57957 32
Width: 475
VWidth: 2048
Flags: HW
AnchorPoint: "cutOutNE" 435 209 basechar 0
AnchorPoint: "cutOutSE" 435 -161 basechar 0
AnchorPoint: "cutOutSW" 274 -125 basechar 0
AnchorPoint: "cutOutNW" 274 124 basechar 0
LayerCount: 2
Fore
SplineSet
414 186 m 1
 414 355 l 1
 431 355 l 1
 431 191 l 1
 475 205 l 1
 475 114 l 1
 431 100 l 1
 431 -65 l 1
 475 -53 l 1
 475 -144 l 1
 431 -157 l 1
 431 -312 l 1
 414 -312 l 1
 414 -162 l 1
 338 -184 l 1
 338 -339 l 1
 321 -339 l 1
 321 -190 l 1
 278 -203 l 1
 278 -113 l 1
 321 -99 l 1
 321 68 l 1
 278 54 l 1
 278 146 l 1
 321 159 l 1
 321 328 l 1
 338 328 l 1
 338 165 l 1
 414 186 l 1
338 73 m 1
 338 -94 l 1
 414 -72 l 1
 414 96 l 1
 338 73 l 1
0 120 m 1
 74 120 l 1
 74 66 l 1
 89 49 l 1
 168 49 l 1
 183 65 l 1
 183 120 l 1
 257 120 l 1
 257 48 l 1
 198 48 l 1
 173 20 l 1
 173 -18 l 1
 198 -50 l 1
 257 -50 l 1
 257 -120 l 1
 182 -120 l 1
 182 -65 l 1
 168 -50 l 1
 88 -50 l 1
 74 -65 l 1
 74 -120 l 1
 0 -120 l 1
 0 -48 l 1
 60 -48 l 1
 86 -18 l 1
 86 20 l 1
 58 49 l 1
 0 49 l 1
 0 120 l 1
EndSplineSet
EndChar

StartChar: uniE268
Encoding: 57960 57960 33
Width: 377
VWidth: 2048
Flags: HW
AnchorPoint: "cutOutSE" 337 -162 basechar 0
AnchorPoint: "cutOutSW" 136 -193 basechar 0
AnchorPoint: "cutOutNE" 337 210 basechar 0
LayerCount: 2
Fore
SplineSet
0 -188 m 1
 0 351 l 1
 18 351 l 1
 18 160 l 1
 157 182 l 1
 157 4 157 -173 157 -351 c 1
 140 -351 l 1
 140 -165 l 1
 0 -188 l 1
18 -100 m 1
 140 -83 l 1
 140 93 l 1
 18 74 l 1
 18 -100 l 1
316 186 m 1
 316 355 l 1
 333 355 l 1
 333 191 l 1
 377 205 l 1
 377 114 l 1
 333 100 l 1
 333 -65 l 1
 377 -53 l 1
 377 -144 l 1
 333 -157 l 1
 333 -312 l 1
 316 -312 l 1
 316 -162 l 1
 240 -184 l 1
 240 -339 l 1
 223 -339 l 1
 223 -190 l 1
 180 -203 l 1
 180 -113 l 1
 223 -99 l 1
 223 68 l 1
 180 54 l 1
 180 146 l 1
 223 159 l 1
 223 328 l 1
 240 328 l 1
 240 165 l 1
 316 186 l 1
240 73 m 1
 240 -94 l 1
 316 -72 l 1
 316 96 l 1
 240 73 l 1
EndSplineSet
EndChar

StartChar: uniE269
Encoding: 57961 57961 34
Width: 412
VWidth: 2048
Flags: HW
AnchorPoint: "cutOutNE" 370 207 basechar 0
AnchorPoint: "cutOutSE" 371 -159 basechar 0
AnchorPoint: "cutOutSW" 40 -205 basechar 0
AnchorPoint: "cutOutNW" 40 164 basechar 0
LayerCount: 2
Fore
SplineSet
136 186 m 1
 136 355 l 1
 153 355 l 1
 153 191 l 1
 197 205 l 1
 197 114 l 1
 153 100 l 1
 153 -65 l 1
 197 -53 l 1
 197 -144 l 1
 153 -157 l 1
 153 -312 l 1
 136 -312 l 1
 136 -162 l 1
 60 -184 l 1
 60 -339 l 1
 43 -339 l 1
 43 -190 l 1
 0 -203 l 1
 0 -113 l 1
 43 -99 l 1
 43 68 l 1
 0 54 l 1
 0 146 l 1
 43 159 l 1
 43 328 l 1
 60 328 l 1
 60 165 l 1
 136 186 l 1
60 73 m 1
 60 -94 l 1
 136 -72 l 1
 136 96 l 1
 60 73 l 1
351 186 m 1
 351 355 l 1
 368 355 l 1
 368 191 l 1
 412 205 l 1
 412 114 l 1
 368 100 l 1
 368 -65 l 1
 412 -53 l 1
 412 -144 l 1
 368 -157 l 1
 368 -312 l 1
 351 -312 l 1
 351 -162 l 1
 275 -184 l 1
 275 -339 l 1
 258 -339 l 1
 258 -190 l 1
 215 -203 l 1
 215 -113 l 1
 258 -99 l 1
 258 68 l 1
 215 54 l 1
 215 146 l 1
 258 159 l 1
 258 328 l 1
 275 328 l 1
 275 165 l 1
 351 186 l 1
275 73 m 1
 275 -94 l 1
 351 -72 l 1
 351 96 l 1
 275 73 l 1
EndSplineSet
EndChar

StartChar: uniE26A
Encoding: 57962 57962 35
Width: 163
Flags: HW
LayerCount: 2
Fore
SplineSet
163 -234 m 6xa0
 163 -247 l 6
 163 -248 162 -251 162 -251 c 5
 160 -251 159 -251 159 -250 c 4
 48 -189 0 -101 0 0 c 4
 0 102 50 189 159 249 c 5
 159 250 l 5
 162 250 163 248 163 246 c 4
 163 235 l 5
 163 235 163 230 160 227 c 4x60
 93 178 59 111 59 0 c 4
 59 -111 96 -177 159 -228 c 5
 162 -229 163 -231 163 -234 c 6xa0
EndSplineSet
EndChar

StartChar: uniE26B
Encoding: 57963 57963 36
Width: 163
Flags: HW
LayerCount: 2
Fore
SplineSet
0 -247 m 6xa0
 0 -234 l 6
 0 -231 1 -229 4 -228 c 5
 67 -177 104 -111 104 0 c 4
 104 111 70 178 3 227 c 4
 0 230 0 235 0 235 c 5
 0 235 0 242 0 246 c 4
 0 248 1 250 4 250 c 5
 4 249 l 5x60
 113 189 163 102 163 0 c 4
 163 -101 115 -189 4 -250 c 4
 4 -251 3 -251 1 -251 c 5
 1 -251 0 -248 0 -247 c 6xa0
EndSplineSet
EndChar

StartChar: uniE4C0
Encoding: 58560 58560 37
Width: 605
Flags: HW
LayerCount: 2
Fore
SplineSet
605 21 m 1052,0,0
0 0 m 21,0,0
 0 3 3 17 4 21 c 4,0,0
 62 314 254 320 299 320 c 0,0,0
 301 320 303 320 304 320 c 4,0,0
 305 320 307 320 309 320 c 0,0,0
 351 320 545 314 604 21 c 4,0,0
 605 17 605 3 605 0 c 5,0,0
 573 0 l 5,0,0
 572 1 569 22 568 25 c 4,0,0
 558 63 516 227 303 227 c 4,0,0
 95 227 51 68 39 27 c 4,0,0
 38 23 33 1 33 0 c 5,0,0
 0 0 l 21,0,0
358 52 m 4,0,0
 358 22 333 -3 303 -3 c 4,0,0
 274 -3 249 22 249 52 c 4,0,0
 249 81 274 106 303 106 c 4,0,0
 333 106 358 81 358 52 c 4,0,0
EndSplineSet
EndChar

StartChar: uniE4C1
Encoding: 58561 58561 38
Width: 605
Flags: HW
LayerCount: 2
Fore
SplineSet
605 -21 m 1052,0,0
0 0 m 13,0,0
 33 0 l 5,0,0
 33 -1 38 -23 39 -27 c 4,0,0
 51 -68 95 -227 303 -227 c 4,0,0
 516 -227 558 -63 568 -25 c 4,0,0
 569 -22 572 -1 573 0 c 5,0,0
 605 0 l 5,0,0
 605 -3 605 -17 604 -21 c 4,0,0
 545 -314 351 -320 309 -320 c 0,0,0
 307 -320 305 -320 304 -320 c 4,0,0
 303 -320 301 -320 299 -320 c 0,0,0
 254 -320 62 -314 4 -21 c 4,0,0
 3 -17 0 -3 0 0 c 13,0,0
358 -52 m 4,0,0
 358 -81 333 -106 303 -106 c 4,0,0
 274 -106 249 -81 249 -52 c 4,0,0
 249 -22 274 3 303 3 c 4,0,0
 333 3 358 -22 358 -52 c 4,0,0
EndSplineSet
EndChar

StartChar: uniE0FA
Encoding: 57594 57594 39
Width: 405
VWidth: 2048
Flags: HW
LayerCount: 2
Fore
SplineSet
198 -133 m 0
 147 -133 102 -122 65 -101 c 0
 22 -77 0 -43 0 0 c 129
 0 43 21 77 64 102 c 1
 101 123 146 133 198 133 c 4
 251 133 297 122 336 101 c 1
 382 77 405 43 405 0 c 0
 405 -46 382 -81 336 -104 c 0
 299 -123 253 -133 198 -133 c 0
EndSplineSet
EndChar

StartChar: uniE240
Encoding: 57920 57920 40
Width: 277
VWidth: 2048
Flags: HW
LayerCount: 2
Fore
SplineSet
179 -646 m 4
 194 -617 208 -591 225 -544 c 4
 243 -495 255 -436 255 -406 c 4
 255 -301 175 -233 87 -206 c 4
 69 -201 40 -197 0 -190 c 5
 0 0 l 5
 22 0 l 6
 30 0 55 -61 93 -95 c 4
 97 -98 91 -92 154 -151 c 4
 216 -209 276 -288 276 -392 c 4
 276 -430 263 -498 241 -555 c 4
 221 -606 198 -654 175 -687 c 5
 169 -692 165 -694 162 -694 c 4
 159 -694 157 -692 157 -689 c 5
 161 -679 l 134
 162 -676 175 -654 179 -646 c 4
EndSplineSet
EndChar

StartChar: uniE241
Encoding: 57921 57921 41
Width: 277
VWidth: 2048
Flags: HW
LayerCount: 2
Fore
SplineSet
179 646 m 4
 175 654 162 676 161 679 c 134
 157 689 l 5
 157 692 159 694 162 694 c 4
 165 694 169 692 175 687 c 5
 198 654 221 606 241 555 c 4
 263 498 276 430 276 392 c 4
 276 288 216 209 154 151 c 4
 91 92 97 98 93 95 c 4
 55 61 30 0 22 0 c 6
 0 0 l 5
 0 190 l 5
 40 197 69 201 87 206 c 4
 175 233 255 301 255 406 c 4
 255 436 243 495 225 544 c 4
 208 591 194 617 179 646 c 4
EndSplineSet
EndChar

StartChar: uniE08B
Encoding: 57483 57483 42
Width: 2048
VWidth: 2048
Flags: HW
LayerCount: 2
Fore
SplineSet
188 200 m 5
 146 178 125 131 125 59 c 6
 125 -60 l 6
 125 -99 132 -130 144 -154 c 4
 156 -178 170 -194 188 -202 c 5
 188 200 l 5
0 -0 m 4
 0 127 80 220 186 246 c 5
 186 318 l 5
 218 318 l 5
 212 246 l 5
 245 246 283 246 313 235 c 132
 367 215 415 170 415 100 c 4
 415 84 411 70 402 57 c 4
 393 44 382 33 370 28 c 6
 350 20 l 5
 327 17 l 5
 305 19 286 25 272 38 c 4
 258 51 251 69 246 89 c 5
 246 127 291 169 325 169 c 4
 337 169 344 172 344 179 c 4
 344 185 338 191 329 197 c 4
 310 210 282 221 250 221 c 4
 240 221 230 220 218 216 c 5
 218 -215 l 5
 233 -218 230 -219 248 -219 c 4
 305 -219 348 -168 369 -126 c 5
 386 -87 l 5
 389 -74 391 -62 391 -52 c 5
 417 -52 l 5
 411 -122 389 -173 351 -204 c 132
 313 -235 269 -251 218 -251 c 5
 218 -319 l 5
 188 -319 l 5
 188 -247 l 5
 131 -237 66 -193 35 -138 c 132
 28 -126 22 -112 16 -96 c 4
 5 -67 0 -35 0 -0 c 4
EndSplineSet
EndChar

StartChar: uniE08A
Encoding: 57482 57482 43
Width: 422
VWidth: 2048
Flags: HW
LayerCount: 2
Fore
SplineSet
340 179 m 5
 331 203 284 220 251 220 c 4
 205 220 170 192 151 162 c 4
 134 134 126 84 126 12 c 4
 126 -53 128 -99 134 -123 c 4
 142 -154 152 -172 174 -190 c 4
 194 -207 217 -215 244 -215 c 4
 298 -215 336 -179 359 -140 c 132
 373 -115 382 -86 387 -52 c 5
 414 -52 l 5
 414 -115 390 -157 356 -193 c 4
 321 -231 274 -249 216 -249 c 4
 171 -249 133 -236 101 -210 c 4
 44 -165 0 -80 0 16 c 4
 0 75 33 143 68 179 c 132
 104 216 165 251 228 251 c 4
 264 251 321 230 349 211 c 132
 360 203 372 194 382 181 c 4
 401 158 409 133 409 105 c 4
 409 54 374 17 323 17 c 4
 280 17 247 44 247 85 c 4
 247 111 254 120 268 136 c 4
 283 153 300 163 326 168 c 4
 333 170 340 175 340 179 c 5
EndSplineSet
EndChar

StartChar: uniE4E5
Encoding: 58597 58597 44
Width: 304
VWidth: 2048
Flags: HW
LayerCount: 2
Fore
SplineSet
107 292 m 0
 94 316 77 341 55 363 c 128
 54 364 55 365 55 366 c 2
 53 368 l 1
 56 371 57 372 59 372 c 0
 71 372 85 365 99 352 c 128
 113 339 143 312 188 271 c 0
 214 247 216 242 234 224 c 128
 238 220 242 215 244 210 c 1
 250 202 252 194 252 183 c 0
 252 164 240 143 216 122 c 0
 188 99 167 84 155 49 c 128
 151 38 148 22 145 -1 c 1
 158 -44 179 -84 204 -122 c 0
 235 -169 263 -201 305 -251 c 1
 297 -251 279 -244 251 -231 c 2
 189 -202 l 1
 168 -196 l 1
 145 -195 l 1
 120 -195 100 -205 85 -225 c 1
 81 -239 l 1
 80 -251 l 1
 80 -284 100 -307 119 -329 c 128
 127 -338 136 -347 145 -355 c 0
 162 -370 172 -379 173 -385 c 1
 170 -388 l 1
 159 -383 151 -378 145 -373 c 1
 136 -370 108 -352 100 -347 c 0
 76 -333 55 -315 37 -296 c 0
 18 -275 0 -252 -0 -225 c 0
 0 -162 27 -130 80 -130 c 0
 121 -130 166 -148 216 -182 c 1
 197 -156 179 -134 161 -116 c 0
 138 -93 113 -72 88 -51 c 0
 60 -28 41 -11 30 2 c 128
 19 15 13 28 12 41 c 1
 87 105 125 166 125 224 c 0
 125 251 118 272 107 292 c 0
EndSplineSet
EndChar

StartChar: uniE4E6
Encoding: 58598 58598 45
Width: 277
VWidth: 2048
Flags: HW
LayerCount: 2
Fore
SplineSet
0 123 m 5
 7 157 33 179 69 183 c 5
 98 180 112 174 122 154 c 132
 126 146 129 139 132 132 c 5
 132 111 131 107 121 97 c 5
 116 89 103 83 81 77 c 5
 93 74 l 5
 108 73 l 5
 152 73 205 99 230 129 c 132
 240 140 248 155 254 171 c 5
 261 172 269 173 276 174 c 5
 136 -250 l 5
 100 -250 l 5
 211 80 l 5
 201 74 184 68 158 64 c 6
 106 56 l 5
 96 56 l 5
 76 57 l 6
 75 57 68 60 55 63 c 4
 18 72 0 91 0 123 c 5
EndSplineSet
EndChar

StartChar: uniE4E7
Encoding: 58599 58599 46
Width: 324
VWidth: 2048
Flags: HW
LayerCount: 2
Fore
SplineSet
133 -111 m 5
 133 -144 112 -161 81 -166 c 5
 91 -169 99 -170 106 -170 c 4
 146 -170 175 -146 196 -123 c 5
 262 74 l 5
 226 56 198 49 150 49 c 4
 127 49 112 52 105 57 c 5
 68 64 50 84 50 116 c 5
 58 151 80 170 118 174 c 5
 163 168 167 161 182 126 c 5
 182 123 183 121 183 119 c 0
 183 92 158 73 131 70 c 5
 137 66 146 64 157 64 c 4
 189 66 219 78 245 93 c 132
 277 112 289 129 304 164 c 5
 311 165 l 5
 321 167 l 5
 325 167 l 5
 253 -53 182 -272 110 -492 c 5
 73 -492 l 5
 181 -168 l 5
 161 -181 130 -188 99 -188 c 4
 78 -188 64 -184 56 -178 c 5
 19 -172 1 -152 1 -120 c 5
 9 -85 32 -64 69 -60 c 5
 112 -68 117 -73 133 -111 c 5
EndSplineSet
EndChar

StartChar: uniE4E8
Encoding: 58600 58600 47
Width: 404
VWidth: 2048
Flags: HW
LayerCount: 2
Fore
SplineSet
69 -54 m 1
 113 -63 118 -64 132 -104 c 1
 132 -118 131 -128 128 -133 c 0
 121 -144 105 -153 81 -159 c 1
 87 -162 96 -163 106 -163 c 0
 124 -163 145 -156 167 -141 c 0
 185 -129 197 -115 197 -115 c 1
 258 72 l 1
 236 60 210 51 177 51 c 0
 159 51 143 54 131 60 c 0
 95 69 77 89 77 121 c 1
 85 155 108 179 145 179 c 0
 179 179 208 155 208 122 c 0
 208 111 204 101 198 92 c 0
 194 87 182 80 159 74 c 1
 167 71 175 69 183 69 c 0
 218 69 254 94 271 114 c 1
 337 312 l 1
 325 301 304 300 282 295 c 0
 264 291 253 287 247 287 c 2
 232 287 l 1
 204 289 l 2
 194 290 187 292 181 295 c 0
 144 302 125 321 125 354 c 1
 134 387 158 413 197 413 c 0
 230 413 250 392 258 364 c 1
 258 327 241 317 207 309 c 1
 212 305 220 303 231 303 c 0
 245 303 260 306 276 311 c 0
 323 326 365 354 377 403 c 1
 395 405 l 1
 399 404 l 1
 111 -485 l 1
 74 -485 l 1
 180 -167 l 1
 163 -177 137 -182 108 -182 c 0
 86 -182 68 -179 56 -173 c 0
 21 -165 1 -150 1 -112 c 1
 9 -77 32 -58 69 -54 c 1
EndSplineSet
EndChar

StartChar: uniE4E9
Encoding: 58601 58601 48
Width: 480
VWidth: 2048
Flags: HW
LayerCount: 2
Fore
SplineSet
270 413 m 0
 310 413 326 398 335 366 c 1
 334 327 322 317 285 309 c 1
 288 308 290 307 292 307 c 0
 294 307 296 306 298 305 c 2
 312 304 l 2
 340 305 369 314 397 330 c 0
 425 346 446 371 460 403 c 1
 466 403 l 1
 473 407 l 1
 480 406 l 1
 402 171 326 -66 249 -302 c 0
 239 -334 228 -365 217 -397 c 2
 217 -397 l 2
 181 -504 146 -611 110 -718 c 1
 76 -718 l 1
 112 -610 146 -500 184 -394 c 1
 157 -408 137 -413 100 -413 c 0
 80 -413 66 -411 57 -406 c 0
 27 -400 2 -382 2 -348 c 0
 2 -311 31 -291 70 -287 c 1
 111 -295 121 -300 134 -336 c 1
 134 -375 118 -381 83 -392 c 1
 91 -395 99 -397 106 -397 c 0
 136 -397 166 -382 196 -351 c 1
 259 -162 l 1
 233 -176 216 -181 181 -181 c 0
 160 -181 147 -176 132 -172 c 0
 98 -163 79 -145 79 -114 c 0
 79 -79 108 -59 147 -54 c 1
 188 -62 198 -68 210 -105 c 1
 210 -120 209 -130 205 -135 c 0
 199 -144 183 -152 160 -160 c 1
 168 -163 176 -163 185 -163 c 0
 224 -161 250 -141 274 -117 c 1
 335 70 l 1
 307 58 279 52 251 52 c 0
 233 52 219 55 210 59 c 0
 173 66 154 86 154 120 c 1
 164 155 187 174 223 178 c 1
 268 173 274 166 287 128 c 1
 287 91 272 84 239 73 c 1
 247 71 254 70 262 70 c 0
 303 70 329 95 353 120 c 1
 415 311 l 1
 396 301 334 287 303 287 c 0
 285 287 269 288 258 295 c 1
 222 303 204 323 204 355 c 0
 204 388 237 413 270 413 c 0
EndSplineSet
EndChar

StartChar: uniE4EA
Encoding: 58602 58602 49
Width: 578
VWidth: 2048
Flags: HW
LayerCount: 2
Fore
SplineSet
379 567 m 5
 392 564 394 562 406 562 c 4
 434 562 463 572 495 590 c 4
 523 606 547 630 556 664 c 5
 564 664 l 5
 573 666 l 5
 579 666 l 5
 497 419 l 5
 372 34 245 -350 119 -734 c 5
 84 -734 l 5
 120 -622 156 -510 193 -399 c 5
 171 -412 134 -418 100 -418 c 4
 90 -418 84 -419 82 -418 c 6
 65 -412 l 5
 26 -404 7 -383 7 -350 c 5
 15 -315 38 -294 77 -288 c 5
 118 -294 134 -303 144 -341 c 5
 142 -380 127 -386 91 -398 c 5
 98 -401 106 -401 116 -401 c 4
 156 -399 183 -379 207 -353 c 5
 272 -157 l 5
 251 -171 226 -179 194 -179 c 4
 171 -179 155 -177 142 -170 c 5
 106 -162 88 -142 88 -110 c 5
 96 -75 118 -52 156 -47 c 5
 202 -52 207 -61 222 -99 c 5
 222 -138 204 -147 169 -156 c 5
 176 -158 186 -162 195 -162 c 4
 235 -160 261 -140 288 -114 c 5
 350 83 l 5
 327 67 308 62 271 62 c 4
 258 63 231 66 222 70 c 5
 184 79 165 100 165 132 c 5
 176 168 194 188 236 193 c 5
 279 185 288 180 301 142 c 5
 301 104 284 91 248 84 c 5
 256 81 265 79 273 79 c 4
 310 80 350 107 367 129 c 5
 431 323 l 5
 409 307 391 303 352 303 c 4
 336 303 324 303 319 304 c 6
 301 311 l 5
 263 320 244 341 244 373 c 5
 252 407 276 428 315 435 c 5
 355 427 368 418 381 382 c 5
 381 342 365 333 327 325 c 5
 338 321 347 320 356 320 c 4
 397 320 424 345 448 372 c 5
 513 570 l 5
 487 559 431 546 394 546 c 4
 372 546 364 546 350 553 c 5
 313 562 294 582 294 614 c 5
 302 650 326 671 365 677 c 5
 400 674 431 657 431 621 c 4
 431 589 408 572 379 567 c 5
EndSplineSet
EndChar

StartChar: uniE880
Encoding: 59520 59520 50
Width: 243
VWidth: 2048
Flags: HW
LayerCount: 2
Fore
SplineSet
166 326 m 4
 213 326 243 283 243 236 c 4
 243 124 175 0 79 0 c 4
 29 0 0 43 0 93 c 4
 0 145 14 195 43 242 c 4
 71 288 104 326 166 326 c 4
191 268 m 4
 191 289 181 302 166 307 c 5
 133 307 105 271 81 200 c 4
 62 143 52 96 52 57 c 5
 54 43 l 5
 57 38 57 35 61 31 c 4
 66 24 72 19 81 19 c 4
 111 19 143 53 163 126 c 6
 184 204 l 5
 189 225 191 247 191 268 c 4
EndSplineSet
EndChar

StartChar: uniE881
Encoding: 59521 59521 51
Width: 207
VWidth: 2048
Flags: HW
LayerCount: 2
Fore
SplineSet
207 311 m 5
 122 36 l 5
 118 30 129 25 135 23 c 5
 153 21 l 5
 164 21 l 5
 158 0 l 5
 0 0 l 5
 6 21 l 5
 21 21 l 6
 28 21 35 23 42 26 c 5
 51 27 58 34 62 46 c 6
 117 222 l 5
 46 166 l 5
 36 176 l 5
 145 311 l 5
 207 311 l 5
EndSplineSet
EndChar

StartChar: uniE882
Encoding: 59522 59522 52
Width: 260
VWidth: 2048
Flags: HW
LayerCount: 2
Fore
SplineSet
166 311 m 4
 226 311 260 290 260 231 c 4
 260 204 248 180 220 167 c 6
 150 135 l 5
 113 125 81 105 54 75 c 5
 75 75 l 5
 101 73 l 5
 113 67 l 5
 127 61 141 56 155 50 c 4
 161 47 168 46 176 46 c 5
 191 50 l 5
 202 58 l 5
 207 63 213 71 221 84 c 5
 238 75 l 5
 222 47 l 6
 220 43 206 19 202 16 c 5
 183 -5 164 -15 145 -15 c 6
 135 -15 l 5
 122 -9 110 -3 99 5 c 6
 84 16 l 5
 72 23 61 26 52 26 c 5
 42 23 33 18 28 9 c 6
 23 0 l 5
 0 0 l 5
 0 27 6 51 20 72 c 4
 27 82 34 88 39 93 c 6
 67 118 l 5
 87 129 107 140 126 151 c 5
 145 160 l 6
 161 167 174 178 184 190 c 4
 196 205 203 220 203 235 c 5
 204 247 l 5
 204 260 200 271 192 278 c 5
 186 287 177 292 164 292 c 4
 135 292 118 277 112 248 c 5
 115 236 l 5
 117 220 l 5
 117 200 109 191 92 191 c 4
 78 191 66 204 66 219 c 4
 66 267 118 311 166 311 c 4
EndSplineSet
EndChar

StartChar: uniE883
Encoding: 59523 59523 53
Width: 255
VWidth: 2048
Flags: HW
LayerCount: 2
Fore
SplineSet
161 326 m 4
 213 326 255 309 255 258 c 4
 255 208 215 182 173 164 c 5
 199 143 212 122 212 100 c 4
 212 48 156 0 94 0 c 6
 82 0 l 6
 42 0 0 23 0 56 c 4
 0 86 12 105 37 105 c 4
 54 105 68 89 71 74 c 5
 71 69 67 62 60 53 c 5
 53 48 47 43 47 32 c 5
 58 23 l 5
 75 19 l 5
 96 19 115 31 131 56 c 4
 144 77 150 101 150 126 c 5
 141 156 122 161 84 161 c 5
 90 184 l 5
 124 184 150 188 167 197 c 4
 187 208 197 232 197 267 c 4
 197 295 185 305 158 307 c 5
 138 304 l 5
 130 301 126 295 126 288 c 5
 128 281 130 277 131 274 c 6
 135 263 l 5
 138 253 l 5
 135 241 l 5
 130 235 124 230 115 228 c 4
 113 228 111 227 109 227 c 0
 93 227 79 240 79 255 c 4
 79 294 122 326 161 326 c 4
EndSplineSet
EndChar

StartChar: uniE884
Encoding: 59524 59524 54
Width: 259
VWidth: 2048
Flags: HW
LayerCount: 2
Fore
SplineSet
259 110 m 5
 253 89 l 5
 194 89 l 5
 178 37 l 6
 175 31 178 26 187 23 c 5
 221 21 l 5
 215 0 l 5
 60 0 l 5
 66 21 l 5
 84 22 l 5
 99 26 l 6
 108 29 115 37 119 49 c 6
 132 89 l 5
 0 89 l 5
 5 110 l 5
 17 120 31 132 44 149 c 6
 77 192 l 6
 90 210 104 233 117 260 c 4
 124 277 131 294 138 311 c 5
 235 311 l 5
 199 262 l 6
 186 246 166 228 150 213 c 4
 114 178 74 146 35 113 c 5
 143 110 l 5
 163 182 l 5
 243 259 l 5
 248 259 l 5
 204 110 l 5
 259 110 l 5
EndSplineSet
EndChar

StartChar: uniE885
Encoding: 59525 59525 55
Width: 240
VWidth: 2048
Flags: HW
LayerCount: 2
Fore
SplineSet
84 0 m 4
 35 0 0 18 0 66 c 5
 1 80 l 5
 3 85 5 89 8 94 c 5
 15 101 24 105 35 108 c 5
 42 108 48 105 54 99 c 5
 58 90 l 5
 60 79 l 5
 56 66 l 5
 53 61 53 60 48 55 c 5
 41 39 l 5
 41 31 44 26 51 23 c 6
 64 19 l 5
 79 19 l 6
 101 19 121 34 138 64 c 4
 153 91 161 116 161 139 c 5
 158 152 l 6
 156 160 145 169 137 172 c 6
 122 176 l 5
 105 175 l 5
 89 172 l 5
 72 162 l 5
 49 144 l 5
 28 144 l 5
 90 326 l 5
 99 323 115 320 125 317 c 5
 158 314 l 5
 168 314 l 5
 191 317 l 5
 240 326 l 5
 221 299 187 268 151 268 c 6
 141 268 l 5
 119 270 l 5
 110 273 102 277 93 281 c 5
 57 173 l 5
 75 185 l 5
 95 194 l 5
 117 199 l 5
 143 202 l 6
 152 202 162 201 173 197 c 4
 187 192 187 191 197 180 c 4
 211 165 219 147 219 122 c 4
 219 90 206 60 178 35 c 4
 150 11 118 0 84 0 c 4
EndSplineSet
EndChar

StartChar: uniE886
Encoding: 59526 59526 56
Width: 214
VWidth: 2048
Flags: HW
LayerCount: 2
Fore
SplineSet
154 326 m 4
 189 326 211 310 214 277 c 4
 214 270 213 264 212 261 c 6
 204 247 l 6
 200 240 191 235 176 232 c 5
 163 233 l 5
 151 240 l 5
 147 244 144 251 145 260 c 6
 146 271 l 5
 154 281 l 5
 171 297 l 5
 169 304 162 307 151 307 c 4
 121 307 98 282 82 233 c 5
 73 202 l 5
 67 166 l 5
 92 187 109 200 150 200 c 4
 178 200 206 171 206 139 c 4
 206 74 161 0 88 0 c 4
 19 0 0 38 0 108 c 6
 0 126 l 134
 0 132 1 139 3 146 c 5
 3 167 5 166 12 185 c 4
 29 235 57 280 95 305 c 4
 115 318 134 326 154 326 c 4
58 58 m 4
 58 34 63 19 85 19 c 4
 103 19 120 34 133 66 c 4
 143 91 149 108 149 138 c 5
 146 148 l 5
 140 160 l 5
 134 167 126 172 114 172 c 4
 103 172 90 161 77 139 c 5
 63 99 l 5
 60 84 58 71 58 58 c 4
EndSplineSet
EndChar

StartChar: uniE887
Encoding: 59527 59527 57
Width: 243
VWidth: 2048
Flags: HW
LayerCount: 2
Fore
SplineSet
243 311 m 5
 240 286 233 264 225 244 c 4
 216 221 197 186 168 139 c 5
 151 104 l 5
 138 69 l 5
 133 50 128 24 128 0 c 5
 28 0 l 5
 30 15 38 33 52 54 c 4
 71 84 109 130 138 159 c 4
 168 190 191 221 208 263 c 5
 206 265 l 5
 190 249 175 239 163 233 c 4
 156 230 151 228 140 228 c 6
 132 228 l 5
 105 244 l 6
 96 249 86 252 75 252 c 4
 70 252 63 251 58 246 c 6
 42 232 l 5
 35 221 28 207 21 190 c 5
 0 190 l 5
 38 311 l 5
 58 311 l 5
 53 302 50 295 50 290 c 4
 50 286 51 283 52 282 c 6
 61 276 l 5
 85 296 l 6
 95 304 109 311 125 311 c 4
 136 311 154 299 158 290 c 5
 168 282 179 276 189 276 c 0
 191 276 l 6
 204 277 l 5
 213 284 l 6
 217 288 221 303 224 311 c 5
 243 311 l 5
EndSplineSet
EndChar

StartChar: uniE888
Encoding: 59528 59528 58
Width: 274
VWidth: 2048
Flags: HW
LayerCount: 2
Fore
SplineSet
61 247 m 5
 61 298 118 326 169 326 c 4
 202 326 221 314 241 299 c 4
 252 290 260 279 265 268 c 4
 270 256 274 244 274 231 c 4
 274 220 270 210 261 199 c 132
 252 188 234 176 205 162 c 5
 219 142 l 5
 229 126 l 6
 233 118 235 112 236 108 c 6
 239 89 l 5
 239 27 181 0 115 0 c 4
 57 0 0 33 0 87 c 4
 0 135 48 159 89 175 c 5
 79 189 74 193 68 210 c 6
 62 228 l 5
 61 247 l 5
192 174 m 5
 219 190 232 213 236 247 c 4
 236 254 234 260 232 266 c 4
 229 273 225 279 220 285 c 4
 208 299 194 307 176 307 c 4
 149 307 126 294 126 270 c 4
 126 249 137 226 160 204 c 6
 192 174 l 5
175 62 m 5
 175 79 166 88 156 104 c 4
 155 105 153 108 149 112 c 132
 133 128 117 145 101 162 c 5
 76 145 l 5
 58 129 l 5
 46 108 l 5
 43 101 42 91 42 80 c 4
 42 63 50 48 65 35 c 5
 89 23 l 6
 96 20 105 19 115 19 c 4
 136 19 150 24 161 31 c 4
 170 37 176 45 176 56 c 5
 175 62 l 5
EndSplineSet
EndChar

StartChar: uniE889
Encoding: 59529 59529 59
Width: 225
VWidth: 2048
Flags: HW
LayerCount: 2
Fore
SplineSet
131 326 m 4
 192 326 225 281 225 215 c 4
 225 190 221 168 214 146 c 4
 207 124 196 102 182 80 c 4
 150 32 112 -1 62 -1 c 4
 30 -1 2 24 0 59 c 5
 0 67 l 5
 4 80 13 89 27 89 c 4
 34 89 40 86 45 81 c 5
 48 80 51 73 53 62 c 5
 51 54 48 42 48 33 c 0
 48 25 51 19 61 19 c 4
 81 19 101 37 122 73 c 5
 136 108 l 5
 141 117 148 142 151 152 c 5
 127 139 l 5
 114 131 l 5
 101 126 93 123 77 123 c 4
 34 123 8 152 8 195 c 4
 8 228 19 258 40 285 c 132
 61 312 92 326 131 326 c 4
167 264 m 4
 167 286 158 302 140 307 c 5
 119 307 102 295 88 271 c 132
 74 247 67 223 66 200 c 4
 66 171 72 157 97 152 c 4
 98 152 100 152 101 152 c 0
 126 152 152 192 161 224 c 132
 164 236 166 249 167 264 c 4
EndSplineSet
EndChar

StartChar: uniE566
Encoding: 58726 58726 60
Width: 432
VWidth: 2048
Flags: HW
LayerCount: 2
Fore
SplineSet
162 167 m 1
 126 52 l 1
 125 42 l 2
 125 32 130 26 141 23 c 1
 173 41 189 66 189 98 c 0
 189 118 180 141 162 167 c 1
432 225 m 0
 432 204 421 189 401 188 c 0
 386 188 381 198 378 213 c 1
 381 227 l 1
 383 238 l 1
 384 247 l 1
 380 251 l 2
 379 250 378 250 377 250 c 0
 354 237 341 226 330 202 c 2
 318 175 l 2
 300 125 287 70 271 18 c 1
 211 18 l 1
 269 232 l 2
 269 239 266 237 264 241 c 1
 257 241 239 233 213 213 c 2
 176 185 l 1
 196 151 207 118 207 88 c 0
 207 76 206 67 203 60 c 2
 197 45 l 2
 196 42 192 35 185 26 c 0
 171 8 155 0 136 0 c 0
 106 0 69 18 69 52 c 0
 70 53 70 58 72 67 c 2
 92 151 l 1
 83 146 71 143 56 143 c 0
 35 143 27 150 16 162 c 0
 6 174 0 189 0 209 c 0
 0 232 6 242 17 254 c 0
 28 266 42 272 63 272 c 0
 82 272 102 264 123 247 c 1
 157 364 l 1
 220 364 l 1
 174 206 l 1
 212 237 l 1
 244 257 l 2
 265 267 279 270 306 272 c 0
 322 272 330 265 330 251 c 2
 329 241 l 2
 327 233 325 225 323 217 c 1
 344 254 367 272 393 272 c 0
 416 272 432 249 432 225 c 0
18 208 m 0
 18 181 35 161 63 161 c 1
 66 159 l 1
 79 163 l 1
 102 172 l 1
 116 227 l 1
 99 242 81 249 61 249 c 0
 35 249 18 232 18 208 c 0
EndSplineSet
EndChar

StartChar: uniE56C
Encoding: 58732 58732 61
Width: 605
VWidth: 2048
Flags: HW
LayerCount: 2
Fore
SplineSet
0 21 m 5
 0 80 l 5
 129 230 l 5
 146 240 l 5
 153 240 157 238 158 234 c 5
 264 141 l 5
 281 131 l 5
 293 137 l 5
 373 230 l 5
 391 240 l 5
 396 240 400 238 403 234 c 5
 508 141 l 5
 517 134 l 5
 525 129 l 5
 530 130 534 133 537 137 c 6
 605 217 l 5
 605 158 l 5
 477 8 l 5
 468 1 461 -2 457 -2 c 4
 454 -2 450 0 447 4 c 5
 342 98 l 6
 336 103 329 105 322 105 c 4
 318 105 315 104 313 102 c 6
 232 8 l 5
 225 1 218 -2 213 -2 c 4
 210 -2 206 0 203 4 c 5
 98 98 l 6
 92 104 85 107 78 107 c 4
 75 107 71 105 68 102 c 6
 0 21 l 5
EndSplineSet
EndChar

StartChar: uniE56D
Encoding: 58733 58733 62
Width: 587
VWidth: 2048
Flags: HW
LayerCount: 2
Fore
SplineSet
0 21 m 1
 0 80 l 1
 121 223 l 2
 125 227 129 230 132 232 c 128
 135 234 139 235 143 236 c 1
 148 236 156 230 168 219 c 2
 275 125 l 1
 275 309 l 1
 305 309 l 1
 305 150 l 1
 363 219 l 2
 374 232 382 239 386 239 c 1
 410 223 l 1
 494 148 l 1
 525 123 l 1
 528 124 532 128 538 135 c 2
 552 150 l 1
 586 194 l 1
 586 139 l 1
 480 14 l 1
 472 3 464 -2 457 -2 c 1
 454 -1 452 1 450 2 c 0
 444 6 438 11 432 16 c 2
 354 86 l 1
 340 100 329 107 320 107 c 1
 315 105 l 1
 310 100 l 1
 305 94 l 1
 305 -90 l 1
 275 -90 l 1
 275 59 l 1
 239 14 l 1
 229 3 221 -2 215 -2 c 1
 208 0 l 1
 198 8 l 1
 188 16 l 1
 100 96 l 2
 93 103 86 107 80 109 c 1
 77 109 71 105 63 96 c 2
 0 21 l 1
EndSplineSet
EndChar

StartChar: uniE004
Encoding: 57348 57348 63
Width: 399
VWidth: 0
Flags: HW
LayerCount: 2
Fore
SplineSet
0 0 m 1
 18 0 36 0 53 0 c 0
 83 0 112 -1 136 -5 c 1
 342 -100 394 -269 399 -276 c 1
 399 -277 385 -283 384 -282 c 1
 296 -128 133 -112 63 -112 c 1
 62 -112 0 -111 0 -111 c 1
 0 -74 0 -37 0 0 c 1
EndSplineSet
EndChar

StartChar: uniE003
Encoding: 57347 57347 64
Width: 399
VWidth: 0
Flags: HW
LayerCount: 2
Fore
SplineSet
0 -0 m 1
 0 37 0 74 0 111 c 1
 0 111 62 112 63 112 c 1
 133 112 296 128 384 282 c 1
 385 283 399 277 399 276 c 1
 394 269 342 100 136 5 c 1
 112 1 83 0 53 -0 c 0
 36 0 18 0 0 -0 c 1
EndSplineSet
EndChar

StartChar: uniE88A
Encoding: 59530 59530 65
Width: 144
VWidth: 2048
Flags: HMW
LayerCount: 2
Fore
SplineSet
17 87 m 0
 17 98 20 106 27 113 c 0
 34 120 43 123 54 123 c 0
 65 123 73 120 80 113 c 0
 87 106 91 97 91 87 c 0
 91 77 87 68 80 60 c 1
 73 53 63 50 53 50 c 0
 43 50 34 53 27 60 c 0
 20 67 17 76 17 87 c 0
53 207 m 4
 53 218 57 227 64 234 c 0
 71 241 81 244 91 244 c 0
 101 244 110 240 117 233 c 0
 124 226 127 217 127 207 c 0
 127 197 123 188 116 181 c 0
 109 174 100 171 90 171 c 0
 80 171 71 174 64 181 c 0
 57 188 53 196 53 207 c 4
EndSplineSet
EndChar

StartChar: uniE522
Encoding: 58658 58658 66
Width: 232
VWidth: 2048
Flags: HW
LayerCount: 2
Fore
SplineSet
-91 -179 m 5
 -93 -182 -94 -184 -93 -186 c 132
 -92 -188 -89 -189 -82 -190 c 5
 -63 -190 -48 -176 -35 -149 c 4
 -28 -135 -22 -119 -15 -101 c 132
 -8 -83 -3 -66 0 -49 c 6
 14 12 l 5
 58 220 l 5
 0 220 l 5
 0 258 l 5
 70 258 l 5
 77 279 83 294 88 305 c 4
 95 323 103 338 110 349 c 4
 131 379 152 402 175 418 c 132
 198 434 223 442 250 442 c 4
 259 442 267 441 273 439 c 132
 279 437 285 432 292 423 c 4
 297 416 300 410 301 404 c 6
 305 388 l 5
 305 373 304 363 303 356 c 132
 302 349 298 340 292 328 c 4
 289 322 283 315 274 307 c 4
 270 304 266 302 261 301 c 132
 256 300 251 300 244 301 c 5
 238 302 234 306 231 312 c 132
 228 318 226 325 225 332 c 5
 225 344 227 355 232 364 c 132
 237 373 244 381 254 388 c 4
 261 393 261 393 268 398 c 5
 268 407 262 412 250 414 c 5
 248 414 246 414 244 414 c 0
 233 414 224 412 216 406 c 132
 207 399 197 385 187 363 c 5
 182 351 177 333 170 310 c 132
 163 287 159 270 156 260 c 5
 233 260 l 5
 233 220 l 5
 148 220 l 5
 136 151 119 83 97 14 c 4
 79 -41 62 -85 45 -117 c 4
 32 -143 18 -164 4 -180 c 4
 -21 -209 -46 -223 -72 -223 c 4
 -97 -223 -115 -213 -128 -194 c 4
 -138 -179 -143 -161 -143 -140 c 4
 -143 -123 -139 -107 -131 -92 c 5
 -126 -85 -121 -79 -114 -75 c 132
 -107 -71 -101 -69 -94 -69 c 4
 -85 -69 -78 -73 -73 -81 c 132
 -68 -89 -64 -96 -62 -103 c 132
 -60 -110 -59 -115 -59 -120 c 4
 -59 -129 -61 -137 -66 -144 c 132
 -71 -151 -75 -158 -80 -165 c 132
 -85 -172 -88 -177 -91 -179 c 5
EndSplineSet
EndChar

StartChar: uniE521
Encoding: 58657 58657 67
Width: 405
VWidth: 2048
Flags: HW
LayerCount: 2
Fore
SplineSet
337 262 m 4
 358 262 380 248 380 227 c 6
 380 220 l 5
 317 37 l 5
 317 24 321 17 329 16 c 5
 337 16 346 21 355 31 c 132
 364 41 370 47 371 48 c 4
 375 55 390 80 391 83 c 6
 405 124 l 5
 428 124 l 5
 404 61 l 6
 396 39 373 16 360 3 c 132
 347 -10 331 -17 314 -18 c 4
 296 -18 280 -13 265 -4 c 5
 249 11 l 5
 246 18 244 23 244 28 c 5
 264 91 288 152 309 214 c 5
 309 221 304 226 294 227 c 5
 278 227 263 212 250 182 c 5
 186 0 l 5
 115 0 l 5
 192 214 l 5
 192 223 186 227 175 227 c 4
 166 227 158 223 153 216 c 132
 148 209 141 197 133 182 c 5
 69 0 l 5
 0 0 l 5
 77 210 l 5
 77 214 l 6
 77 224 72 226 65 230 c 5
 40 230 13 183 -1 157 c 4
 -6 148 -13 134 -22 115 c 5
 -44 115 l 5
 -25 154 -4 191 20 222 c 4
 41 249 67 262 99 262 c 4
 120 262 130 243 133 221 c 5
 152 238 167 248 178 253 c 5
 189 259 202 262 217 262 c 4
 238 262 249 243 252 221 c 5
 274 238 301 262 337 262 c 4
EndSplineSet
EndChar

StartChar: uniE520
Encoding: 58656 58656 68
Width: 306
VWidth: 2048
Flags: HW
LayerCount: 2
Fore
SplineSet
23 124 m 5
 0 124 l 5
 22 167 43 200 62 225 c 132
 81 250 107 262 138 263 c 4
 144 263 150 259 156 250 c 5
 163 243 166 234 166 223 c 5
 190 237 l 5
 215 250 l 5
 227 255 239 257 252 257 c 4
 276 257 295 248 310 229 c 132
 325 210 332 185 333 152 c 4
 333 138 332 125 330 114 c 132
 328 103 325 93 320 85 c 132
 315 77 309 68 301 58 c 4
 287 40 271 26 254 16 c 132
 237 6 219 1 200 1 c 4
 191 1 180 4 167 11 c 4
 162 14 157 18 152 21 c 132
 147 24 143 29 139 35 c 5
 83 -123 l 5
 80 -127 l 5
 83 -134 87 -137 92 -138 c 5
 124 -138 l 5
 124 -167 l 5
 -49 -167 l 5
 -49 -138 l 5
 -28 -138 l 6
 -24 -138 -19 -136 -14 -133 c 5
 -10 -129 -7 -124 -5 -119 c 6
 114 212 l 5
 114 218 l 5
 111 228 l 5
 105 231 l 5
 96 231 88 227 80 219 c 132
 72 211 64 201 57 188 c 5
 46 171 l 5
 36 151 l 5
 23 124 l 5
197 201 m 4
 185 180 175 156 168 129 c 5
 161 99 158 78 158 67 c 4
 158 43 165 31 180 31 c 4
 193 31 203 33 211 38 c 132
 219 43 226 49 232 58 c 5
 242 75 247 84 248 86 c 4
 253 97 256 112 258 130 c 132
 260 148 261 161 262 169 c 4
 262 176 261 182 260 187 c 132
 259 192 257 196 254 201 c 4
 249 210 239 215 226 215 c 4
 212 215 202 210 197 201 c 4
EndSplineSet
EndChar

StartChar: uniE523
Encoding: 58659 58659 69
Width: 225
VWidth: 2048
Flags: HW
LayerCount: 2
Fore
SplineSet
194 174 m 4
 180 174 171 186 171 203 c 5
 172 214 l 5
 175 226 l 5
 175 231 172 233 167 233 c 4
 154 233 141 223 129 202 c 5
 113 170 l 5
 92 116 78 57 60 0 c 5
 0 0 l 5
 57 194 l 5
 57 199 l 6
 57 210 54 215 49 215 c 4
 34 215 29 206 19 194 c 4
 10 183 2 171 -6 158 c 5
 -20 166 l 5
 -14 181 -4 191 8 204 c 4
 27 223 58 252 91 252 c 4
 106 252 113 243 113 224 c 4
 112 217 112 210 111 203 c 5
 127 227 150 259 185 259 c 4
 206 259 225 240 225 219 c 4
 225 189 215 174 194 174 c 4
EndSplineSet
EndChar

StartChar: uniE524
Encoding: 58660 58660 70
Width: 194
VWidth: 2048
Flags: HW
LayerCount: 2
Fore
SplineSet
81 33 m 6
 102 33 119 48 121 67 c 4
 121 74 118 82 113 89 c 4
 110 94 104 100 94 107 c 4
 72 120 56 133 47 145 c 132
 38 157 33 171 32 188 c 4
 32 238 72 270 119 270 c 5
 147 267 l 5
 156 264 164 260 171 254 c 5
 186 245 194 230 194 211 c 5
 193 201 l 5
 187 191 l 6
 184 186 179 182 170 181 c 5
 153 181 144 189 141 205 c 5
 145 224 l 5
 145 234 131 240 121 242 c 4
 120 242 118 242 117 242 c 0
 100 242 89 225 86 206 c 5
 86 199 90 191 97 184 c 5
 106 177 115 170 123 163 c 4
 151 140 166 126 167 123 c 5
 175 113 179 100 179 84 c 6
 179 74 l 6
 179 53 169 35 150 20 c 5
 134 10 112 2 89 0 c 5
 42 0 0 26 0 67 c 5
 1 82 l 5
 6 95 l 5
 16 104 l 5
 29 108 l 5
 45 108 53 98 53 77 c 4
 53 64 48 61 45 49 c 5
 45 41 56 33 68 33 c 134
 81 33 l 6
EndSplineSet
EndChar

StartChar: uniE525
Encoding: 58661 58661 71
Width: 260
VWidth: 2048
Flags: HW
LayerCount: 2
Fore
SplineSet
173 115 m 4
 194 115 207 92 207 67 c 4
 207 44 199 25 183 9 c 5
 168 -8 144 -16 110 -16 c 4
 98 -16 89 -15 83 -12 c 6
 71 -6 l 5
 54 4 l 5
 39 11 30 14 25 14 c 4
 16 14 6 9 -5 0 c 5
 -36 0 l 5
 -36 16 l 5
 173 193 l 5
 109 192 l 5
 86 189 77 177 65 162 c 5
 41 162 l 5
 71 249 l 5
 260 249 l 5
 260 217 l 5
 49 54 l 5
 62 60 75 63 88 63 c 4
 102 63 141 45 151 43 c 5
 160 44 165 51 165 62 c 5
 152 62 145 70 143 85 c 5
 143 102 156 115 173 115 c 4
EndSplineSet
EndChar

StartChar: uniE650
Encoding: 58960 58960 72
Width: 695
VWidth: 2048
Flags: HW
LayerCount: 2
Fore
SplineSet
657 134 m 0
 657 99 645 68 620 41 c 128
 595 14 566 0 533 0 c 2
 519 0 l 1
 513 8 508 14 505 17 c 0
 494 29 484 35 476 35 c 0
 461 35 449 32 438 25 c 1
 425 14 414 6 406 0 c 1
 340 0 l 1
 300 47 l 1
 267 0 l 1
 190 0 l 1
 185 19 180 33 177 42 c 0
 171 57 164 64 153 64 c 0
 152 64 151 64 150 64 c 0
 133 62 117 52 101 34 c 0
 92 23 82 11 72 0 c 1
 38 0 l 1
 38 29 72 67 141 113 c 0
 174 135 190 159 190 185 c 0
 190 202 179 226 158 256 c 128
 137 286 126 321 125 362 c 0
 125 377 126 392 128 409 c 128
 130 426 134 446 139 470 c 1
 138 474 135 477 132 479 c 128
 129 481 123 482 114 482 c 1
 95 477 81 471 72 464 c 0
 44 443 30 410 30 367 c 0
 30 356 32 347 35 340 c 128
 38 333 43 328 48 325 c 1
 50 324 52 324 54 324 c 0
 68 324 80 338 90 366 c 1
 93 369 96 371 99 374 c 1
 100 372 100 368 100 363 c 0
 100 348 96 335 88 323 c 0
 77 307 60 297 38 292 c 1
 29 292 21 297 14 307 c 0
 5 320 0 339 0 362 c 0
 0 407 15 444 45 472 c 128
 75 500 113 514 158 514 c 0
 210 514 250 504 277 484 c 128
 304 464 318 436 319 401 c 0
 319 387 317 373 312 359 c 1
 300 338 285 328 268 328 c 0
 250 328 232 337 215 356 c 128
 198 375 189 390 189 403 c 0
 189 409 191 412 196 413 c 1
 200 402 204 393 208 388 c 0
 220 371 235 362 254 362 c 0
 269 362 279 366 284 374 c 128
 289 382 292 393 292 406 c 0
 292 427 284 442 269 453 c 128
 254 464 234 472 209 477 c 0
 199 479 192 480 189 480 c 0
 185 480 176 479 163 477 c 1
 158 462 154 446 152 431 c 128
 150 416 149 397 149 374 c 0
 149 353 156 331 170 306 c 1
 197 261 197 261 224 216 c 1
 227 203 228 191 228 179 c 0
 228 157 220 137 203 118 c 0
 194 109 190 101 190 96 c 1
 199 87 205 76 208 63 c 128
 211 50 223 40 244 35 c 1
 261 40 273 45 280 50 c 128
 287 55 290 62 290 71 c 0
 290 78 286 90 278 109 c 0
 273 122 269 132 267 139 c 1
 266 145 266 150 266 153 c 0
 266 181 274 206 290 229 c 128
 306 252 328 263 357 263 c 4
 378 263 393 259 401 251 c 128
 409 243 415 228 418 205 c 0
 418 202 419 199 419 196 c 0
 419 178 411 161 397 147 c 1
 374 126 352 106 329 86 c 1
 335 75 342 65 350 55 c 0
 367 34 383 24 400 24 c 0
 412 24 425 29 439 39 c 0
 443 42 449 47 456 54 c 1
 455 66 454 76 454 85 c 0
 454 122 461 153 474 180 c 0
 493 218 525 247 571 267 c 1
 550 314 518 355 475 391 c 1
 434 420 393 448 352 477 c 1
 381 474 418 460 463 433 c 0
 518 401 561 363 594 318 c 0
 636 261 657 200 657 134 c 0
379 227 m 1
 369 227 359 226 348 225 c 128
 337 224 330 219 326 210 c 128
 322 201 319 193 318 185 c 128
 317 177 316 168 316 159 c 2
 316 139 l 1
 344 139 362 148 371 167 c 0
 376 178 379 198 379 227 c 1
513 54 m 1
 519 41 529 35 543 35 c 0
 559 35 573 43 586 59 c 128
 599 75 605 98 606 129 c 0
 606 154 603 181 596 209 c 128
 589 237 581 251 571 252 c 1
 550 243 533 226 521 200 c 128
 509 174 503 145 503 113 c 0
 503 90 506 70 513 54 c 1
671 50 m 0
 678 50 683 47 688 42 c 128
 693 37 695 31 695 24 c 128
 695 17 692 12 687 7 c 128
 682 2 675 0 668 0 c 0
 661 0 656 3 651 8 c 128
 646 13 644 20 644 27 c 0
 644 42 653 50 671 50 c 0
EndSplineSet
EndChar

StartChar: uniE655
Encoding: 58965 58965 73
Width: 431
VWidth: 2048
Flags: HW
LayerCount: 2
Fore
SplineSet
217 245 m 1
 195 245 178 229 178 208 c 0
 178 190 199 174 217 173 c 1
 237 173 252 191 252 210 c 0
 252 231 237 244 217 245 c 1
44 318 m 1
 47 344 69 369 96 369 c 0
 112 369 124 365 128 357 c 1
 139 343 142 301 150 281 c 1
 156 273 164 269 175 267 c 1
 191 272 l 1
 200 277 205 283 206 297 c 0
 206 304 204 310 201 314 c 2
 190 332 l 1
 173 349 l 1
 164 371 l 1
 164 399 189 418 217 418 c 0
 245 418 267 395 267 371 c 0
 267 351 260 346 246 332 c 1
 231 312 l 1
 227 305 225 299 224 294 c 1
 225 290 229 283 229 280 c 1
 240 269 l 1
 254 262 l 1
 274 264 284 284 287 309 c 1
 287 348 304 367 336 367 c 0
 362 367 382 346 382 320 c 0
 382 291 359 274 328 274 c 0
 298 274 283 263 280 240 c 1
 285 228 l 2
 286 225 289 223 292 220 c 0
 293 218 298 217 306 215 c 1
 316 217 323 221 329 227 c 1
 337 230 335 231 345 239 c 2
 366 254 l 2
 370 257 378 259 387 259 c 0
 410 259 430 233 431 210 c 1
 431 190 415 169 401 161 c 0
 398 160 391 158 382 157 c 1
 375 158 366 164 352 175 c 1
 326 194 l 2
 322 197 315 198 306 198 c 0
 298 198 292 197 289 194 c 1
 280 175 l 1
 282 162 286 154 294 151 c 2
 305 147 l 1
 332 142 l 1
 348 142 360 138 369 130 c 1
 378 124 382 113 382 96 c 0
 382 83 377 71 368 62 c 1
 359 54 346 49 332 46 c 1
 321 48 309 54 298 65 c 1
 290 76 287 92 287 112 c 0
 287 123 283 133 280 139 c 0
 275 147 266 151 254 151 c 0
 235 151 225 136 222 120 c 1
 225 113 230 106 233 99 c 0
 237 91 241 85 246 78 c 1
 254 70 l 1
 259 60 l 1
 262 55 263 47 264 39 c 1
 264 13 238 0 212 0 c 0
 187 0 167 15 164 39 c 1
 165 45 169 57 171 60 c 0
 182 74 193 89 204 103 c 1
 206 107 207 113 208 122 c 1
 208 139 200 148 184 151 c 1
 153 151 144 131 144 100 c 0
 144 69 127 51 96 46 c 1
 63 53 54 66 46 98 c 1
 49 129 71 144 112 144 c 0
 131 144 149 156 149 175 c 0
 149 183 146 188 141 191 c 1
 138 195 133 198 125 198 c 0
 115 198 101 192 85 180 c 0
 71 171 60 164 46 159 c 1
 18 162 1 179 0 210 c 1
 0 236 18 257 44 257 c 0
 63 257 75 248 88 238 c 2
 106 224 l 1
 125 217 l 1
 143 221 151 229 151 240 c 0
 151 263 136 274 105 274 c 0
 68 274 48 288 44 318 c 1
EndSplineSet
EndChar

StartChar: uniE046
Encoding: 57414 57414 74
Width: 935
VWidth: 2048
Flags: HW
LayerCount: 2
Fore
SplineSet
0 10 m 1
 33 10 48 33 51 64 c 1
 130 349 l 1
 132 358 l 1
 133 363 l 1
 133 371 130 377 125 382 c 128
 120 387 106 391 85 395 c 1
 85 404 l 1
 237 404 l 2
 371 404 438 349 438 238 c 0
 438 190 425 147 399 110 c 0
 350 46 263 0 155 0 c 2
 0 0 l 1
 0 10 l 1
366 249 m 0
 366 338 327 385 238 385 c 0
 221 385 206 384 200 374 c 1
 110 51 l 1
 108 40 l 1
 110 25 125 17 153 17 c 0
 193 17 230 28 263 51 c 1
 297 71 321 97 339 133 c 1
 357 163 366 202 366 249 c 0
677 10 m 0
 747 10 789 40 826 84 c 1
 834 74 l 1
 787 10 730 -22 663 -22 c 0
 633 -22 605 -15 580 0 c 1
 558 15 540 40 525 64 c 1
 512 90 506 118 506 149 c 0
 506 192 517 233 540 273 c 1
 564 312 595 344 634 371 c 1
 674 394 715 406 758 406 c 2
 776 406 l 2
 783 406 788 405 791 404 c 2
 827 397 l 1
 855 389 l 1
 880 404 l 1
 890 404 l 1
 868 279 l 1
 857 279 l 1
 857 313 849 339 832 358 c 1
 813 375 790 384 761 384 c 0
 717 384 688 369 664 345 c 1
 635 320 614 289 600 250 c 1
 591 230 585 212 582 196 c 128
 579 180 576 162 576 141 c 0
 576 98 582 72 601 47 c 1
 618 22 643 10 677 10 c 0
430 0 m 128
 410 0 398 12 398 33 c 128
 398 54 415 67 430 67 c 128
 438 67 445 63 451 55 c 1
 458 51 461 44 461 33 c 0
 461 17 447 0 430 0 c 128
904 0 m 0
 886 0 873 12 871 28 c 1
 871 39 874 47 881 51 c 1
 887 58 895 61 904 61 c 0
 912 61 920 58 928 52 c 1
 933 46 935 38 935 28 c 0
 935 11 921 0 904 0 c 0
EndSplineSet
EndChar

StartChar: uniE045
Encoding: 57413 57413 75
Width: 860
VWidth: 2048
Flags: HW
LayerCount: 2
Fore
SplineSet
133 363 m 1
 133 387 115 389 85 395 c 1
 85 404 l 1
 237 404 l 2
 371 404 438 349 438 238 c 0
 438 190 425 147 399 110 c 1
 352 45 261 0 155 0 c 2
 0 0 l 1
 0 10 l 1
 32 10 51 33 51 64 c 1
 130 349 l 1
 132 358 l 1
 133 363 l 1
366 249 m 0
 366 339 327 385 238 385 c 0
 221 385 206 384 200 374 c 1
 110 51 l 1
 108 40 l 1
 110 25 125 17 153 17 c 0
 292 17 366 109 366 249 c 0
704 384 m 0
 669 384 640 358 640 323 c 0
 640 306 645 290 655 276 c 1
 675 252 681 245 703 226 c 1
 716 210 739 183 751 167 c 1
 763 148 769 129 769 108 c 0
 769 82 760 62 750 43 c 1
 737 24 721 9 704 0 c 1
 689 -10 670 -14 645 -14 c 0
 634 -14 617 -9 594 0 c 1
 578 4 562 5 552 10 c 1
 545 10 540 6 536 0 c 1
 532 -1 529 -5 528 -13 c 1
 516 -13 l 1
 537 122 l 1
 552 122 l 1
 549 105 l 1
 549 90 552 79 554 68 c 1
 558 57 565 47 576 36 c 1
 591 17 611 8 638 8 c 0
 662 8 680 16 692 32 c 1
 708 47 716 66 716 87 c 0
 716 107 711 123 702 135 c 1
 690 148 682 160 669 173 c 128
 664 178 658 184 652 191 c 0
 630 212 614 231 603 249 c 1
 592 262 587 280 587 303 c 0
 587 341 595 356 618 375 c 1
 637 394 662 404 693 404 c 0
 717 404 735 402 747 397 c 1
 758 390 768 387 778 387 c 0
 785 387 793 393 802 404 c 1
 815 404 l 1
 791 285 l 1
 781 285 l 1
 781 351 755 384 704 384 c 0
430 0 m 128
 410 0 398 12 398 33 c 128
 398 54 415 67 430 67 c 128
 438 67 445 63 451 55 c 1
 458 51 461 44 461 33 c 0
 461 17 448 0 430 0 c 128
829 0 m 0
 809 0 797 11 794 28 c 1
 794 45 811 61 829 61 c 0
 848 61 860 49 860 28 c 0
 860 10 845 0 829 0 c 0
EndSplineSet
EndChar

StartChar: uniE047
Encoding: 57415 57415 76
Width: 410
VWidth: 2048
Flags: HW
LayerCount: 2
Fore
SplineSet
108 474 m 0
 86 474 70 444 70 418 c 4
 70 364 143 333 210 302 c 5
 348 507 l 1
 389 507 l 1
 243 286 l 1
 284 265 316 242 339 219 c 0
 367 190 381 157 381 122 c 0
 381 54 327 0 257 0 c 0
 217 0 181 33 181 73 c 0
 181 95 202 111 224 111 c 0
 247 111 258 94 263 73 c 0
 269 50 279 39 294 39 c 0
 321 39 336 62 336 93 c 0
 336 106 333 116 328 125 c 0
 319 142 295 161 256 182 c 1
 226 197 226 197 196 212 c 1
 62 4 l 1
 22 4 l 1
 163 227 l 1
 114 250 78 277 54 307 c 0
 33 334 22 362 22 391 c 0
 22 438 47 471 76 493 c 128
 93 506 113 513 134 513 c 0
 180 513 225 481 225 436 c 0
 225 414 202 400 180 400 c 0
 161 400 150 408 145 425 c 2
 138 448 l 2
 133 465 123 474 108 474 c 0
75 192 m 1
 75 171 59 154 39 154 c 1
 16 154 0 167 0 189 c 0
 0 210 15 228 36 228 c 128
 58 228 75 213 75 192 c 1
337 322 m 0
 337 346 353 360 374 360 c 0
 397 360 411 341 411 323 c 0
 411 300 394 286 374 286 c 0
 351 286 337 303 337 322 c 0
EndSplineSet
EndChar

StartChar: uniE048
Encoding: 57416 57416 77
Width: 536
VWidth: 2048
Flags: HW
LayerCount: 2
Fore
SplineSet
537 233 m 1
 473 233 l 1
 473 217 469 193 460 160 c 1
 446 121 l 1
 430 90 l 1
 417 73 400 50 383 37 c 128
 361 20 326 10 286 0 c 1
 286 -73 l 1
 251 -73 l 1
 251 0 l 1
 212 6 l 130
 203 7 196 9 189 12 c 0
 132 43 100 86 78 160 c 1
 65 199 l 1
 65 233 l 1
 0 233 l 1
 0 273 l 1
 65 273 l 1
 65 307 67 316 77 346 c 1
 83 370 95 398 107 416 c 1
 130 446 l 1
 154 471 l 1
 175 487 184 494 215 499 c 128
 227 501 239 503 251 506 c 1
 251 580 l 1
 286 580 l 1
 286 506 l 1
 307 503 332 502 347 493 c 1
 360 488 372 480 382 471 c 0
 398 458 414 439 430 416 c 1
 443 393 473 309 473 273 c 1
 537 273 l 1
 537 233 l 1
369 273 m 1
 367 295 l 1
 367 332 l 2
 367 349 364 369 358 390 c 1
 352 425 320 471 286 471 c 1
 286 273 l 1
 369 273 l 1
251 273 m 1
 251 471 l 1
 236 471 221 462 205 445 c 1
 190 426 181 409 178 393 c 0
 175 375 173 357 170 339 c 1
 170 303 l 2
 170 290 168 280 167 273 c 1
 251 273 l 1
370 233 m 1
 286 233 l 1
 286 37 l 1
 301 37 317 45 332 61 c 0
 345 76 354 94 358 115 c 2
 367 177 l 1
 370 233 l 1
251 37 m 1
 251 233 l 1
 167 233 l 1
 167 212 l 1
 167 175 l 1
 167 133 182 88 204 61 c 1
 219 45 235 37 251 37 c 1
EndSplineSet
EndChar

StartChar: uniE04B
Encoding: 57419 57419 78
Width: 477
VWidth: 2048
Flags: HW
LayerCount: 2
Fore
SplineSet
187 643 m 1
 253 605 l 1
 253 751 l 1
 187 788 l 1
 187 643 l 1
320 572 m 1
 349 580 380 608 380 644 c 0
 380 671 364 698 346 707 c 1
 282 745 l 1
 282 597 l 1
 320 572 l 1
159 381 m 1
 159 530 l 1
 122 552 l 1
 103 552 94 545 83 533 c 1
 68 520 61 507 61 496 c 0
 61 460 79 433 100 418 c 1
 159 381 l 1
187 375 m 1
 253 339 l 1
 253 483 l 1
 187 520 l 1
 187 375 l 1
320 305 m 1
 352 310 380 337 380 373 c 0
 380 402 368 424 344 440 c 1
 282 476 l 1
 282 330 l 1
 320 305 l 1
159 924 m 1
 159 962 l 1
 187 962 l 1
 187 909 l 1
 253 874 l 1
 253 962 l 1
 282 962 l 1
 282 863 l 1
 315 849 341 835 360 822 c 1
 401 797 439 759 442 696 c 0
 442 686 440 676 437 667 c 2
 431 651 l 2
 426 638 420 626 413 617 c 1
 407 606 396 595 387 585 c 2
 356 553 l 1
 378 541 395 528 407 514 c 1
 420 501 428 487 432 472 c 1
 439 459 442 440 442 416 c 0
 442 360 413 316 356 285 c 1
 383 266 406 247 423 226 c 128
 440 205 449 181 450 152 c 0
 450 111 439 83 420 57 c 1
 401 28 375 6 343 -10 c 1
 314 -23 281 -32 244 -34 c 1
 201 -34 187 -30 149 -18 c 1
 102 -5 46 27 44 78 c 1
 46 91 l 1
 51 116 65 128 88 128 c 2
 101 128 l 1
 116 126 134 111 155 84 c 0
 178 54 193 34 216 19 c 128
 223 15 242 10 250 7 c 128
 254 6 259 5 266 6 c 0
 308 6 339 27 357 51 c 1
 365 64 369 78 369 91 c 1
 366 113 l 2
 365 121 362 129 357 136 c 1
 340 167 314 184 282 201 c 1
 282 164 l 1
 253 164 l 1
 253 217 l 1
 187 249 l 1
 187 164 l 1
 159 164 l 1
 159 262 l 1
 109 288 l 2
 95 296 66 315 54 326 c 1
 39 338 26 353 17 370 c 1
 5 399 l 1
 3 407 2 412 2 415 c 128
 2 418 2 423 1 430 c 1
 3 450 l 1
 12 488 33 515 56 540 c 1
 88 572 l 1
 56 591 33 611 20 630 c 1
 7 651 1 677 1 708 c 0
 1 741 9 767 24 786 c 128
 39 805 61 824 90 842 c 1
 63 859 41 879 25 902 c 128
 9 925 1 955 0 992 c 0
 0 1026 10 1055 29 1078 c 1
 65 1125 124 1157 201 1158 c 1
 270 1158 333 1137 370 1103 c 128
 390 1085 400 1067 400 1049 c 1
 398 1034 l 1
 391 1005 376 990 352 990 c 0
 337 990 325 994 318 1001 c 128
 308 1011 279 1054 264 1070 c 128
 257 1077 249 1085 239 1093 c 1
 222 1104 200 1111 174 1114 c 1
 143 1114 118 1106 101 1091 c 1
 86 1076 72 1061 71 1034 c 1
 72 1029 l 1
 72 983 123 940 159 924 c 1
161 649 m 1
 161 797 l 1
 124 820 l 1
 111 818 101 814 94 807 c 1
 87 797 84 791 79 779 c 2
 68 749 l 1
 68 745 68 742 68 739 c 0
 68 725 69 721 77 709 c 0
 84 698 92 689 100 684 c 2
 161 649 l 1
EndSplineSet
EndChar

StartChar: uniE500
Encoding: 58624 58624 79
Width: 508
VWidth: 2048
Flags: HW
LayerCount: 2
Fore
SplineSet
508 242 m 1
 146 -242 l 1
 0 -242 l 1
 362 242 l 1
 508 242 l 1
52 118 m 4
 52 131 56 143 65 152 c 132
 74 161 84 166 97 167 c 5
 111 167 123 163 132 155 c 132
 141 147 146 136 147 122 c 4
 147 109 143 97 134 88 c 132
 125 79 115 74 102 73 c 5
 88 73 76 77 67 85 c 132
 58 93 53 104 52 118 c 4
361 -121 m 0
 361 -108 365 -96 374 -87 c 128
 383 -78 393 -73 406 -72 c 1
 420 -72 432 -76 441 -84 c 128
 450 -92 455 -103 456 -117 c 0
 456 -130 452 -142 443 -151 c 128
 434 -160 424 -165 411 -166 c 1
 397 -166 385 -162 376 -154 c 128
 367 -146 362 -135 361 -121 c 0
EndSplineSet
EndChar

StartChar: uniE220
Encoding: 57888 57888 80
Width: 163
VWidth: 2048
Flags: HW
LayerCount: 2
Fore
SplineSet
-163 -124 m 1
 -163 -41 l 1
 163 125 l 1
 163 39 l 1
 -163 -124 l 1
EndSplineSet
EndChar

StartChar: uniE222
Encoding: 57890 57890 81
Width: 162
VWidth: 2048
Flags: HW
LayerCount: 2
Fore
SplineSet
162 175 m 1
 -162 11 l 1
 -162 95 l 1
 162 258 l 1
 162 175 l 1
162 40 m 1
 -162 -124 l 1
 -162 -40 l 1
 162 124 l 1
 162 40 l 1
162 -95 m 1
 -162 -258 l 1
 -162 -175 l 1
 162 -11 l 1
 162 -95 l 1
EndSplineSet
EndChar

StartChar: uniE223
Encoding: 57891 57891 82
Width: 162
VWidth: 2048
Flags: HW
LayerCount: 2
Fore
SplineSet
162 108 m 1
 -162 -56 l 1
 -162 28 l 1
 162 191 l 1
 162 108 l 1
162 -27 m 1
 -162 -191 l 1
 -162 -107 l 1
 162 57 l 1
 162 -27 l 1
162 -162 m 1
 -162 -325 l 1
 -162 -242 l 1
 162 -78 l 1
 162 -162 l 1
162 242 m 1
 -162 78 l 1
 -162 162 l 1
 162 326 l 1
 162 242 l 1
EndSplineSet
EndChar

StartChar: uniE224
Encoding: 57892 57892 83
Width: 162
VWidth: 2048
Flags: HW
LayerCount: 2
Fore
SplineSet
162 41 m 1
 -162 -123 l 1
 -162 -39 l 1
 162 124 l 1
 162 41 l 1
162 -94 m 1
 -162 -258 l 1
 -162 -174 l 1
 162 -10 l 1
 162 -94 l 1
162 -229 m 1
 -162 -392 l 1
 -162 -309 l 1
 162 -145 l 1
 162 -229 l 1
162 310 m 1
 -162 146 l 1
 -162 230 l 1
 162 393 l 1
 162 310 l 1
162 175 m 1
 -162 11 l 1
 -162 95 l 1
 162 259 l 1
 162 175 l 1
EndSplineSet
EndChar

StartChar: uniE221
Encoding: 57889 57889 84
Width: 164
VWidth: 2048
Flags: HW
LayerCount: 2
Fore
SplineSet
-163 -193 m 1
 -163 -110 l 1
 163 56 l 1
 163 -30 l 1
 -163 -193 l 1
-163 -57 m 1
 -163 27 l 1
 163 193 l 1
 163 110 l 1
 -163 -57 l 1
EndSplineSet
EndChar

StartChar: uniE530
Encoding: 58672 58672 85
Width: 692
VWidth: 2048
Flags: HW
LayerCount: 2
Fore
SplineSet
363 -69 m 1
 386 -69 398 -92 399 -116 c 0
 399 -124 395 -139 390 -147 c 2
 380 -162 l 2
 373 -172 372 -174 367 -183 c 1
 367 -188 370 -190 377 -190 c 0
 396 -190 412 -176 425 -148 c 1
 438 -116 448 -88 458 -51 c 1
 472 11 485 72 499 134 c 1
 517 220 l 1
 377 220 l 1
 363 131 317 -36 284 -98 c 1
 269 -129 254 -155 237 -177 c 128
 220 -199 199 -214 172 -221 c 1
 154 -223 l 1
 110 -223 87 -183 87 -136 c 0
 87 -97 105 -83 132 -69 c 1
 138 -69 143 -70 146 -73 c 1
 161 -79 169 -98 169 -118 c 0
 169 -133 158 -154 137 -183 c 1
 137 -188 140 -190 146 -190 c 0
 180 -190 207 -144 228 -51 c 1
 249 38 268 130 287 220 c 1
 146 220 l 1
 133 135 84 -35 53 -98 c 1
 20 -170 -17 -211 -57 -221 c 1
 -76 -223 l 1
 -111 -223 -127 -199 -139 -169 c 1
 -144 -136 l 1
 -139 -97 -131 -81 -98 -69 c 1
 -75 -69 -60 -95 -60 -118 c 0
 -60 -126 -62 -134 -66 -141 c 2
 -80 -164 l 1
 -94 -183 l 1
 -94 -188 -91 -190 -84 -190 c 0
 -73 -190 -63 -185 -54 -175 c 1
 -36 -160 -28 -129 -17 -104 c 1
 -2 -51 l 1
 15 26 32 104 48 182 c 128
 51 195 54 208 57 220 c 1
 0 220 l 1
 0 258 l 1
 69 258 l 1
 78 291 92 320 109 347 c 0
 126 375 147 398 172 417 c 1
 197 434 225 442 255 442 c 0
 288 442 304 412 304 376 c 128
 304 338 285 306 254 300 c 1
 237 300 227 311 225 332 c 1
 225 359 242 385 262 394 c 1
 265 394 267 396 267 400 c 1
 261 409 l 1
 256 412 250 414 243 414 c 0
 220 414 202 398 188 366 c 128
 174 334 163 299 156 260 c 1
 300 260 l 1
 323 344 385 442 485 442 c 0
 521 442 532 411 534 376 c 1
 534 358 530 341 521 325 c 1
 513 313 501 305 484 300 c 1
 466 300 456 311 454 332 c 1
 454 361 472 383 491 394 c 1
 494 394 496 396 496 400 c 1
 492 410 485 414 473 414 c 0
 436 414 406 362 385 258 c 1
 529 258 l 1
 544 307 568 351 601 390 c 0
 632 426 670 444 715 444 c 0
 749 444 764 408 764 374 c 0
 764 337 745 306 713 300 c 1
 697 300 688 311 686 332 c 1
 686 358 704 384 721 394 c 1
 725 394 727 396 727 400 c 1
 722 409 716 414 703 414 c 0
 666 414 636 362 615 258 c 1
 691 258 l 1
 691 220 l 1
 606 220 l 1
 599 176 591 136 580 99 c 1
 562 24 541 -42 514 -98 c 1
 499 -126 483 -153 464 -177 c 0
 448 -198 428 -213 403 -221 c 1
 385 -223 l 1
 350 -223 332 -200 323 -169 c 1
 319 -159 317 -148 317 -136 c 1
 321 -99 332 -79 363 -69 c 1
EndSplineSet
EndChar

StartChar: uniE52F
Encoding: 58671 58671 86
Width: 479
VWidth: 2048
Flags: HW
LayerCount: 2
Fore
SplineSet
555 376 m 1
 555 338 536 308 505 300 c 1
 487 300 477 311 475 332 c 1
 475 361 493 383 512 394 c 0
 515 397 517 399 517 400 c 2
 511 409 l 1
 506 412 501 414 494 414 c 0
 457 414 427 362 406 258 c 1
 481 258 l 1
 481 220 l 1
 398 220 l 1
 383 127 339 -30 306 -98 c 128
 291 -129 274 -156 256 -178 c 1
 240 -199 219 -214 193 -221 c 1
 174 -223 l 1
 131 -223 108 -183 108 -136 c 0
 108 -97 126 -83 152 -69 c 1
 176 -69 190 -94 190 -118 c 0
 190 -133 179 -154 158 -183 c 1
 158 -188 161 -190 167 -190 c 0
 201 -190 228 -144 249 -51 c 0
 256 -22 262 8 269 38 c 0
 282 99 295 159 308 220 c 1
 147 220 l 1
 133 126 91 -21 53 -98 c 1
 20 -170 -16 -211 -57 -221 c 1
 -75 -223 l 1
 -96 -223 -113 -214 -124 -197 c 1
 -129 -191 -134 -182 -139 -169 c 1
 -141 -157 -142 -150 -143 -136 c 1
 -140 -114 -140 -103 -130 -90 c 0
 -123 -81 -112 -74 -97 -69 c 1
 -74 -69 -61 -95 -60 -118 c 0
 -60 -129 -62 -135 -65 -141 c 2
 -79 -164 l 1
 -94 -183 l 1
 -94 -188 -91 -190 -84 -190 c 0
 -57 -190 -40 -161 -30 -140 c 1
 -16 -104 l 1
 -1 -51 l 1
 13 12 27 76 40 140 c 2
 57 220 l 1
 0 220 l 1
 0 258 l 1
 70 258 l 1
 90 325 121 379 173 417 c 1
 198 434 225 442 256 442 c 0
 289 442 305 410 305 376 c 128
 305 338 287 305 254 300 c 1
 237 300 228 311 226 332 c 1
 226 343 229 356 236 369 c 0
 243 380 252 389 263 394 c 0
 266 397 268 399 268 400 c 0
 261 410 257 414 243 414 c 0
 221 414 203 398 189 367 c 128
 175 336 164 300 156 260 c 1
 320 260 l 1
 342 343 407 442 506 442 c 0
 542 442 553 411 555 376 c 1
EndSplineSet
EndChar

StartChar: uniE531
Encoding: 58673 58673 87
Width: 925
VWidth: 2048
Flags: HW
LayerCount: 2
Fore
SplineSet
132 -69 m 1
 157 -69 169 -93 169 -118 c 0
 169 -133 158 -154 137 -183 c 1
 137 -188 140 -190 146 -190 c 0
 180 -190 207 -144 228 -51 c 1
 249 38 268 130 287 220 c 1
 146 220 l 1
 133 135 84 -35 53 -98 c 1
 20 -170 -17 -211 -57 -221 c 1
 -76 -223 l 1
 -111 -223 -127 -199 -139 -169 c 1
 -144 -136 l 1
 -139 -97 -131 -81 -98 -69 c 1
 -75 -69 -60 -95 -60 -118 c 0
 -60 -126 -62 -134 -66 -141 c 2
 -80 -164 l 1
 -94 -183 l 1
 -94 -188 -91 -190 -84 -190 c 0
 -73 -190 -63 -185 -54 -175 c 1
 -36 -160 -28 -129 -17 -104 c 1
 -2 -51 l 1
 15 26 32 104 48 182 c 128
 51 195 54 208 57 220 c 1
 0 220 l 1
 0 258 l 1
 69 258 l 1
 87 324 124 381 172 417 c 1
 197 434 225 442 255 442 c 0
 288 442 304 412 304 376 c 128
 304 338 285 306 254 300 c 1
 237 300 227 311 225 332 c 1
 225 359 242 385 262 394 c 1
 265 394 267 396 267 400 c 1
 261 409 l 1
 256 412 250 414 243 414 c 0
 220 414 202 398 188 366 c 128
 174 334 163 299 156 260 c 1
 300 260 l 1
 323 344 385 442 485 442 c 0
 521 442 532 411 534 376 c 1
 534 358 530 341 521 325 c 1
 513 313 501 305 484 300 c 1
 466 300 456 311 454 332 c 1
 454 361 472 383 491 394 c 1
 494 394 496 396 496 400 c 1
 492 410 485 414 473 414 c 0
 436 414 406 362 385 258 c 1
 529 258 l 1
 544 307 568 351 601 390 c 0
 632 426 670 444 715 444 c 0
 749 444 764 408 764 374 c 0
 764 337 745 306 713 300 c 1
 697 300 688 311 686 332 c 1
 686 358 704 384 721 394 c 1
 725 394 727 396 727 400 c 1
 722 409 716 414 703 414 c 0
 666 414 636 362 615 258 c 1
 761 258 l 1
 774 296 784 323 801 349 c 0
 822 379 843 402 866 418 c 128
 889 434 914 442 941 442 c 0
 969 442 987 428 992 404 c 2
 996 388 l 1
 996 355 995 352 983 328 c 0
 980 321 966 303 952 301 c 128
 949 301 946 300 944 300 c 0
 924 300 919 314 916 332 c 1
 916 359 927 376 945 388 c 2
 959 398 l 1
 959 410 948 414 936 414 c 0
 925 414 913 410 907 406 c 128
 898 399 888 385 878 363 c 1
 871 345 852 279 847 260 c 1
 924 260 l 1
 924 220 l 1
 839 220 l 1
 820 111 779 -35 736 -117 c 0
 712 -163 672 -223 619 -223 c 0
 574 -223 548 -186 548 -140 c 0
 548 -108 563 -69 597 -69 c 0
 618 -69 632 -100 632 -120 c 0
 632 -140 619 -152 611 -165 c 128
 607 -172 598 -179 598 -184 c 0
 598 -187 601 -189 609 -190 c 1
 644 -190 663 -135 676 -101 c 128
 683 -83 688 -66 691 -49 c 0
 712 39 730 130 749 220 c 1
 606 220 l 1
 599 176 591 136 580 99 c 1
 562 24 541 -42 514 -98 c 1
 499 -126 483 -153 464 -177 c 0
 448 -198 428 -213 403 -221 c 1
 385 -223 l 1
 350 -223 332 -200 323 -169 c 1
 319 -159 317 -148 317 -136 c 1
 321 -99 332 -79 363 -69 c 1
 386 -69 398 -92 399 -116 c 0
 399 -124 395 -139 390 -147 c 2
 380 -162 l 2
 373 -172 372 -174 367 -183 c 1
 367 -188 370 -190 377 -190 c 0
 396 -190 412 -176 425 -148 c 1
 438 -116 448 -88 458 -51 c 1
 472 11 485 72 499 134 c 1
 517 220 l 1
 377 220 l 1
 363 131 317 -36 284 -98 c 1
 269 -129 254 -155 237 -177 c 128
 220 -199 199 -214 172 -221 c 1
 154 -223 l 1
 110 -223 87 -183 87 -136 c 0
 87 -97 105 -83 132 -69 c 1
EndSplineSet
EndChar

StartChar: uniE532
Encoding: 58674 58674 88
Width: 1158
VWidth: 2048
Flags: HW
LayerCount: 2
Fore
SplineSet
782 -140 m 4
 782 -108 797 -69 831 -69 c 4
 852 -69 866 -100 866 -120 c 4
 866 -140 853 -152 845 -165 c 132
 841 -172 832 -179 832 -184 c 0
 832 -187 835 -189 843 -190 c 5
 862 -190 877 -176 890 -149 c 4
 903 -122 918 -82 925 -49 c 6
 939 12 l 5
 983 220 l 5
 839 220 l 5
 820 111 779 -35 736 -117 c 4
 712 -163 672 -223 619 -223 c 4
 574 -223 548 -186 548 -140 c 4
 548 -108 563 -69 597 -69 c 4
 618 -69 632 -100 632 -120 c 4
 632 -140 619 -152 611 -165 c 132
 607 -172 598 -179 598 -184 c 0
 598 -187 601 -189 609 -190 c 5
 644 -190 663 -135 676 -101 c 132
 683 -83 688 -66 691 -49 c 4
 712 39 730 130 749 220 c 5
 606 220 l 5
 599 176 591 136 580 99 c 5
 562 24 541 -42 514 -98 c 5
 488 -146 458 -203 403 -221 c 5
 385 -223 l 5
 350 -223 332 -200 323 -169 c 5
 319 -159 317 -148 317 -136 c 5
 321 -99 332 -79 363 -69 c 5
 386 -69 398 -92 399 -116 c 4
 399 -124 395 -139 390 -147 c 6
 380 -162 l 6
 373 -172 372 -174 367 -183 c 5
 367 -188 370 -190 377 -190 c 4
 396 -190 412 -176 425 -148 c 5
 438 -116 448 -88 458 -51 c 5
 472 11 485 72 499 134 c 5
 517 220 l 5
 377 220 l 5
 363 131 317 -36 284 -98 c 5
 269 -129 254 -155 237 -177 c 132
 220 -199 199 -214 172 -221 c 5
 154 -223 l 5
 110 -223 87 -183 87 -136 c 4
 87 -97 105 -83 132 -69 c 5
 138 -69 143 -70 146 -73 c 5
 161 -79 169 -98 169 -118 c 4
 169 -133 158 -154 137 -183 c 5
 137 -188 140 -190 146 -190 c 4
 180 -190 207 -144 228 -51 c 5
 249 38 268 130 287 220 c 5
 146 220 l 5
 133 135 84 -35 53 -98 c 5
 20 -170 -17 -211 -57 -221 c 5
 -76 -223 l 5
 -111 -223 -127 -199 -139 -169 c 5
 -144 -136 l 5
 -139 -97 -131 -81 -98 -69 c 5
 -75 -69 -60 -95 -60 -118 c 4
 -60 -126 -62 -134 -66 -141 c 6
 -80 -164 l 5
 -94 -183 l 5
 -94 -188 -91 -190 -84 -190 c 4
 -73 -190 -63 -185 -54 -175 c 5
 -36 -160 -28 -129 -17 -104 c 5
 -2 -51 l 5
 15 26 32 104 48 182 c 132
 51 195 54 208 57 220 c 5
 0 220 l 5
 0 258 l 5
 69 258 l 5
 87 324 124 381 172 417 c 5
 197 434 225 442 255 442 c 4
 288 442 304 412 304 376 c 132
 304 338 285 306 254 300 c 5
 237 300 227 311 225 332 c 5
 225 359 242 385 262 394 c 5
 265 394 267 396 267 400 c 5
 261 409 l 5
 256 412 250 414 243 414 c 4
 220 414 202 398 188 366 c 132
 174 334 163 299 156 260 c 5
 300 260 l 5
 323 344 385 442 485 442 c 4
 521 442 532 411 534 376 c 5
 534 358 530 341 521 325 c 5
 513 313 501 305 484 300 c 5
 466 300 456 311 454 332 c 5
 454 361 472 383 491 394 c 5
 494 394 496 396 496 400 c 5
 492 410 485 414 473 414 c 4
 436 414 406 362 385 258 c 5
 529 258 l 5
 544 307 568 351 601 390 c 4
 632 426 670 444 715 444 c 4
 749 444 764 408 764 374 c 4
 764 337 745 306 713 300 c 5
 697 300 688 311 686 332 c 5
 686 358 704 384 721 394 c 5
 725 394 727 396 727 400 c 5
 722 409 716 414 703 414 c 4
 666 414 636 362 615 258 c 5
 761 258 l 5
 774 296 784 323 801 349 c 4
 822 379 843 402 866 418 c 132
 889 434 914 442 941 442 c 4
 969 442 987 428 992 404 c 6
 996 388 l 5
 996 355 995 352 983 328 c 4
 980 321 966 303 952 301 c 132
 949 301 946 300 944 300 c 0
 924 300 919 314 916 332 c 5
 916 359 927 376 945 388 c 6
 959 398 l 5
 959 410 948 414 936 414 c 0
 925 414 913 410 907 406 c 132
 898 399 888 385 878 363 c 5
 871 345 852 277 847 258 c 5
 995 258 l 5
 1002 279 1008 294 1013 305 c 4
 1033 353 1066 394 1100 418 c 132
 1123 434 1148 442 1175 442 c 4
 1184 442 1192 441 1198 439 c 132
 1209 435 1223 417 1226 404 c 6
 1230 388 l 5
 1230 355 1229 352 1217 328 c 4
 1214 321 1200 303 1186 301 c 132
 1183 301 1180 300 1178 300 c 0
 1158 300 1153 314 1150 332 c 5
 1150 359 1161 376 1179 388 c 4
 1186 393 1186 393 1193 398 c 5
 1193 407 1187 412 1175 414 c 4
 1173 414 1171 414 1169 414 c 0
 1158 414 1149 412 1141 406 c 132
 1132 399 1122 385 1112 363 c 5
 1105 345 1086 279 1081 260 c 5
 1158 260 l 5
 1158 220 l 5
 1073 220 l 5
 1054 111 1013 -35 970 -117 c 4
 946 -163 906 -223 853 -223 c 4
 808 -223 782 -186 782 -140 c 4
EndSplineSet
EndChar

StartChar: NameMe.58897
Encoding: 1114112 -1 89
Width: 322
VWidth: 2048
Flags: HW
LayerCount: 2
Fore
SplineSet
0 -2 m 5
 0 265 l 5
 52 265 l 5
 52 74 l 5
 270 74 l 5
 270 265 l 5
 322 265 l 5
 322 -2 l 5
 0 -2 l 5
EndSplineSet
EndChar

StartChar: NameMe.58898
Encoding: 1114113 -1 90
Width: 263
VWidth: 2048
Flags: HW
LayerCount: 2
Fore
SplineSet
0 418 m 5
 36 418 l 5
 130 104 l 5
 226 418 l 5
 262 418 l 5
 130 0 l 5
 0 418 l 5
EndSplineSet
EndChar

StartChar: NameMe.58899
Encoding: 1114114 -1 91
Width: 263
VWidth: 2048
Flags: HW
LayerCount: 2
Fore
SplineSet
0 418 m 5
 36 418 l 5
 130 104 l 5
 226 418 l 5
 262 418 l 5
 130 0 l 5
 0 418 l 5
EndSplineSet
EndChar

StartChar: uniE4A0
Encoding: 58528 58528 92
Width: 347
VWidth: 2048
Flags: HW
LayerCount: 2
Fore
SplineSet
0 236 m 1
 347 117 l 1
 0 0 l 1
 0 33 l 1
 252 117 l 1
 0 203 l 1
 0 236 l 1
EndSplineSet
EndChar

StartChar: uniE4A1
Encoding: 58529 58529 93
Width: 347
VWidth: 2048
Flags: HW
LayerCount: 2
Fore
SplineSet
0 -236 m 1
 0 -203 l 1
 252 -117 l 5
 0 -33 l 1
 0 0 l 1
 347 -117 l 1
 0 -236 l 1
EndSplineSet
EndChar

StartChar: uniE4A8
Encoding: 58536 58536 94
Width: 153
VWidth: 2048
Flags: HW
LayerCount: 2
Fore
SplineSet
153 224 m 5
 76 0 l 1
 0 224 l 5
 36 224 l 5
 45 221 51 215 56 206 c 4
 65 190 72 181 76 180 c 5
 82 182 87 187 90 194 c 4
 97 210 106 220 116 224 c 5
 153 224 l 5
EndSplineSet
EndChar

StartChar: uniE4A9
Encoding: 58537 58537 95
Width: 153
VWidth: 2048
Flags: HW
LayerCount: 2
Fore
SplineSet
153 -224 m 5
 116 -224 l 5
 106 -220 97 -210 90 -194 c 4
 87 -187 82 -182 76 -180 c 5
 72 -181 65 -190 56 -206 c 4
 51 -215 45 -221 36 -224 c 5
 0 -224 l 5
 76 0 l 1
 153 -224 l 5
EndSplineSet
EndChar

StartChar: uniE4AA
Encoding: 58538 58538 96
Width: 1000
VWidth: 0
Flags: HW
LayerCount: 2
Fore
SplineSet
0 0 m 25
 0 240 l 25
 33 240 l 29
 33 0 l 29
 0 0 l 25
EndSplineSet
EndChar

StartChar: uniE4AB
Encoding: 58539 58539 97
Width: 34
VWidth: 0
Flags: HW
LayerCount: 2
Fore
SplineSet
0 0 m 25
 33 0 l 25
 33 -240 l 25
 0 -240 l 25
 0 0 l 25
EndSplineSet
EndChar

StartChar: uniE568
Encoding: 58728 58728 98
Width: 468
VWidth: 2048
Flags: HW
LayerCount: 2
Fore
SplineSet
468 126 m 4
 468 124 468 123 468 121 c 0
 468 99 464 79 456 63 c 132
 441 32 414 1 371 1 c 5
 341 3 313 17 313 45 c 5
 315 65 326 82 345 82 c 4
 354 82 360 81 363 78 c 6
 381 65 l 6
 387 61 392 58 398 56 c 5
 425 56 437 83 437 111 c 4
 437 145 419 181 382 181 c 4
 371 181 358 177 345 170 c 5
 323 154 l 5
 313 145 l 5
 248 78 l 6
 240 69 224 54 215 47 c 134
 197 32 l 6
 194 30 188 26 179 21 c 4
 155 7 130 0 104 0 c 5
 85 2 67 10 49 25 c 5
 21 52 0 89 0 139 c 4
 0 182 22 222 55 236 c 5
 69 244 73 244 91 244 c 0
 93 244 94 244 96 244 c 5
 127 243 154 224 154 190 c 5
 149 171 138 162 121 162 c 4
 111 162 103 166 97 170 c 5
 90 177 l 5
 79 186 l 5
 70 188 l 5
 43 188 30 174 30 145 c 6
 30 137 l 134
 30 134 32 127 35 118 c 6
 47 92 l 5
 56 78 64 64 84 64 c 4
 95 65 107 69 121 77 c 132
 135 85 150 96 166 110 c 5
 189 133 212 156 235 180 c 5
 254 197 278 216 299 229 c 5
 318 239 339 244 362 244 c 4
 430 242 468 195 468 126 c 4
EndSplineSet
EndChar

StartChar: uniE567
Encoding: 58727 58727 99
Width: 468
VWidth: 2048
Flags: HW
LayerCount: 2
Fore
SplineSet
468 118 m 4
 468 49 430 2 362 0 c 4
 339 0 318 5 299 15 c 5
 278 28 254 47 235 64 c 5
 212 88 189 111 166 134 c 5
 150 148 135 159 121 167 c 132
 107 175 95 179 84 180 c 4
 64 180 56 166 47 152 c 5
 35 126 l 6
 32 117 30 110 30 107 c 134
 30 99 l 6
 30 70 43 56 70 56 c 5
 79 58 l 5
 90 67 l 5
 97 74 l 5
 103 78 111 82 121 82 c 4
 138 82 149 73 154 54 c 5
 154 20 127 1 96 0 c 5
 94 0 93 0 91 -0 c 0
 73 0 69 0 55 8 c 5
 22 22 0 62 0 105 c 4
 0 155 21 192 49 219 c 5
 67 234 85 242 104 244 c 5
 130 244 155 237 179 223 c 4
 188 218 194 214 197 212 c 6
 215 197 l 134
 224 190 240 175 248 166 c 6
 313 99 l 5
 323 90 l 5
 345 74 l 5
 358 67 371 63 382 63 c 4
 419 63 437 99 437 133 c 4
 437 161 425 188 398 188 c 5
 392 186 387 183 381 179 c 6
 363 166 l 6
 360 163 354 162 345 162 c 4
 326 162 315 179 313 199 c 5
 313 227 341 241 371 243 c 5
 414 243 441 212 456 181 c 132
 464 165 468 145 468 123 c 0
 468 121 468 120 468 118 c 4
EndSplineSet
EndChar

StartChar: uniE56E
Encoding: 58734 58734 100
Width: 711
VWidth: 2048
Flags: HW
LayerCount: 2
Fore
SplineSet
710 134 m 1
 601 7 l 2
 598 4 596 2 594 1 c 128
 591 0 591 0 588 -1 c 1
 583 1 579 3 578 4 c 2
 489 82 l 2
 484 87 479 89 472 90 c 1
 468 89 465 87 464 86 c 2
 398 7 l 1
 395 2 390 -1 385 -1 c 1
 374 4 l 1
 285 82 l 2
 279 87 274 89 269 90 c 1
 265 89 262 87 261 86 c 2
 194 7 l 2
 189 2 184 -1 180 -1 c 0
 178 -1 175 1 170 4 c 2
 82 82 l 2
 77 87 71 89 65 90 c 1
 60 89 58 87 57 86 c 2
 0 18 l 1
 0 67 l 1
 108 194 l 1
 118 198 l 2
 119 198 120 198 122 197 c 128
 124 196 128 194 134 190 c 1
 222 112 l 1
 232 107 l 1
 236 107 241 110 246 115 c 2
 313 194 l 5
 316 197 319 198 321 198 c 0
 326 198 331 195 337 190 c 2
 426 112 l 1
 437 107 l 1
 443 108 l 1
 450 115 l 1
 517 194 l 1
 520 197 523 198 524 198 c 4
 528 197 531 195 532 194 c 2
 539 188 l 1
 628 111 l 2
 631 108 635 106 639 106 c 128
 643 106 647 109 652 114 c 2
 710 181 l 1
 710 134 l 1
EndSplineSet
EndChar

StartChar: uniE56A
Encoding: 58730 58730 101
Width: 244
VWidth: 2048
Flags: HW
LayerCount: 2
Fore
SplineSet
126 468 m 0
 195 468 242 430 244 362 c 0
 244 339 239 318 229 299 c 1
 216 278 197 254 180 235 c 1
 156 212 133 189 110 166 c 1
 96 150 85 135 77 121 c 128
 69 107 65 95 64 84 c 0
 64 64 78 56 92 47 c 1
 118 35 l 2
 127 32 134 30 137 30 c 130
 145 30 l 2
 174 30 188 43 188 70 c 1
 186 79 l 1
 177 90 l 1
 170 97 l 1
 166 103 162 111 162 121 c 0
 162 138 171 149 190 154 c 1
 224 154 243 127 244 96 c 1
 244 73 244 70 236 55 c 1
 222 22 182 0 139 0 c 0
 89 0 52 21 25 49 c 1
 10 67 2 85 0 104 c 1
 0 130 7 155 21 179 c 0
 26 188 30 194 32 197 c 2
 47 215 l 130
 54 224 69 240 78 248 c 2
 145 313 l 1
 154 323 l 1
 170 345 l 1
 177 358 181 371 181 382 c 0
 181 419 145 437 111 437 c 0
 83 437 56 425 56 398 c 1
 58 392 61 387 65 381 c 2
 78 363 l 2
 81 360 82 354 82 345 c 0
 82 326 65 315 45 313 c 1
 17 313 3 341 1 371 c 1
 1 414 32 441 63 456 c 128
 79 464 98 468 121 468 c 0
 122 468 124 468 126 468 c 0
EndSplineSet
EndChar

StartChar: uniE4AC
Encoding: 58540 58540 103
Width: 274
VWidth: 2048
Flags: HW
LayerCount: 2
Fore
SplineSet
273 0 m 1
 191 0 l 1
 107 154 l 1
 29 0 l 1
 0 0 l 1
 137 265 l 1
 273 0 l 1
EndSplineSet
EndChar

StartChar: uniE4AD
Encoding: 58541 58541 104
Width: 274
VWidth: 2048
Flags: HW
LayerCount: 2
Fore
SplineSet
1 0 m 1
 83 0 l 1
 167 -154 l 1
 245 0 l 1
 274 0 l 1
 137 -265 l 1
 1 0 l 1
EndSplineSet
EndChar

StartChar: uniE56B
Encoding: 58731 58731 105
Width: 244
VWidth: 2048
Flags: HW
LayerCount: 2
Fore
SplineSet
118 468 m 0
 120 468 122 468 123 468 c 0
 146 468 165 464 181 456 c 128
 212 441 243 414 243 371 c 1
 241 341 227 313 199 313 c 1
 179 315 162 326 162 345 c 0
 162 354 163 360 166 363 c 2
 179 381 l 2
 183 387 186 392 188 398 c 1
 188 425 161 437 133 437 c 0
 99 437 63 419 63 382 c 0
 63 371 67 358 74 345 c 1
 90 323 l 1
 99 313 l 1
 166 248 l 2
 175 240 190 224 197 215 c 130
 212 197 l 2
 214 194 218 188 223 179 c 0
 237 155 244 130 244 104 c 1
 242 85 234 67 219 49 c 1
 192 21 155 0 105 0 c 0
 62 0 22 22 8 55 c 1
 0 70 0 73 0 96 c 1
 1 127 20 154 54 154 c 1
 73 149 82 138 82 121 c 0
 82 111 78 103 74 97 c 1
 67 90 l 1
 58 79 l 1
 56 70 l 1
 56 43 70 30 99 30 c 2
 107 30 l 130
 110 30 117 32 126 35 c 2
 152 47 l 1
 166 56 180 64 180 84 c 0
 179 95 175 107 167 121 c 128
 159 135 148 150 134 166 c 1
 111 189 88 212 64 235 c 1
 47 254 28 278 15 299 c 1
 5 318 0 339 0 362 c 0
 2 430 49 468 118 468 c 0
EndSplineSet
EndChar

StartChar: uniE938
Encoding: 59704 59704 106
Width: 312
VWidth: 2048
Flags: HW
LayerCount: 2
Fore
SplineSet
155 194 m 5
 312 0 l 5
 155 -192 l 5
 0 0 l 5
 155 194 l 5
EndSplineSet
EndChar

StartChar: uniE939
Encoding: 59705 59705 107
Width: 312
VWidth: 2048
Flags: HW
LayerCount: 2
Fore
SplineSet
155 194 m 5
 312 0 l 5
 155 -192 l 5
 0 0 l 5
 155 194 l 5
125 111 m 5
 68 38 l 5
 190 -111 l 5
 246 -40 l 5
 125 111 l 5
EndSplineSet
EndChar

StartChar: uniE93C
Encoding: 59708 59708 108
Width: 312
VWidth: 2048
Flags: HW
LayerCount: 2
Fore
SplineSet
155 194 m 5
 312 0 l 5
 155 -192 l 5
 0 0 l 5
 155 194 l 5
125 111 m 5
 68 38 l 5
 190 -111 l 5
 246 -40 l 5
 125 111 l 5
EndSplineSet
EndChar

StartChar: uniE93D
Encoding: 59709 59709 109
Width: 312
VWidth: 2048
Flags: HW
LayerCount: 2
Fore
SplineSet
155 194 m 1
 312 0 l 1
 155 -192 l 1
 0 0 l 1
 155 194 l 1
EndSplineSet
EndChar

StartChar: uniE101
Encoding: 57601 57601 110
Width: 508
VWidth: 2048
Flags: HW
LayerCount: 2
Fore
SplineSet
508 242 m 1
 146 -242 l 1
 0 -242 l 1
 362 242 l 1
 508 242 l 1
EndSplineSet
EndChar

StartChar: uniE501
Encoding: 58625 58625 111
Width: 751
VWidth: 2048
Flags: HW
LayerCount: 2
Fore
SplineSet
750 242 m 1
 388 -242 l 1
 242 -242 l 1
 604 242 l 1
 750 242 l 1
508 242 m 1
 146 -242 l 1
 0 -242 l 1
 362 242 l 1
 508 242 l 1
52 118 m 4
 52 131 56 143 65 152 c 132
 74 161 84 166 97 167 c 5
 111 167 123 163 132 155 c 132
 141 147 146 136 147 122 c 4
 147 109 143 97 134 88 c 132
 125 79 115 74 102 73 c 5
 88 73 76 77 67 85 c 132
 58 93 53 104 52 118 c 4
603 -121 m 0
 603 -108 607 -96 616 -87 c 128
 625 -78 635 -73 648 -72 c 1
 662 -72 674 -76 683 -84 c 128
 692 -92 697 -103 698 -117 c 0
 698 -130 694 -142 685 -151 c 128
 676 -160 666 -165 653 -166 c 1
 639 -166 627 -162 618 -154 c 128
 609 -146 604 -135 603 -121 c 0
EndSplineSet
EndChar

StartChar: uniE502
Encoding: 58626 58626 112
Width: 1234
VWidth: 2048
Flags: HW
LayerCount: 2
Fore
SplineSet
1234 242 m 1
 872 -242 l 5
 726 -242 l 5
 1088 242 l 1
 1234 242 l 1
992 242 m 1
 630 -242 l 5
 484 -242 l 5
 846 242 l 1
 992 242 l 1
750 242 m 1
 388 -242 l 5
 242 -242 l 5
 604 242 l 1
 750 242 l 1
508 242 m 1
 146 -242 l 5
 0 -242 l 5
 362 242 l 1
 508 242 l 1
52 118 m 0
 52 131 56 143 65 152 c 128
 74 161 84 166 97 167 c 1
 111 167 123 163 132 155 c 128
 141 147 146 136 147 122 c 0
 147 109 143 97 134 88 c 128
 125 79 115 74 102 73 c 1
 88 73 76 77 67 85 c 128
 58 93 53 104 52 118 c 0
1087 -121 m 0
 1087 -108 1091 -96 1100 -87 c 128
 1109 -78 1119 -73 1132 -72 c 1
 1146 -72 1158 -76 1167 -84 c 128
 1176 -92 1181 -103 1182 -117 c 0
 1182 -130 1178 -142 1169 -151 c 128
 1160 -160 1150 -165 1137 -166 c 1
 1123 -166 1111 -162 1102 -154 c 128
 1093 -146 1088 -135 1087 -121 c 0
EndSplineSet
EndChar

StartChar: uniE901
Encoding: 59649 59649 113
Width: 268
VWidth: 2048
Flags: HW
LayerCount: 2
Fore
SplineSet
144 488 m 1
 174 516 227 598 227 664 c 0
 227 741 188 814 123 814 c 0
 108 814 90 808 62 780 c 0
 47 765 39 736 39 701 c 0
 39 657 53 605 82 568 c 0
 105 539 126 510 144 488 c 1
159 69 m 0
 102 69 55 38 55 -29 c 0
 55 -90 90 -92 106 -104 c 1
 114 -104 129 -52 145 -12 c 2
 177 68 l 1
 171 69 165 69 159 69 c 0
256 -25 m 0
 256 -101 232 -147 158 -147 c 0
 157 -147 156 -147 155 -147 c 0
 127 -147 89 -140 71 -132 c 0
 33 -115 0 -77 -0 -20 c 0
 0 35 56 94 124 103 c 0
 149 106 173 111 185 111 c 1
 197 144 211 200 211 239 c 0
 211 343 156 419 135 450 c 1
 84 385 56 340 45 272 c 0
 44 266 41 247 41 226 c 0
 41 208 43 188 51 176 c 0
 56 169 58 160 58 152 c 0
 58 139 52 128 43 128 c 0
 38 128 31 133 24 145 c 0
 12 166 0 183 -0 241 c 0
 0 318 23 356 54 392 c 0
 92 436 80 420 119 460 c 1
 120 459 l 2
 120 462 104 486 60 538 c 0
 41 560 2 596 2 683 c 0
 2 759 32 783 55 806 c 0
 80 831 112 844 157 844 c 0
 219 844 267 761 267 676 c 0
 267 663 265 650 263 637 c 0
 253 585 180 507 152 474 c 1
 176 436 160 471 207 383 c 0
 241 320 249 299 249 264 c 0
 249 254 248 242 247 227 c 0
 243 164 236 151 227 111 c 1
 234 111 239 112 248 110 c 0
 262 106 268 99 268 91 c 0
 268 72 238 72 216 67 c 1
 210 54 149 -107 149 -114 c 0
 149 -116 158 -118 168 -118 c 0
 193 -118 209 -97 224 -45 c 0
 232 -17 238 -6 246 -6 c 0
 254 -6 256 -14 256 -25 c 0
EndSplineSet
EndChar

StartChar: uniE904
Encoding: 59652 59652 114
Width: 596
VWidth: 2048
Flags: HW
LayerCount: 2
Fore
SplineSet
428 -39 m 1
 374 -106 l 1
 486 -244 l 1
 538 -178 l 1
 428 -39 l 1
428 249 m 1
 374 182 l 1
 486 44 l 1
 538 110 l 1
 428 249 l 1
455 325 m 1
 597 147 l 1
 482 3 l 1
 597 -141 l 1
 468 -303 l 1
 468 -883 l 1
 438 -883 l 1
 438 -298 l 1
 311 -141 l 1
 427 3 l 1
 311 147 l 1
 455 325 l 1
232 -50 m 1
 232 58 l 1
 33 58 l 1
 33 -50 l 1
 232 -50 l 1
266 -808 m 1
 232 -808 l 1
 232 -115 l 1
 33 -115 l 1
 33 -208 l 1
 0 -208 l 1
 0 209 l 1
 33 209 l 1
 33 123 l 1
 232 123 l 1
 232 209 l 1
 266 209 l 1
 266 -808 l 1
EndSplineSet
EndChar

StartChar: uniE909
Encoding: 59657 59657 115
Width: 204
VWidth: 2048
Flags: HW
LayerCount: 2
Fore
SplineSet
2 206 m 2
 4 637 l 1
 4 649 11 654 18 654 c 0
 26 654 35 647 35 637 c 1
 38 433 l 1
 40 115 l 1
 119 115 l 1
 119 115 122 115 127 115 c 0
 138 115 157 116 162 121 c 1
 170 129 170 243 170 296 c 0
 170 312 170 323 170 323 c 1
 174 545 l 1
 174 545 173 565 193 565 c 0
 213 565 205 545 205 545 c 1
 205 301 l 1
 205 301 204 121 204 75 c 1
 203 67 203 63 200 56 c 1
 193 49 192 49 184 49 c 3
 139 49 113 49 113 49 c 1
 44 46 l 1
 44 -3 l 1
 44 -51 l 1
 108 -54 l 1
 190 -56 l 1
 190 -56 195 -56 198 -59 c 0
 201 -62 203 -66 203 -66 c 1
 204 -218 l 1
 204 -372 l 1
 204 -372 204 -392 191 -392 c 0
 181 -392 177 -387 175 -378 c 1
 168 -240 l 1
 166 -134 l 1
 166 -134 166 -130 163 -127 c 0
 160 -124 154 -125 154 -125 c 1
 114 -125 l 1
 44 -125 l 1
 41 -240 l 1
 38 -372 l 1
 38 -372 38 -392 23 -392 c 0
 6 -392 4 -375 4 -375 c 1
 3 -353 1 -189 1 51 c 0
 1 100 2 151 2 206 c 2
EndSplineSet
EndChar

StartChar: uniE526
Encoding: 58662 58662 116
Width: 290
VWidth: 2048
Flags: HW
LayerCount: 2
Fore
SplineSet
-39 115 m 1
 -37 117 -20 151 -15 158 c 1
 26 228 l 1
 45 245 40 245 51 250 c 1
 62 256 87 262 102 262 c 0
 123 262 134 243 137 221 c 1
 159 238 186 262 222 262 c 0
 243 262 265 248 265 227 c 2
 265 220 l 1
 202 37 l 1
 202 24 206 17 214 16 c 1
 222 16 231 21 240 31 c 128
 249 41 255 47 256 48 c 0
 260 55 275 80 276 83 c 2
 290 124 l 1
 313 124 l 1
 289 61 l 2
 281 39 258 16 245 3 c 128
 232 -10 216 -17 199 -18 c 0
 181 -18 165 -13 150 -4 c 1
 134 11 l 1
 131 18 129 23 129 28 c 1
 149 91 173 152 194 214 c 1
 194 221 189 226 179 227 c 1
 163 227 148 212 135 182 c 1
 71 0 l 1
 0 0 l 1
 77 214 l 1
 77 223 71 227 60 227 c 0
 51 227 43 223 38 216 c 128
 33 209 -9 130 -17 115 c 1
 -39 115 l 1
EndSplineSet
EndChar

StartChar: uniE527
Encoding: 58663 58663 117
Width: 1800
VWidth: 2048
Flags: HW
LayerCount: 2
Fore
SplineSet
1762 169 m 1
 1762 195 1752 215 1726 215 c 0
 1712 215 1702 210 1697 201 c 0
 1685 180 1675 156 1668 129 c 0
 1661 99 1658 78 1658 67 c 0
 1658 43 1665 31 1680 31 c 0
 1707 31 1721 42 1732 58 c 1
 1752 91 1754 90 1758 130 c 0
 1760 148 1761 161 1762 169 c 1
1700 1 m 0
 1678 1 1650 19 1639 35 c 1
 1583 -123 l 1
 1580 -127 l 1
 1583 -134 1587 -137 1592 -138 c 1
 1624 -138 l 1
 1624 -167 l 1
 1451 -167 l 1
 1451 -138 l 1
 1472 -138 l 2
 1476 -138 1481 -136 1486 -133 c 1
 1490 -129 1493 -124 1495 -119 c 2
 1614 212 l 1
 1614 218 l 1
 1611 228 l 1
 1605 231 l 1
 1582 231 1567 206 1557 188 c 1
 1546 171 l 2
 1541 162 1537 154 1533 145 c 1
 1532 103 1521 83 1501 58 c 0
 1478 29 1446 1 1400 1 c 0
 1378 1 1350 19 1339 35 c 1
 1283 -123 l 1
 1280 -127 l 1
 1283 -134 1287 -137 1292 -138 c 1
 1324 -138 l 1
 1324 -167 l 1
 1151 -167 l 1
 1151 -138 l 1
 1172 -138 l 2
 1176 -138 1181 -136 1186 -133 c 1
 1190 -129 1193 -124 1195 -119 c 2
 1314 212 l 1
 1314 218 l 1
 1311 228 l 1
 1305 231 l 1
 1282 231 1267 206 1257 188 c 1
 1246 171 l 2
 1241 162 1237 154 1233 145 c 1
 1232 103 1221 83 1201 58 c 0
 1178 29 1146 1 1100 1 c 0
 1078 1 1050 19 1039 35 c 1
 983 -123 l 1
 980 -127 l 1
 983 -134 987 -137 992 -138 c 1
 1024 -138 l 1
 1024 -167 l 1
 851 -167 l 1
 851 -138 l 1
 872 -138 l 2
 876 -138 881 -136 886 -133 c 1
 890 -129 893 -124 895 -119 c 2
 1014 212 l 1
 1014 218 l 1
 1011 228 l 1
 1005 231 l 1
 982 231 967 206 957 188 c 1
 946 171 l 2
 941 162 937 154 933 145 c 1
 932 103 921 83 901 58 c 0
 878 29 846 1 800 1 c 0
 778 1 750 19 739 35 c 1
 683 -123 l 1
 680 -127 l 1
 683 -134 687 -137 692 -138 c 1
 724 -138 l 1
 724 -167 l 1
 551 -167 l 1
 551 -138 l 1
 572 -138 l 2
 576 -138 581 -136 586 -133 c 1
 590 -129 593 -124 595 -119 c 2
 714 212 l 1
 714 218 l 1
 711 228 l 1
 705 231 l 1
 682 231 667 206 657 188 c 1
 646 171 l 2
 641 162 637 154 633 145 c 1
 632 103 621 83 601 58 c 0
 578 29 546 1 500 1 c 0
 478 1 450 19 439 35 c 1
 383 -123 l 1
 380 -127 l 1
 383 -134 387 -137 392 -138 c 1
 424 -138 l 1
 424 -167 l 1
 251 -167 l 1
 251 -138 l 1
 272 -138 l 2
 276 -138 281 -136 286 -133 c 1
 290 -129 293 -124 295 -119 c 2
 414 212 l 1
 414 218 l 1
 411 228 l 1
 405 231 l 1
 382 231 367 206 357 188 c 1
 346 171 l 2
 341 162 337 154 333 145 c 1
 332 103 321 83 301 58 c 0
 278 29 246 1 200 1 c 0
 178 1 150 19 139 35 c 1
 83 -123 l 1
 80 -127 l 1
 83 -134 87 -137 92 -138 c 1
 124 -138 l 1
 124 -167 l 1
 -49 -167 l 1
 -49 -138 l 1
 -28 -138 l 2
 -24 -138 -19 -136 -14 -133 c 1
 -10 -129 -7 -124 -5 -119 c 2
 114 212 l 1
 114 218 l 1
 111 228 l 1
 105 231 l 1
 82 231 67 206 57 188 c 1
 46 171 l 1
 38 156 31 140 23 124 c 1
 0 124 l 1
 22 167 43 200 62 225 c 0
 81 250 107 262 138 263 c 0
 152 263 166 240 166 223 c 1
 190 237 l 1
 215 250 l 1
 227 255 239 257 252 257 c 0
 297 257 323 224 331 179 c 1
 342 197 352 212 362 225 c 0
 381 250 407 262 438 263 c 0
 452 263 466 240 466 223 c 1
 490 237 l 1
 515 250 l 1
 527 255 539 257 552 257 c 0
 597 257 623 224 631 179 c 1
 642 197 652 212 662 225 c 0
 681 250 707 262 738 263 c 0
 752 263 766 240 766 223 c 1
 790 237 l 1
 815 250 l 1
 827 255 839 257 852 257 c 0
 897 257 923 224 931 179 c 1
 942 197 952 212 962 225 c 0
 981 250 1007 262 1038 263 c 0
 1052 263 1066 240 1066 223 c 1
 1090 237 l 1
 1115 250 l 1
 1127 255 1139 257 1152 257 c 0
 1197 257 1223 224 1231 179 c 1
 1242 197 1252 212 1262 225 c 0
 1281 250 1307 262 1338 263 c 0
 1352 263 1366 240 1366 223 c 1
 1390 237 l 1
 1415 250 l 1
 1427 255 1439 257 1452 257 c 0
 1497 257 1523 224 1531 179 c 1
 1542 197 1552 212 1562 225 c 0
 1581 250 1607 262 1638 263 c 0
 1652 263 1666 240 1666 223 c 1
 1690 237 l 1
 1715 250 l 1
 1727 255 1739 257 1752 257 c 0
 1806 257 1832 209 1833 152 c 0
 1833 105 1822 84 1801 58 c 0
 1778 29 1746 1 1700 1 c 0
1462 169 m 1
 1462 195 1452 215 1426 215 c 0
 1412 215 1402 210 1397 201 c 0
 1385 180 1375 156 1368 129 c 0
 1361 99 1358 78 1358 67 c 0
 1358 43 1365 31 1380 31 c 0
 1407 31 1421 42 1432 58 c 1
 1452 91 1454 90 1458 130 c 0
 1460 148 1461 161 1462 169 c 1
1162 169 m 1
 1162 195 1152 215 1126 215 c 0
 1112 215 1102 210 1097 201 c 0
 1085 180 1075 156 1068 129 c 0
 1061 99 1058 78 1058 67 c 0
 1058 43 1065 31 1080 31 c 0
 1107 31 1121 42 1132 58 c 1
 1152 91 1154 90 1158 130 c 0
 1160 148 1161 161 1162 169 c 1
862 169 m 1
 862 195 852 215 826 215 c 0
 812 215 802 210 797 201 c 0
 785 180 775 156 768 129 c 0
 761 99 758 78 758 67 c 0
 758 43 765 31 780 31 c 0
 807 31 821 42 832 58 c 1
 852 91 854 90 858 130 c 0
 860 148 861 161 862 169 c 1
562 169 m 1
 562 195 552 215 526 215 c 0
 512 215 502 210 497 201 c 0
 485 180 475 156 468 129 c 0
 461 99 458 78 458 67 c 0
 458 43 465 31 480 31 c 0
 507 31 521 42 532 58 c 1
 552 91 554 90 558 130 c 0
 560 148 561 161 562 169 c 1
262 169 m 1
 262 195 252 215 226 215 c 0
 212 215 202 210 197 201 c 0
 185 180 175 156 168 129 c 0
 161 99 158 78 158 67 c 0
 158 43 165 31 180 31 c 0
 207 31 221 42 232 58 c 1
 252 91 254 90 258 130 c 0
 260 148 261 161 262 169 c 1
EndSplineSet
EndChar

StartChar: uniE52B
Encoding: 58667 58667 118
Width: 600
VWidth: 2048
Flags: HW
LayerCount: 2
Fore
SplineSet
497 201 m 4
 485 180 475 156 468 129 c 5
 461 99 458 78 458 67 c 4
 458 43 465 31 480 31 c 4
 493 31 503 33 511 38 c 4
 519 43 526 49 532 58 c 4
 542 75 547 84 548 86 c 4
 553 97 556 112 558 130 c 4
 560 148 561 161 562 169 c 4
 562 176 561 182 560 187 c 4
 559 192 557 196 554 201 c 4
 549 210 539 215 526 215 c 4
 512 215 502 210 497 201 c 4
197 201 m 4
 185 180 175 156 168 129 c 5
 161 99 158 78 158 67 c 4
 158 43 165 31 180 31 c 4
 193 31 203 33 211 38 c 4
 219 43 226 49 232 58 c 4
 242 75 247 84 248 86 c 4
 253 97 256 112 258 130 c 4
 260 148 261 161 262 169 c 4
 262 176 261 182 260 187 c 4
 259 192 257 196 254 201 c 4
 249 210 239 215 226 215 c 4
 212 215 202 210 197 201 c 4
23 124 m 5
 0 124 l 5
 22 167 43 200 62 225 c 4
 81 250 107 262 138 263 c 4
 144 263 150 259 156 250 c 5
 163 243 166 234 166 223 c 5
 190 237 l 5
 215 250 l 5
 227 255 239 257 252 257 c 4
 276 257 295 248 310 229 c 4
 320 216 328 199 331 179 c 5
 342 197 352 212 362 225 c 4
 381 250 407 262 438 263 c 4
 444 263 450 259 456 250 c 5
 463 243 466 234 466 223 c 5
 490 237 l 5
 515 250 l 5
 527 255 539 257 552 257 c 4
 576 257 595 248 610 229 c 4
 625 210 632 185 633 152 c 4
 633 138 632 125 630 114 c 4
 628 103 625 93 620 85 c 4
 615 77 609 68 601 58 c 4
 587 40 571 26 554 16 c 4
 537 6 519 1 500 1 c 4
 491 1 480 4 467 11 c 4
 462 14 457 18 452 21 c 4
 447 24 443 29 439 35 c 5
 383 -123 l 5
 380 -127 l 5
 383 -134 387 -137 392 -138 c 6
 424 -138 l 5
 424 -167 l 5
 251 -167 l 5
 251 -138 l 5
 272 -138 l 6
 276 -138 281 -136 286 -133 c 5
 290 -129 293 -124 295 -119 c 6
 414 212 l 5
 414 218 l 5
 411 228 l 5
 405 231 l 5
 396 231 388 227 380 219 c 4
 372 211 364 201 357 188 c 6
 346 171 l 5
 336 151 l 5
 333 145 l 5
 333 134 332 123 330 114 c 4
 328 103 325 93 320 85 c 4
 315 77 309 68 301 58 c 4
 287 40 271 26 254 16 c 4
 237 6 219 1 200 1 c 4
 191 1 180 4 167 11 c 4
 162 14 157 18 152 21 c 4
 147 24 143 29 139 35 c 5
 83 -123 l 5
 80 -127 l 5
 83 -134 87 -137 92 -138 c 6
 124 -138 l 5
 124 -167 l 5
 -49 -167 l 5
 -49 -138 l 5
 -28 -138 l 6
 -24 -138 -19 -136 -14 -133 c 5
 -10 -129 -7 -124 -5 -119 c 6
 114 212 l 5
 114 218 l 5
 111 228 l 5
 105 231 l 5
 96 231 88 227 80 219 c 4
 72 211 64 201 57 188 c 6
 46 171 l 5
 36 151 l 5
 23 124 l 5
EndSplineSet
EndChar

StartChar: uniE52A
Encoding: 58666 58666 119
Width: 900
VWidth: 2048
Flags: HW
LayerCount: 2
Fore
SplineSet
262 169 m 1
 262 195 252 215 226 215 c 0
 212 215 202 210 197 201 c 0
 185 180 175 156 168 129 c 0
 161 99 158 78 158 67 c 0
 158 43 165 31 180 31 c 0
 207 31 221 42 232 58 c 1
 252 91 254 90 258 130 c 0
 260 148 261 161 262 169 c 1
200 1 m 0
 178 1 150 19 139 35 c 1
 83 -123 l 1
 80 -127 l 1
 83 -134 87 -137 92 -138 c 1
 124 -138 l 1
 124 -167 l 1
 -49 -167 l 1
 -49 -138 l 1
 -28 -138 l 2
 -24 -138 -19 -136 -14 -133 c 1
 -10 -129 -7 -124 -5 -119 c 2
 114 212 l 1
 114 218 l 1
 111 228 l 1
 105 231 l 1
 82 231 67 206 57 188 c 1
 46 171 l 1
 38 156 31 140 23 124 c 1
 0 124 l 1
 22 167 43 200 62 225 c 0
 81 250 107 262 138 263 c 0
 152 263 166 240 166 223 c 1
 190 237 l 1
 215 250 l 1
 227 255 239 257 252 257 c 0
 297 257 323 224 331 179 c 1
 342 197 352 212 362 225 c 0
 381 250 407 262 438 263 c 0
 452 263 466 240 466 223 c 1
 490 237 l 1
 515 250 l 1
 527 255 539 257 552 257 c 0
 597 257 623 224 631 179 c 1
 642 197 652 212 662 225 c 0
 681 250 707 262 738 263 c 0
 752 263 766 240 766 223 c 1
 790 237 l 1
 815 250 l 1
 827 255 839 257 852 257 c 0
 906 257 932 209 933 152 c 0
 933 105 922 84 901 58 c 0
 878 29 846 1 800 1 c 0
 778 1 750 19 739 35 c 1
 683 -123 l 1
 680 -127 l 1
 683 -134 687 -137 692 -138 c 1
 724 -138 l 1
 724 -167 l 1
 551 -167 l 1
 551 -138 l 1
 572 -138 l 2
 576 -138 581 -136 586 -133 c 1
 590 -129 593 -124 595 -119 c 2
 714 212 l 1
 714 218 l 1
 711 228 l 1
 705 231 l 1
 682 231 667 206 657 188 c 1
 646 171 l 2
 641 162 637 154 633 145 c 1
 632 103 621 83 601 58 c 0
 578 29 546 1 500 1 c 0
 478 1 450 19 439 35 c 1
 383 -123 l 1
 380 -127 l 1
 383 -134 387 -137 392 -138 c 1
 424 -138 l 1
 424 -167 l 1
 251 -167 l 1
 251 -138 l 1
 272 -138 l 2
 276 -138 281 -136 286 -133 c 1
 290 -129 293 -124 295 -119 c 2
 414 212 l 1
 414 218 l 1
 411 228 l 1
 405 231 l 1
 382 231 367 206 357 188 c 1
 346 171 l 2
 341 162 337 154 333 145 c 1
 332 103 321 83 301 58 c 0
 278 29 246 1 200 1 c 0
858 130 m 0
 860 148 861 161 862 169 c 1
 862 195 852 215 826 215 c 0
 812 215 802 210 797 201 c 0
 785 180 775 156 768 129 c 0
 761 99 758 78 758 67 c 0
 758 43 765 31 780 31 c 0
 807 31 821 42 832 58 c 1
 852 91 854 90 858 130 c 0
558 130 m 0
 560 148 561 161 562 169 c 1
 562 195 552 215 526 215 c 0
 512 215 502 210 497 201 c 0
 485 180 475 156 468 129 c 0
 461 99 458 78 458 67 c 0
 458 43 465 31 480 31 c 0
 507 31 521 42 532 58 c 1
 552 91 554 90 558 130 c 0
EndSplineSet
EndChar

StartChar: uniE529
Encoding: 58665 58665 120
Width: 1200
VWidth: 2048
Flags: HW
LayerCount: 2
Fore
SplineSet
1162 169 m 1
 1162 195 1152 215 1126 215 c 0
 1112 215 1102 210 1097 201 c 0
 1085 180 1075 156 1068 129 c 0
 1061 99 1058 78 1058 67 c 0
 1058 43 1065 31 1080 31 c 0
 1107 31 1121 42 1132 58 c 1
 1152 91 1154 90 1158 130 c 0
 1160 148 1161 161 1162 169 c 1
1100 1 m 0
 1078 1 1050 19 1039 35 c 1
 983 -123 l 1
 980 -127 l 1
 983 -134 987 -137 992 -138 c 1
 1024 -138 l 1
 1024 -167 l 1
 851 -167 l 1
 851 -138 l 1
 872 -138 l 2
 876 -138 881 -136 886 -133 c 1
 890 -129 893 -124 895 -119 c 2
 1014 212 l 1
 1014 218 l 1
 1011 228 l 1
 1005 231 l 1
 982 231 967 206 957 188 c 1
 946 171 l 2
 941 162 937 154 933 145 c 1
 932 103 921 83 901 58 c 0
 878 29 846 1 800 1 c 0
 778 1 750 19 739 35 c 1
 683 -123 l 1
 680 -127 l 1
 683 -134 687 -137 692 -138 c 1
 724 -138 l 1
 724 -167 l 1
 551 -167 l 1
 551 -138 l 1
 572 -138 l 2
 576 -138 581 -136 586 -133 c 1
 590 -129 593 -124 595 -119 c 2
 714 212 l 1
 714 218 l 1
 711 228 l 1
 705 231 l 1
 682 231 667 206 657 188 c 1
 646 171 l 2
 641 162 637 154 633 145 c 1
 632 103 621 83 601 58 c 0
 578 29 546 1 500 1 c 0
 478 1 450 19 439 35 c 1
 383 -123 l 1
 380 -127 l 1
 383 -134 387 -137 392 -138 c 1
 424 -138 l 1
 424 -167 l 1
 251 -167 l 1
 251 -138 l 1
 272 -138 l 2
 276 -138 281 -136 286 -133 c 1
 290 -129 293 -124 295 -119 c 2
 414 212 l 1
 414 218 l 1
 411 228 l 1
 405 231 l 1
 382 231 367 206 357 188 c 1
 346 171 l 2
 341 162 337 154 333 145 c 1
 332 103 321 83 301 58 c 0
 278 29 246 1 200 1 c 0
 178 1 150 19 139 35 c 1
 83 -123 l 1
 80 -127 l 1
 83 -134 87 -137 92 -138 c 1
 124 -138 l 1
 124 -167 l 1
 -49 -167 l 1
 -49 -138 l 1
 -28 -138 l 2
 -24 -138 -19 -136 -14 -133 c 1
 -10 -129 -7 -124 -5 -119 c 2
 114 212 l 1
 114 218 l 1
 111 228 l 1
 105 231 l 1
 82 231 67 206 57 188 c 1
 46 171 l 1
 38 156 31 140 23 124 c 1
 0 124 l 1
 22 167 43 200 62 225 c 0
 81 250 107 262 138 263 c 0
 152 263 166 240 166 223 c 1
 190 237 l 1
 215 250 l 1
 227 255 239 257 252 257 c 0
 297 257 323 224 331 179 c 1
 342 197 352 212 362 225 c 0
 381 250 407 262 438 263 c 0
 452 263 466 240 466 223 c 1
 490 237 l 1
 515 250 l 1
 527 255 539 257 552 257 c 0
 597 257 623 224 631 179 c 1
 642 197 652 212 662 225 c 0
 681 250 707 262 738 263 c 0
 752 263 766 240 766 223 c 1
 790 237 l 1
 815 250 l 1
 827 255 839 257 852 257 c 0
 897 257 923 224 931 179 c 1
 942 197 952 212 962 225 c 0
 981 250 1007 262 1038 263 c 0
 1052 263 1066 240 1066 223 c 1
 1090 237 l 1
 1115 250 l 1
 1127 255 1139 257 1152 257 c 0
 1206 257 1232 209 1233 152 c 0
 1233 105 1222 84 1201 58 c 0
 1178 29 1146 1 1100 1 c 0
862 169 m 1
 862 195 852 215 826 215 c 0
 812 215 802 210 797 201 c 0
 785 180 775 156 768 129 c 0
 761 99 758 78 758 67 c 0
 758 43 765 31 780 31 c 0
 807 31 821 42 832 58 c 1
 852 91 854 90 858 130 c 0
 860 148 861 161 862 169 c 1
562 169 m 1
 562 195 552 215 526 215 c 0
 512 215 502 210 497 201 c 0
 485 180 475 156 468 129 c 0
 461 99 458 78 458 67 c 0
 458 43 465 31 480 31 c 0
 507 31 521 42 532 58 c 1
 552 91 554 90 558 130 c 0
 560 148 561 161 562 169 c 1
262 169 m 1
 262 195 252 215 226 215 c 0
 212 215 202 210 197 201 c 0
 185 180 175 156 168 129 c 0
 161 99 158 78 158 67 c 0
 158 43 165 31 180 31 c 0
 207 31 221 42 232 58 c 1
 252 91 254 90 258 130 c 0
 260 148 261 161 262 169 c 1
EndSplineSet
EndChar

StartChar: uniE528
Encoding: 58664 58664 121
Width: 1500
VWidth: 2048
Flags: HW
LayerCount: 2
Fore
SplineSet
1462 169 m 1
 1462 195 1452 215 1426 215 c 0
 1412 215 1402 210 1397 201 c 0
 1385 180 1375 156 1368 129 c 0
 1361 99 1358 78 1358 67 c 0
 1358 43 1365 31 1380 31 c 0
 1407 31 1421 42 1432 58 c 1
 1452 91 1454 90 1458 130 c 0
 1460 148 1461 161 1462 169 c 1
1400 1 m 0
 1378 1 1350 19 1339 35 c 1
 1283 -123 l 1
 1280 -127 l 1
 1283 -134 1287 -137 1292 -138 c 1
 1324 -138 l 1
 1324 -167 l 1
 1151 -167 l 1
 1151 -138 l 1
 1172 -138 l 2
 1176 -138 1181 -136 1186 -133 c 1
 1190 -129 1193 -124 1195 -119 c 2
 1314 212 l 1
 1314 218 l 1
 1311 228 l 1
 1305 231 l 1
 1282 231 1267 206 1257 188 c 1
 1246 171 l 2
 1241 162 1237 154 1233 145 c 1
 1232 103 1221 83 1201 58 c 0
 1178 29 1146 1 1100 1 c 0
 1078 1 1050 19 1039 35 c 1
 983 -123 l 1
 980 -127 l 1
 983 -134 987 -137 992 -138 c 1
 1024 -138 l 1
 1024 -167 l 1
 851 -167 l 1
 851 -138 l 1
 872 -138 l 2
 876 -138 881 -136 886 -133 c 1
 890 -129 893 -124 895 -119 c 2
 1014 212 l 1
 1014 218 l 1
 1011 228 l 1
 1005 231 l 1
 982 231 967 206 957 188 c 1
 946 171 l 2
 941 162 937 154 933 145 c 1
 932 103 921 83 901 58 c 0
 878 29 846 1 800 1 c 0
 778 1 750 19 739 35 c 1
 683 -123 l 1
 680 -127 l 1
 683 -134 687 -137 692 -138 c 1
 724 -138 l 1
 724 -167 l 1
 551 -167 l 1
 551 -138 l 1
 572 -138 l 2
 576 -138 581 -136 586 -133 c 1
 590 -129 593 -124 595 -119 c 2
 714 212 l 1
 714 218 l 1
 711 228 l 1
 705 231 l 1
 682 231 667 206 657 188 c 1
 646 171 l 2
 641 162 637 154 633 145 c 1
 632 103 621 83 601 58 c 0
 578 29 546 1 500 1 c 0
 478 1 450 19 439 35 c 1
 383 -123 l 1
 380 -127 l 1
 383 -134 387 -137 392 -138 c 1
 424 -138 l 1
 424 -167 l 1
 251 -167 l 1
 251 -138 l 1
 272 -138 l 2
 276 -138 281 -136 286 -133 c 1
 290 -129 293 -124 295 -119 c 2
 414 212 l 1
 414 218 l 1
 411 228 l 1
 405 231 l 1
 382 231 367 206 357 188 c 1
 346 171 l 2
 341 162 337 154 333 145 c 1
 332 103 321 83 301 58 c 0
 278 29 246 1 200 1 c 0
 178 1 150 19 139 35 c 1
 83 -123 l 1
 80 -127 l 1
 83 -134 87 -137 92 -138 c 1
 124 -138 l 1
 124 -167 l 1
 -49 -167 l 1
 -49 -138 l 1
 -28 -138 l 2
 -24 -138 -19 -136 -14 -133 c 1
 -10 -129 -7 -124 -5 -119 c 2
 114 212 l 1
 114 218 l 1
 111 228 l 1
 105 231 l 1
 82 231 67 206 57 188 c 1
 46 171 l 1
 38 156 31 140 23 124 c 1
 0 124 l 1
 22 167 43 200 62 225 c 0
 81 250 107 262 138 263 c 0
 152 263 166 240 166 223 c 1
 190 237 l 1
 215 250 l 1
 227 255 239 257 252 257 c 0
 297 257 323 224 331 179 c 1
 342 197 352 212 362 225 c 0
 381 250 407 262 438 263 c 0
 452 263 466 240 466 223 c 1
 490 237 l 1
 515 250 l 1
 527 255 539 257 552 257 c 0
 597 257 623 224 631 179 c 1
 642 197 652 212 662 225 c 0
 681 250 707 262 738 263 c 0
 752 263 766 240 766 223 c 1
 790 237 l 1
 815 250 l 1
 827 255 839 257 852 257 c 0
 897 257 923 224 931 179 c 1
 942 197 952 212 962 225 c 0
 981 250 1007 262 1038 263 c 0
 1052 263 1066 240 1066 223 c 1
 1090 237 l 1
 1115 250 l 1
 1127 255 1139 257 1152 257 c 0
 1197 257 1223 224 1231 179 c 1
 1242 197 1252 212 1262 225 c 0
 1281 250 1307 262 1338 263 c 0
 1352 263 1366 240 1366 223 c 1
 1390 237 l 1
 1415 250 l 1
 1427 255 1439 257 1452 257 c 0
 1506 257 1532 209 1533 152 c 0
 1533 105 1522 84 1501 58 c 0
 1478 29 1446 1 1400 1 c 0
1162 169 m 1
 1162 195 1152 215 1126 215 c 0
 1112 215 1102 210 1097 201 c 0
 1085 180 1075 156 1068 129 c 0
 1061 99 1058 78 1058 67 c 0
 1058 43 1065 31 1080 31 c 0
 1107 31 1121 42 1132 58 c 1
 1152 91 1154 90 1158 130 c 0
 1160 148 1161 161 1162 169 c 1
862 169 m 1
 862 195 852 215 826 215 c 0
 812 215 802 210 797 201 c 0
 785 180 775 156 768 129 c 0
 761 99 758 78 758 67 c 0
 758 43 765 31 780 31 c 0
 807 31 821 42 832 58 c 1
 852 91 854 90 858 130 c 0
 860 148 861 161 862 169 c 1
562 169 m 1
 562 195 552 215 526 215 c 0
 512 215 502 210 497 201 c 0
 485 180 475 156 468 129 c 0
 461 99 458 78 458 67 c 0
 458 43 465 31 480 31 c 0
 507 31 521 42 532 58 c 1
 552 91 554 90 558 130 c 0
 560 148 561 161 562 169 c 1
262 169 m 1
 262 195 252 215 226 215 c 0
 212 215 202 210 197 201 c 0
 185 180 175 156 168 129 c 0
 161 99 158 78 158 67 c 0
 158 43 165 31 180 31 c 0
 207 31 221 42 232 58 c 1
 252 91 254 90 258 130 c 0
 260 148 261 161 262 169 c 1
EndSplineSet
EndChar

StartChar: uniE533
Encoding: 58675 58675 122
Width: 1390
VWidth: 2048
Flags: HW
LayerCount: 2
Fore
SplineSet
1014 -140 m 0
 1014 -108 1029 -69 1063 -69 c 0
 1084 -69 1098 -100 1098 -120 c 0
 1098 -140 1085 -152 1077 -165 c 0
 1073 -172 1064 -179 1064 -184 c 0
 1064 -187 1067 -189 1075 -190 c 0
 1094 -190 1109 -176 1122 -149 c 0
 1135 -122 1150 -82 1157 -49 c 2
 1171 12 l 1
 1215 220 l 1
 1071 220 l 1
 1052 111 1011 -35 968 -117 c 0
 944 -163 904 -223 851 -223 c 0
 806 -223 780 -186 780 -140 c 0
 780 -108 795 -69 829 -69 c 0
 850 -69 864 -100 864 -120 c 0
 864 -140 851 -152 843 -165 c 0
 839 -172 830 -179 830 -184 c 0
 830 -187 833 -189 841 -190 c 0
 876 -190 895 -135 908 -101 c 0
 915 -83 920 -66 923 -49 c 0
 944 39 962 130 981 220 c 1
 838 220 l 1
 831 176 823 136 812 99 c 0
 794 24 773 -42 746 -98 c 0
 720 -146 690 -203 635 -221 c 1
 617 -223 l 2
 582 -223 564 -200 555 -169 c 0
 551 -159 549 -148 549 -136 c 0
 553 -99 564 -79 595 -69 c 1
 618 -69 630 -92 631 -116 c 0
 631 -124 627 -139 622 -147 c 2
 612 -162 l 2
 605 -172 604 -174 599 -183 c 0
 599 -188 602 -190 609 -190 c 0
 628 -190 644 -176 657 -148 c 0
 670 -116 680 -88 690 -51 c 0
 704 11 717 72 731 134 c 2
 749 220 l 1
 609 220 l 1
 595 131 549 -36 516 -98 c 0
 501 -129 486 -155 469 -177 c 0
 452 -199 431 -214 404 -221 c 2
 386 -223 l 1
 342 -223 319 -183 319 -136 c 0
 319 -97 337 -83 364 -69 c 0
 370 -69 375 -70 378 -73 c 0
 393 -79 401 -98 401 -118 c 0
 401 -133 390 -154 369 -183 c 0
 369 -188 372 -190 378 -190 c 0
 412 -190 439 -144 460 -51 c 0
 481 38 500 130 519 220 c 1
 378 220 l 1
 365 135 316 -35 285 -98 c 0
 252 -170 215 -211 175 -221 c 1
 156 -223 l 2
 121 -223 105 -199 93 -169 c 1
 88 -136 l 1
 93 -97 101 -81 134 -69 c 1
 157 -69 172 -95 172 -118 c 0
 172 -126 170 -134 166 -141 c 2
 152 -164 l 1
 138 -183 l 2
 138 -188 141 -190 148 -190 c 0
 159 -190 169 -185 178 -175 c 0
 196 -160 204 -129 215 -104 c 2
 230 -51 l 1
 247 26 264 104 280 182 c 0
 283 195 286 208 289 220 c 1
 229 220 l 1
 229 220 l 1
 148 220 l 1
 129 111 88 -35 45 -117 c 0
 21 -163 -19 -223 -72 -223 c 0
 -117 -223 -143 -186 -143 -140 c 0
 -143 -108 -128 -69 -94 -69 c 0
 -73 -69 -59 -100 -59 -120 c 0
 -59 -140 -72 -152 -80 -165 c 0
 -85 -172 -88 -177 -91 -179 c 0
 -97 -186 -92 -189 -82 -190 c 0
 -47 -190 -28 -135 -15 -101 c 0
 -8 -83 -3 -66 0 -49 c 0
 21 39 39 130 58 220 c 1
 0 220 l 1
 0 258 l 1
 70 258 l 1
 83 296 93 323 110 349 c 0
 131 379 152 402 175 418 c 0
 198 434 223 442 250 442 c 0
 278 442 296 428 301 404 c 2
 305 388 l 1
 305 355 304 352 292 328 c 0
 289 321 275 303 261 301 c 0
 258 301 255 300 253 300 c 0
 234 300 228 313 225 332 c 0
 225 359 236 376 254 388 c 2
 268 398 l 1
 268 410 257 414 245 414 c 0
 234 414 222 410 216 406 c 0
 186 385 168 303 156 258 c 1
 226 258 l 1
 226 258 l 1
 306 258 l 1
 315 291 324 320 341 347 c 0
 358 375 379 398 404 417 c 0
 429 434 457 442 487 442 c 0
 520 442 536 412 536 376 c 0
 536 338 517 306 486 300 c 0
 469 300 459 311 457 332 c 0
 457 359 474 385 494 394 c 0
 497 394 499 396 499 400 c 2
 493 409 l 2
 488 412 482 414 475 414 c 0
 452 414 434 398 420 366 c 0
 406 334 395 299 388 260 c 1
 532 260 l 1
 555 344 617 442 717 442 c 0
 753 442 764 411 766 376 c 0
 766 358 762 341 753 325 c 0
 745 313 733 305 716 300 c 1
 698 300 688 311 686 332 c 0
 686 361 704 383 723 394 c 0
 726 394 728 396 728 400 c 0
 724 410 717 414 705 414 c 0
 668 414 638 362 617 258 c 1
 761 258 l 1
 776 307 800 351 833 390 c 0
 864 426 902 444 947 444 c 0
 981 444 996 408 996 374 c 0
 996 337 977 306 945 300 c 0
 929 300 920 311 918 332 c 0
 918 358 936 384 953 394 c 0
 957 394 959 396 959 400 c 0
 954 409 948 414 935 414 c 0
 898 414 868 362 847 258 c 1
 993 258 l 1
 1006 296 1016 323 1033 349 c 0
 1054 379 1075 402 1098 418 c 0
 1121 434 1146 442 1173 442 c 0
 1201 442 1219 428 1224 404 c 2
 1228 388 l 1
 1228 355 1227 352 1215 328 c 0
 1212 321 1198 303 1184 301 c 0
 1181 301 1178 300 1176 300 c 0
 1156 300 1151 314 1148 332 c 0
 1148 359 1159 376 1177 388 c 2
 1191 398 l 1
 1191 410 1180 414 1168 414 c 0
 1157 414 1145 410 1139 406 c 0
 1130 399 1120 385 1110 363 c 0
 1103 345 1084 277 1079 258 c 1
 1227 258 l 1
 1234 279 1240 294 1245 305 c 0
 1265 353 1298 394 1332 418 c 0
 1355 434 1380 442 1407 442 c 0
 1416 442 1424 441 1430 439 c 0
 1441 435 1455 417 1458 404 c 2
 1462 388 l 1
 1462 355 1461 352 1449 328 c 0
 1446 321 1432 303 1418 301 c 0
 1415 301 1412 300 1410 300 c 0
 1390 300 1385 314 1382 332 c 0
 1382 359 1393 376 1411 388 c 2
 1425 398 l 1
 1425 410 1414 414 1402 414 c 0
 1391 414 1379 410 1373 406 c 0
 1364 399 1354 385 1344 363 c 0
 1337 345 1318 279 1313 260 c 1
 1390 260 l 1
 1390 220 l 1
 1305 220 l 1
 1286 111 1245 -35 1202 -117 c 0
 1178 -163 1138 -223 1085 -223 c 0
 1040 -223 1014 -186 1014 -140 c 0
EndSplineSet
EndChar

StartChar: uniE52C
Encoding: 58668 58668 123
Width: 711
VWidth: 2048
Flags: HW
LayerCount: 2
Fore
SplineSet
605 1 m 0
 583 1 555 19 544 35 c 1
 488 -123 l 1
 485 -127 l 1
 488 -134 492 -137 497 -138 c 2
 529 -138 l 1
 529 -167 l 1
 356 -167 l 1
 356 -138 l 1
 377 -138 l 2
 381 -138 386 -136 391 -133 c 1
 395 -129 398 -124 400 -119 c 2
 519 212 l 1
 519 218 l 1
 516 228 l 1
 510 231 l 1
 487 231 472 206 462 188 c 1
 451 171 l 1
 441 151 l 1
 428 121 416 91 404 61 c 0
 395 39 373 16 360 3 c 0
 347 -10 331 -17 314 -18 c 1
 296 -18 280 -13 265 -4 c 1
 249 11 l 1
 246 18 244 23 244 28 c 1
 264 91 288 152 309 214 c 1
 309 221 304 226 294 227 c 1
 278 227 263 212 250 182 c 1
 186 0 l 1
 115 0 l 1
 192 214 l 1
 192 223 186 227 175 227 c 0
 166 227 158 223 153 216 c 0
 148 209 141 197 133 182 c 1
 69 0 l 1
 0 0 l 1
 77 210 l 1
 77 214 l 2
 77 224 72 226 65 230 c 1
 40 230 13 183 -1 157 c 0
 -6 148 -13 134 -22 115 c 1
 -44 115 l 1
 -25 154 -4 191 20 222 c 0
 41 249 67 262 99 262 c 0
 120 262 130 243 133 221 c 1
 152 238 167 248 178 253 c 0
 189 259 202 262 217 262 c 0
 238 262 249 243 252 221 c 1
 274 238 301 262 337 262 c 0
 358 262 380 248 380 227 c 2
 380 220 l 1
 317 37 l 1
 317 24 321 17 329 16 c 0
 337 16 346 21 355 31 c 0
 364 41 370 47 371 48 c 0
 375 55 390 80 391 83 c 2
 418 148 l 1
 440 191 448 200 467 225 c 0
 486 250 512 262 543 263 c 0
 557 263 571 240 571 223 c 1
 595 237 l 1
 620 250 l 1
 632 255 644 257 657 257 c 0
 711 257 737 209 738 152 c 0
 738 105 727 84 706 58 c 0
 683 29 651 1 605 1 c 0
667 169 m 0
 667 195 657 215 631 215 c 0
 617 215 607 210 602 201 c 0
 590 180 580 156 573 129 c 1
 566 99 563 78 563 67 c 0
 563 43 570 31 585 31 c 0
 612 31 626 42 637 58 c 1
 657 91 659 90 663 130 c 0
 665 148 666 161 667 169 c 0
EndSplineSet
EndChar

StartChar: uniE52D
Encoding: 58669 58669 124
Width: 637
VWidth: 2048
Flags: HW
LayerCount: 2
Fore
SplineSet
311 -69 m 0
 332 -69 346 -100 346 -120 c 0
 346 -140 333 -152 325 -165 c 128
 320 -172 317 -177 314 -179 c 0
 308 -186 313 -189 323 -190 c 1
 358 -190 377 -135 390 -101 c 128
 397 -83 402 -66 405 -49 c 0
 426 39 444 130 463 220 c 1
 405 220 l 1
 405 258 l 1
 475 258 l 1
 488 296 498 323 515 349 c 0
 536 379 557 402 580 418 c 128
 603 434 628 442 655 442 c 0
 683 442 701 428 706 404 c 2
 710 388 l 1
 710 355 709 352 697 328 c 0
 694 321 680 303 666 301 c 128
 661 300 656 300 649 301 c 0
 636 304 632 319 630 332 c 1
 630 359 641 376 659 388 c 2
 673 398 l 1
 673 407 667 412 655 414 c 0
 653 414 651 414 649 414 c 0
 638 414 629 412 621 406 c 128
 612 399 602 385 592 363 c 1
 585 345 566 279 561 260 c 1
 638 260 l 1
 638 220 l 1
 553 220 l 1
 534 111 493 -35 450 -117 c 0
 426 -163 386 -223 333 -223 c 0
 288 -223 262 -186 262 -140 c 0
 262 -108 277 -69 311 -69 c 0
337 262 m 0
 358 262 380 248 380 227 c 2
 380 220 l 1
 317 37 l 1
 317 24 321 17 329 16 c 0
 337 16 346 21 355 31 c 128
 364 41 370 47 371 48 c 0
 375 55 390 80 391 83 c 2
 405 124 l 1
 428 124 l 1
 404 61 l 2
 396 39 373 16 360 3 c 128
 347 -10 331 -17 314 -18 c 1
 296 -18 280 -13 265 -4 c 1
 249 11 l 1
 246 18 244 23 244 28 c 1
 264 91 288 152 309 214 c 1
 309 221 304 226 294 227 c 1
 278 227 263 212 250 182 c 1
 186 0 l 1
 115 0 l 1
 192 214 l 1
 192 223 186 227 175 227 c 0
 166 227 158 223 153 216 c 128
 148 209 141 197 133 182 c 1
 69 0 l 1
 0 0 l 1
 77 210 l 1
 77 214 l 2
 77 224 72 226 65 230 c 1
 40 230 13 183 -1 157 c 0
 -6 148 -13 134 -22 115 c 1
 -44 115 l 1
 -25 154 -4 191 20 222 c 0
 41 249 67 262 99 262 c 0
 120 262 130 243 133 221 c 1
 152 238 167 248 178 253 c 0
 189 259 202 262 217 262 c 0
 238 262 249 243 252 221 c 1
 274 238 301 262 337 262 c 0
EndSplineSet
EndChar

StartChar: uniE52E
Encoding: 58670 58670 125
Width: 306
VWidth: 2048
Flags: HW
LayerCount: 2
Fore
SplineSet
239 -69 m 4
 260 -69 274 -100 274 -120 c 4
 274 -140 261 -152 253 -165 c 132
 248 -172 245 -177 242 -179 c 4
 236 -186 241 -189 251 -190 c 5
 286 -190 305 -135 318 -101 c 132
 325 -83 330 -66 333 -49 c 4
 354 39 372 130 391 220 c 5
 333 220 l 5
 333 258 l 5
 403 258 l 5
 416 296 426 323 443 349 c 4
 464 379 485 402 508 418 c 132
 531 434 556 442 583 442 c 4
 611 442 629 428 634 404 c 6
 638 388 l 5
 638 355 637 352 625 328 c 4
 622 321 608 303 594 301 c 132
 589 300 584 300 577 301 c 4
 564 304 560 319 558 332 c 5
 558 359 569 376 587 388 c 6
 601 398 l 5
 601 407 595 412 583 414 c 4
 581 414 579 414 577 414 c 0
 566 414 557 412 549 406 c 132
 540 399 530 385 520 363 c 5
 513 345 494 279 489 260 c 5
 566 260 l 5
 566 220 l 5
 481 220 l 5
 462 111 421 -35 378 -117 c 4
 354 -163 314 -223 261 -223 c 4
 216 -223 190 -186 190 -140 c 4
 190 -108 205 -69 239 -69 c 4
200 1 m 0
 178 1 150 19 139 35 c 1
 83 -123 l 1
 80 -127 l 1
 83 -134 87 -137 92 -138 c 2
 124 -138 l 1
 124 -167 l 1
 -49 -167 l 1
 -49 -138 l 1
 -28 -138 l 2
 -24 -138 -19 -136 -14 -133 c 1
 -10 -129 -7 -124 -5 -119 c 2
 114 212 l 1
 114 218 l 1
 111 228 l 1
 105 231 l 1
 82 231 67 206 57 188 c 1
 46 171 l 1
 38 156 31 140 23 124 c 1
 0 124 l 1
 22 167 43 200 62 225 c 128
 81 250 107 262 138 263 c 0
 152 263 166 240 166 223 c 1
 190 237 l 1
 215 250 l 1
 227 255 239 257 252 257 c 0
 306 257 332 209 333 152 c 0
 333 105 322 84 301 58 c 0
 278 29 246 1 200 1 c 0
262 169 m 0
 262 195 252 215 226 215 c 0
 212 215 202 210 197 201 c 0
 185 180 175 156 168 129 c 1
 161 99 158 78 158 67 c 0
 158 43 165 31 180 31 c 0
 207 31 221 42 232 58 c 1
 252 91 254 90 258 130 c 128
 260 148 261 161 262 169 c 0
EndSplineSet
EndChar

StartChar: uniE534
Encoding: 58676 58676 126
Width: 532
VWidth: 2048
Flags: HW
LayerCount: 2
Fore
SplineSet
432 1 m 0
 410 1 382 19 371 35 c 1
 315 -123 l 1
 312 -127 l 1
 315 -134 319 -137 324 -138 c 2
 356 -138 l 1
 356 -167 l 1
 183 -167 l 1
 183 -138 l 1
 204 -138 l 2
 208 -138 213 -136 218 -133 c 1
 222 -129 225 -124 227 -119 c 2
 346 212 l 1
 346 218 l 1
 343 228 l 1
 337 231 l 1
 314 231 299 206 289 188 c 1
 278 171 l 1
 270 156 263 140 255 124 c 1
 232 124 l 1
 254 167 275 200 294 225 c 128
 313 250 339 262 370 263 c 0
 384 263 398 240 398 223 c 1
 422 237 l 1
 447 250 l 1
 459 255 471 257 484 257 c 0
 538 257 564 209 565 152 c 0
 565 105 554 84 533 58 c 0
 510 29 478 1 432 1 c 0
494 169 m 0
 494 195 484 215 458 215 c 0
 444 215 434 210 429 201 c 0
 417 180 407 156 400 129 c 1
 393 99 390 78 390 67 c 0
 390 43 397 31 412 31 c 0
 439 31 453 42 464 58 c 1
 484 91 486 90 490 130 c 128
 492 148 493 161 494 169 c 0
-94 -69 m 0
 -73 -69 -59 -100 -59 -120 c 0
 -59 -140 -72 -152 -80 -165 c 128
 -85 -172 -88 -177 -91 -179 c 0
 -97 -186 -92 -189 -82 -190 c 1
 -47 -190 -28 -135 -15 -101 c 128
 -8 -83 -3 -66 0 -49 c 0
 21 39 39 130 58 220 c 1
 0 220 l 1
 0 258 l 1
 70 258 l 1
 83 296 93 323 110 349 c 0
 131 379 152 402 175 418 c 128
 198 434 223 442 250 442 c 0
 278 442 296 428 301 404 c 2
 305 388 l 1
 305 355 304 352 292 328 c 0
 289 321 275 303 261 301 c 128
 256 300 251 300 244 301 c 0
 231 304 227 319 225 332 c 1
 225 359 236 376 254 388 c 0
 261 393 261 393 268 398 c 1
 268 407 262 412 250 414 c 0
 248 414 246 414 244 414 c 0
 233 414 224 412 216 406 c 128
 207 399 197 385 187 363 c 1
 180 345 161 279 156 260 c 1
 233 260 l 1
 233 220 l 1
 148 220 l 1
 129 111 88 -35 45 -117 c 0
 21 -163 -19 -223 -72 -223 c 0
 -117 -223 -143 -186 -143 -140 c 0
 -143 -108 -128 -69 -94 -69 c 0
EndSplineSet
EndChar

StartChar: uniE535
Encoding: 58677 58677 127
Width: 492
VWidth: 2048
Flags: HW
LayerCount: 2
Fore
SplineSet
405 115 m 4
 426 115 439 92 439 67 c 4
 439 44 431 25 415 9 c 5
 400 -8 376 -16 342 -16 c 4
 330 -16 321 -15 315 -12 c 6
 303 -6 l 5
 286 4 l 5
 271 11 262 14 257 14 c 4
 248 14 238 9 227 0 c 5
 196 0 l 5
 196 16 l 5
 405 193 l 5
 341 192 l 5
 318 189 309 177 297 162 c 5
 273 162 l 5
 303 249 l 5
 492 249 l 5
 492 217 l 5
 281 54 l 5
 294 60 307 63 320 63 c 4
 334 63 373 45 383 43 c 5
 392 44 397 51 397 62 c 5
 384 62 377 70 375 85 c 5
 375 102 388 115 405 115 c 4
-94 -69 m 4
 -73 -69 -59 -100 -59 -120 c 4
 -59 -140 -72 -152 -80 -165 c 132
 -85 -172 -88 -177 -91 -179 c 4
 -97 -186 -92 -189 -82 -190 c 5
 -47 -190 -28 -135 -15 -101 c 132
 -8 -83 -3 -66 0 -49 c 4
 21 39 39 130 58 220 c 5
 0 220 l 5
 0 258 l 5
 70 258 l 5
 83 296 93 323 110 349 c 4
 131 379 152 402 175 418 c 132
 198 434 223 442 250 442 c 4
 278 442 296 428 301 404 c 6
 305 388 l 5
 305 355 304 352 292 328 c 4
 289 321 275 303 261 301 c 132
 256 300 251 300 244 301 c 4
 231 304 227 319 225 332 c 5
 225 359 236 376 254 388 c 4
 261 393 261 393 268 398 c 5
 268 407 262 412 250 414 c 4
 248 414 246 414 244 414 c 0
 233 414 224 412 216 406 c 132
 207 399 197 385 187 363 c 5
 180 345 161 279 156 260 c 5
 233 260 l 5
 233 220 l 5
 148 220 l 5
 129 111 88 -35 45 -117 c 4
 21 -163 -19 -223 -72 -223 c 4
 -117 -223 -143 -186 -143 -140 c 4
 -143 -108 -128 -69 -94 -69 c 4
EndSplineSet
EndChar

StartChar: uniE536
Encoding: 58678 58678 128
Width: 428
VWidth: 2048
Flags: HW
LayerCount: 2
Fore
SplineSet
100 -69 m 4
 121 -69 135 -100 135 -120 c 4
 135 -140 122 -152 114 -165 c 4
 109 -172 106 -177 103 -179 c 4
 97 -186 102 -189 112 -190 c 5
 147 -190 166 -135 179 -101 c 4
 186 -83 191 -66 194 -49 c 4
 215 39 233 130 252 220 c 5
 194 220 l 5
 194 258 l 5
 264 258 l 5
 277 296 287 323 304 349 c 4
 325 379 346 402 369 418 c 4
 392 434 417 442 444 442 c 4
 472 442 490 428 495 404 c 6
 499 388 l 5
 499 355 498 352 486 328 c 4
 483 321 469 303 455 301 c 4
 452 301 449 300 447 300 c 0
 428 300 422 313 419 332 c 5
 419 359 430 376 448 388 c 4
 455 393 455 393 462 398 c 5
 462 410 451 414 439 414 c 0
 428 414 416 410 410 406 c 4
 381 385 362 304 350 260 c 5
 427 260 l 5
 427 220 l 5
 342 220 l 5
 323 111 282 -35 239 -117 c 4
 215 -163 175 -223 122 -223 c 4
 77 -223 51 -186 51 -140 c 4
 51 -108 66 -69 100 -69 c 4
81 33 m 6
 102 33 119 48 121 67 c 5
 121 85 109 97 94 107 c 5
 72 120 56 133 47 145 c 4
 38 157 33 171 32 188 c 5
 32 238 72 270 119 270 c 5
 147 267 l 5
 156 264 164 260 171 254 c 5
 186 245 194 230 194 211 c 5
 193 201 l 5
 187 191 l 6
 184 186 179 182 170 181 c 5
 153 181 144 189 141 205 c 5
 145 224 l 5
 145 234 131 240 121 242 c 4
 120 242 118 242 117 242 c 0
 100 242 89 225 86 206 c 5
 86 199 90 191 97 184 c 5
 106 177 115 170 123 163 c 4
 151 140 166 126 167 123 c 5
 175 113 179 100 179 84 c 6
 179 74 l 6
 179 53 169 35 150 20 c 5
 134 10 112 2 89 0 c 5
 42 0 0 26 0 67 c 5
 1 82 l 5
 6 95 l 5
 16 104 l 5
 29 108 l 5
 45 108 53 98 53 77 c 4
 53 64 48 61 45 49 c 5
 45 41 56 33 68 33 c 6
 81 33 l 6
EndSplineSet
EndChar

StartChar: uniE537
Encoding: 58679 58679 129
Width: 728
VWidth: 2048
Flags: HW
LayerCount: 2
Fore
SplineSet
628 1 m 0
 606 1 578 19 567 35 c 1
 511 -123 l 1
 508 -127 l 1
 511 -134 515 -137 520 -138 c 2
 552 -138 l 1
 552 -167 l 1
 379 -167 l 1
 379 -138 l 1
 400 -138 l 2
 404 -138 409 -136 414 -133 c 1
 418 -129 421 -124 423 -119 c 2
 542 212 l 1
 542 218 l 1
 539 228 l 1
 533 231 l 1
 510 231 495 206 485 188 c 1
 474 171 l 1
 466 156 459 140 451 124 c 1
 428 124 l 1
 450 167 471 200 490 225 c 128
 509 250 535 262 566 263 c 0
 580 263 594 240 594 223 c 1
 618 237 l 1
 643 250 l 1
 655 255 667 257 680 257 c 0
 734 257 760 209 761 152 c 0
 761 105 750 84 729 58 c 0
 706 29 674 1 628 1 c 0
690 169 m 0
 690 195 680 215 654 215 c 0
 640 215 630 210 625 201 c 0
 613 180 603 156 596 129 c 1
 589 99 586 78 586 67 c 0
 586 43 593 31 608 31 c 0
 635 31 649 42 660 58 c 1
 680 91 682 90 686 130 c 128
 688 148 689 161 690 169 c 0
100 -69 m 0
 121 -69 135 -100 135 -120 c 0
 135 -140 122 -152 114 -165 c 0
 109 -172 106 -177 103 -179 c 0
 97 -186 102 -189 112 -190 c 1
 147 -190 166 -135 179 -101 c 0
 186 -83 191 -66 194 -49 c 0
 215 39 233 130 252 220 c 1
 194 220 l 1
 194 258 l 1
 264 258 l 1
 277 296 287 323 304 349 c 0
 325 379 346 402 369 418 c 0
 392 434 417 442 444 442 c 0
 472 442 490 428 495 404 c 2
 499 388 l 1
 499 355 498 352 486 328 c 0
 483 321 469 303 455 301 c 0
 452 301 449 300 447 300 c 0
 428 300 422 313 419 332 c 1
 419 359 430 376 448 388 c 0
 455 393 455 393 462 398 c 1
 462 410 451 414 439 414 c 0
 428 414 416 410 410 406 c 0
 381 385 362 304 350 260 c 1
 427 260 l 1
 427 220 l 1
 342 220 l 1
 323 111 282 -35 239 -117 c 0
 215 -163 175 -223 122 -223 c 0
 77 -223 51 -186 51 -140 c 0
 51 -108 66 -69 100 -69 c 0
81 33 m 2
 102 33 119 48 121 67 c 1
 121 85 109 97 94 107 c 1
 72 120 56 133 47 145 c 0
 38 157 33 171 32 188 c 1
 32 238 72 270 119 270 c 1
 147 267 l 1
 156 264 164 260 171 254 c 1
 186 245 194 230 194 211 c 1
 193 201 l 1
 187 191 l 2
 184 186 179 182 170 181 c 1
 153 181 144 189 141 205 c 1
 145 224 l 1
 145 234 131 240 121 242 c 0
 120 242 118 242 117 242 c 0
 100 242 89 225 86 206 c 1
 86 199 90 191 97 184 c 1
 106 177 115 170 123 163 c 0
 151 140 166 126 167 123 c 1
 175 113 179 100 179 84 c 2
 179 74 l 2
 179 53 169 35 150 20 c 1
 134 10 112 2 89 0 c 1
 42 0 0 26 0 67 c 1
 1 82 l 1
 6 95 l 1
 16 104 l 1
 29 108 l 1
 45 108 53 98 53 77 c 0
 53 64 48 61 45 49 c 1
 45 41 56 33 68 33 c 2
 81 33 l 2
EndSplineSet
EndChar

StartChar: uniE538
Encoding: 58680 58680 130
Width: 1028
VWidth: 2048
Flags: HW
LayerCount: 2
Fore
SplineSet
990 169 m 1
 990 195 980 215 954 215 c 0
 940 215 930 210 925 201 c 0
 913 180 903 156 896 129 c 0
 889 99 886 78 886 67 c 0
 886 43 893 31 908 31 c 0
 935 31 949 42 960 58 c 1
 980 91 982 90 986 130 c 0
 988 148 989 161 990 169 c 1
690 169 m 1
 690 195 680 215 654 215 c 0
 640 215 630 210 625 201 c 0
 613 180 603 156 596 129 c 0
 589 99 586 78 586 67 c 0
 586 43 593 31 608 31 c 0
 635 31 649 42 660 58 c 1
 680 91 682 90 686 130 c 0
 688 148 689 161 690 169 c 1
628 1 m 0
 606 1 578 19 567 35 c 1
 511 -123 l 1
 508 -127 l 1
 511 -134 515 -137 520 -138 c 1
 552 -138 l 1
 552 -167 l 1
 379 -167 l 1
 379 -138 l 1
 400 -138 l 2
 404 -138 409 -136 414 -133 c 1
 418 -129 421 -124 423 -119 c 2
 542 212 l 1
 542 218 l 1
 539 228 l 1
 533 231 l 1
 510 231 495 206 485 188 c 1
 474 171 l 1
 466 156 459 140 451 124 c 1
 428 124 l 1
 450 167 471 200 490 225 c 0
 509 250 535 262 566 263 c 0
 580 263 594 240 594 223 c 1
 618 237 l 1
 643 250 l 1
 655 255 667 257 680 257 c 0
 725 257 752 222 759 179 c 1
 784 220 810 262 866 263 c 0
 880 263 894 240 894 223 c 1
 918 237 l 1
 943 250 l 1
 955 255 967 257 980 257 c 0
 1034 257 1060 209 1061 152 c 0
 1061 105 1050 84 1029 58 c 0
 1006 29 974 1 928 1 c 0
 906 1 878 19 867 35 c 1
 811 -123 l 1
 808 -127 l 1
 811 -134 815 -137 820 -138 c 1
 852 -138 l 1
 852 -167 l 1
 679 -167 l 1
 679 -138 l 1
 700 -138 l 2
 704 -138 709 -136 714 -133 c 1
 718 -129 721 -124 723 -119 c 2
 842 212 l 1
 842 218 l 1
 839 228 l 1
 833 231 l 1
 810 231 795 206 785 188 c 1
 774 171 l 1
 770 162 765 154 761 145 c 1
 760 102 749 83 729 58 c 0
 706 29 674 1 628 1 c 0
100 -69 m 0
 121 -69 135 -100 135 -120 c 0
 135 -140 122 -152 114 -165 c 0
 109 -172 106 -177 103 -179 c 0
 97 -186 102 -189 112 -190 c 1
 147 -190 166 -136 179 -101 c 0
 186 -83 191 -66 194 -49 c 1
 215 39 233 130 252 220 c 1
 194 220 l 1
 194 258 l 1
 264 258 l 1
 277 296 287 323 304 349 c 0
 325 379 346 402 369 418 c 0
 392 434 417 442 444 442 c 0
 472 442 490 428 495 404 c 2
 499 388 l 1
 499 355 498 352 486 328 c 0
 483 321 469 303 455 301 c 0
 452 301 449 300 447 300 c 0
 428 300 423 313 419 332 c 1
 419 359 430 376 448 388 c 2
 462 398 l 1
 462 410 452 414 440 414 c 0
 429 414 416 410 410 406 c 0
 381 385 362 304 350 260 c 1
 427 260 l 1
 427 220 l 1
 342 220 l 1
 323 111 282 -35 239 -117 c 0
 215 -163 175 -223 122 -223 c 0
 77 -223 51 -186 51 -140 c 0
 51 -108 66 -69 100 -69 c 0
81 33 m 2
 102 33 119 48 121 67 c 1
 121 85 109 97 94 107 c 0
 72 120 56 133 47 145 c 0
 38 157 33 171 32 188 c 1
 32 238 72 270 119 270 c 1
 147 267 l 1
 156 264 164 260 171 254 c 1
 186 245 194 230 194 211 c 1
 193 201 l 1
 187 191 l 2
 184 186 179 182 170 181 c 1
 153 181 144 189 141 205 c 1
 145 224 l 1
 145 234 131 240 121 242 c 0
 120 242 118 242 117 242 c 0
 100 242 89 225 86 206 c 1
 86 199 90 191 97 184 c 1
 106 177 115 170 123 163 c 0
 151 140 166 126 167 123 c 1
 175 113 179 100 179 84 c 2
 179 74 l 2
 179 53 169 35 150 20 c 1
 134 10 112 2 89 0 c 1
 42 0 0 26 0 67 c 1
 1 82 l 1
 6 95 l 1
 16 104 l 1
 29 108 l 1
 45 108 53 98 53 77 c 0
 53 64 48 61 45 49 c 1
 45 41 56 33 68 33 c 2
 81 33 l 2
EndSplineSet
EndChar

StartChar: uniE53B
Encoding: 58683 58683 131
Width: 920
VWidth: 2048
Flags: HW
LayerCount: 2
Fore
SplineSet
833 115 m 0
 854 115 867 92 867 67 c 0
 867 44 859 25 843 9 c 1
 828 -8 804 -16 770 -16 c 0
 758 -16 749 -15 743 -12 c 2
 731 -6 l 1
 714 4 l 1
 699 11 690 14 685 14 c 0
 676 14 666 9 655 0 c 1
 624 0 l 1
 624 16 l 1
 833 193 l 1
 769 192 l 1
 746 189 737 177 725 162 c 1
 701 162 l 1
 731 249 l 1
 920 249 l 1
 920 217 l 1
 709 54 l 1
 722 60 735 63 748 63 c 0
 762 63 801 45 811 43 c 1
 820 44 825 51 825 62 c 1
 812 62 805 70 803 85 c 1
 803 102 816 115 833 115 c 0
334 -69 m 0
 355 -69 369 -100 369 -120 c 0
 369 -140 356 -152 348 -165 c 128
 343 -172 340 -177 337 -179 c 0
 331 -186 336 -189 346 -190 c 1
 381 -190 400 -135 413 -101 c 128
 420 -83 425 -66 428 -49 c 0
 449 39 467 130 486 220 c 1
 428 220 l 1
 428 258 l 1
 498 258 l 1
 511 296 521 323 538 349 c 0
 559 379 580 402 603 418 c 128
 626 434 651 442 678 442 c 0
 706 442 724 428 729 404 c 2
 733 388 l 1
 733 355 732 352 720 328 c 0
 717 321 703 303 689 301 c 128
 684 300 679 300 672 301 c 0
 659 304 655 319 653 332 c 1
 653 359 664 376 682 388 c 2
 696 398 l 1
 696 407 690 412 678 414 c 0
 676 414 674 414 672 414 c 0
 661 414 652 412 644 406 c 128
 635 399 625 385 615 363 c 1
 608 345 589 279 584 260 c 1
 661 260 l 1
 661 220 l 1
 576 220 l 1
 557 111 516 -35 473 -117 c 0
 449 -163 409 -223 356 -223 c 0
 311 -223 285 -186 285 -140 c 0
 285 -108 300 -69 334 -69 c 0
100 -69 m 0
 121 -69 135 -100 135 -120 c 0
 135 -140 122 -152 114 -165 c 0
 109 -172 106 -177 103 -179 c 0
 97 -186 102 -189 112 -190 c 1
 147 -190 166 -135 179 -101 c 0
 186 -83 191 -66 194 -49 c 0
 215 39 233 130 252 220 c 1
 194 220 l 1
 194 258 l 1
 264 258 l 1
 277 296 287 323 304 349 c 0
 325 379 346 402 369 418 c 0
 392 434 417 442 444 442 c 0
 472 442 490 428 495 404 c 2
 499 388 l 1
 499 355 498 352 486 328 c 0
 483 321 469 303 455 301 c 0
 452 301 449 300 447 300 c 0
 428 300 422 313 419 332 c 1
 419 359 430 376 448 388 c 0
 455 393 455 393 462 398 c 1
 462 410 451 414 439 414 c 0
 428 414 416 410 410 406 c 0
 381 385 362 304 350 260 c 1
 427 260 l 1
 427 220 l 1
 342 220 l 1
 323 111 282 -35 239 -117 c 0
 215 -163 175 -223 122 -223 c 0
 77 -223 51 -186 51 -140 c 0
 51 -108 66 -69 100 -69 c 0
81 33 m 2
 102 33 119 48 121 67 c 1
 121 85 109 97 94 107 c 1
 72 120 56 133 47 145 c 0
 38 157 33 171 32 188 c 1
 32 238 72 270 119 270 c 1
 147 267 l 1
 156 264 164 260 171 254 c 1
 186 245 194 230 194 211 c 1
 193 201 l 1
 187 191 l 2
 184 186 179 182 170 181 c 1
 153 181 144 189 141 205 c 1
 145 224 l 1
 145 234 131 240 121 242 c 0
 120 242 118 242 117 242 c 0
 100 242 89 225 86 206 c 1
 86 199 90 191 97 184 c 1
 106 177 115 170 123 163 c 0
 151 140 166 126 167 123 c 1
 175 113 179 100 179 84 c 2
 179 74 l 2
 179 53 169 35 150 20 c 1
 134 10 112 2 89 0 c 1
 42 0 0 26 0 67 c 1
 1 82 l 1
 6 95 l 1
 16 104 l 1
 29 108 l 1
 45 108 53 98 53 77 c 0
 53 64 48 61 45 49 c 1
 45 41 56 33 68 33 c 2
 81 33 l 2
EndSplineSet
EndChar

StartChar: uniE539
Encoding: 58681 58681 132
Width: 688
VWidth: 2048
Flags: HW
LayerCount: 2
Fore
SplineSet
601 115 m 4
 622 115 635 92 635 67 c 4
 635 44 627 25 611 9 c 5
 596 -8 572 -16 538 -16 c 4
 526 -16 517 -15 511 -12 c 6
 499 -6 l 5
 482 4 l 5
 467 11 458 14 453 14 c 4
 444 14 434 9 423 0 c 5
 392 0 l 5
 392 16 l 5
 601 193 l 5
 537 192 l 5
 514 189 505 177 493 162 c 5
 469 162 l 5
 499 249 l 5
 688 249 l 5
 688 217 l 5
 477 54 l 5
 490 60 503 63 516 63 c 4
 530 63 569 45 579 43 c 5
 588 44 593 51 593 62 c 5
 580 62 573 70 571 85 c 5
 571 102 584 115 601 115 c 4
100 -69 m 4
 121 -69 135 -100 135 -120 c 4
 135 -140 122 -152 114 -165 c 4
 109 -172 106 -177 103 -179 c 4
 97 -186 102 -189 112 -190 c 5
 147 -190 166 -135 179 -101 c 4
 186 -83 191 -66 194 -49 c 4
 215 39 233 130 252 220 c 5
 194 220 l 5
 194 258 l 5
 264 258 l 5
 277 296 287 323 304 349 c 4
 325 379 346 402 369 418 c 4
 392 434 417 442 444 442 c 4
 472 442 490 428 495 404 c 6
 499 388 l 5
 499 355 498 352 486 328 c 4
 483 321 469 303 455 301 c 4
 452 301 449 300 447 300 c 0
 428 300 422 313 419 332 c 5
 419 359 430 376 448 388 c 4
 455 393 455 393 462 398 c 5
 462 410 451 414 439 414 c 0
 428 414 416 410 410 406 c 4
 381 385 362 304 350 260 c 5
 427 260 l 5
 427 220 l 5
 342 220 l 5
 323 111 282 -35 239 -117 c 4
 215 -163 175 -223 122 -223 c 4
 77 -223 51 -186 51 -140 c 4
 51 -108 66 -69 100 -69 c 4
81 33 m 6
 102 33 119 48 121 67 c 5
 121 85 109 97 94 107 c 5
 72 120 56 133 47 145 c 4
 38 157 33 171 32 188 c 5
 32 238 72 270 119 270 c 5
 147 267 l 5
 156 264 164 260 171 254 c 5
 186 245 194 230 194 211 c 5
 193 201 l 5
 187 191 l 6
 184 186 179 182 170 181 c 5
 153 181 144 189 141 205 c 5
 145 224 l 5
 145 234 131 240 121 242 c 4
 120 242 118 242 117 242 c 0
 100 242 89 225 86 206 c 5
 86 199 90 191 97 184 c 5
 106 177 115 170 123 163 c 4
 151 140 166 126 167 123 c 5
 175 113 179 100 179 84 c 6
 179 74 l 6
 179 53 169 35 150 20 c 5
 134 10 112 2 89 0 c 5
 42 0 0 26 0 67 c 5
 1 82 l 5
 6 95 l 5
 16 104 l 5
 29 108 l 5
 45 108 53 98 53 77 c 4
 53 64 48 61 45 49 c 5
 45 41 56 33 68 33 c 6
 81 33 l 6
EndSplineSet
EndChar

StartChar: uniE53A
Encoding: 58682 58682 133
Width: 988
VWidth: 2048
Flags: HW
LayerCount: 2
Fore
SplineSet
888 1 m 0
 866 1 838 19 827 35 c 1
 771 -123 l 1
 768 -127 l 1
 771 -134 775 -137 780 -138 c 2
 812 -138 l 1
 812 -167 l 1
 639 -167 l 1
 639 -138 l 1
 660 -138 l 2
 664 -138 669 -136 674 -133 c 1
 678 -129 681 -124 683 -119 c 2
 802 212 l 1
 802 218 l 1
 799 228 l 1
 793 231 l 1
 770 231 755 206 745 188 c 1
 734 171 l 1
 726 156 719 140 711 124 c 1
 688 124 l 1
 710 167 731 200 750 225 c 128
 769 250 795 262 826 263 c 0
 840 263 854 240 854 223 c 1
 878 237 l 1
 903 250 l 1
 915 255 927 257 940 257 c 0
 994 257 1020 209 1021 152 c 0
 1021 105 1010 84 989 58 c 0
 966 29 934 1 888 1 c 0
950 169 m 0
 950 195 940 215 914 215 c 0
 900 215 890 210 885 201 c 0
 873 180 863 156 856 129 c 1
 849 99 846 78 846 67 c 0
 846 43 853 31 868 31 c 0
 895 31 909 42 920 58 c 1
 940 91 942 90 946 130 c 128
 948 148 949 161 950 169 c 0
601 115 m 0
 622 115 635 92 635 67 c 0
 635 44 627 25 611 9 c 1
 596 -8 572 -16 538 -16 c 0
 526 -16 517 -15 511 -12 c 2
 499 -6 l 1
 482 4 l 1
 467 11 458 14 453 14 c 0
 444 14 434 9 423 0 c 1
 392 0 l 1
 392 16 l 1
 601 193 l 1
 537 192 l 1
 514 189 505 177 493 162 c 1
 469 162 l 1
 499 249 l 1
 688 249 l 1
 688 217 l 1
 477 54 l 1
 490 60 503 63 516 63 c 0
 530 63 569 45 579 43 c 1
 588 44 593 51 593 62 c 1
 580 62 573 70 571 85 c 1
 571 102 584 115 601 115 c 0
100 -69 m 0
 121 -69 135 -100 135 -120 c 0
 135 -140 122 -152 114 -165 c 0
 109 -172 106 -177 103 -179 c 0
 97 -186 102 -189 112 -190 c 1
 147 -190 166 -135 179 -101 c 0
 186 -83 191 -66 194 -49 c 0
 215 39 233 130 252 220 c 1
 194 220 l 1
 194 258 l 1
 264 258 l 1
 277 296 287 323 304 349 c 0
 325 379 346 402 369 418 c 0
 392 434 417 442 444 442 c 0
 472 442 490 428 495 404 c 2
 499 388 l 1
 499 355 498 352 486 328 c 0
 483 321 469 303 455 301 c 0
 452 301 449 300 447 300 c 0
 428 300 422 313 419 332 c 1
 419 359 430 376 448 388 c 0
 455 393 455 393 462 398 c 1
 462 410 451 414 439 414 c 0
 428 414 416 410 410 406 c 0
 381 385 362 304 350 260 c 1
 427 260 l 1
 427 220 l 1
 342 220 l 1
 323 111 282 -35 239 -117 c 0
 215 -163 175 -223 122 -223 c 0
 77 -223 51 -186 51 -140 c 0
 51 -108 66 -69 100 -69 c 0
81 33 m 2
 102 33 119 48 121 67 c 1
 121 85 109 97 94 107 c 1
 72 120 56 133 47 145 c 0
 38 157 33 171 32 188 c 1
 32 238 72 270 119 270 c 1
 147 267 l 1
 156 264 164 260 171 254 c 1
 186 245 194 230 194 211 c 1
 193 201 l 1
 187 191 l 2
 184 186 179 182 170 181 c 1
 153 181 144 189 141 205 c 1
 145 224 l 1
 145 234 131 240 121 242 c 0
 120 242 118 242 117 242 c 0
 100 242 89 225 86 206 c 1
 86 199 90 191 97 184 c 1
 106 177 115 170 123 163 c 0
 151 140 166 126 167 123 c 1
 175 113 179 100 179 84 c 2
 179 74 l 2
 179 53 169 35 150 20 c 1
 134 10 112 2 89 0 c 1
 42 0 0 26 0 67 c 1
 1 82 l 1
 6 95 l 1
 16 104 l 1
 29 108 l 1
 45 108 53 98 53 77 c 0
 53 64 48 61 45 49 c 1
 45 41 56 33 68 33 c 2
 81 33 l 2
EndSplineSet
EndChar

StartChar: uniE53C
Encoding: 58684 58684 134
Width: 457
VWidth: 2048
Flags: HW
LayerCount: 2
Fore
SplineSet
131 -69 m 0
 152 -69 166 -100 166 -120 c 0
 166 -140 153 -152 145 -165 c 128
 140 -172 137 -177 134 -179 c 0
 128 -186 133 -189 143 -190 c 1
 178 -190 197 -135 210 -101 c 128
 217 -83 222 -66 225 -49 c 0
 246 39 264 130 283 220 c 1
 225 220 l 1
 225 258 l 1
 295 258 l 1
 308 296 318 323 335 349 c 0
 356 379 377 402 400 418 c 128
 423 434 448 442 475 442 c 0
 503 442 521 428 526 404 c 2
 530 388 l 1
 530 355 529 352 517 328 c 0
 514 321 500 303 486 301 c 128
 481 300 476 300 469 301 c 0
 456 304 452 319 450 332 c 1
 450 359 461 376 479 388 c 2
 493 398 l 1
 493 407 487 412 475 414 c 0
 473 414 471 414 469 414 c 0
 458 414 449 412 441 406 c 128
 432 399 422 385 412 363 c 1
 405 345 386 279 381 260 c 1
 458 260 l 1
 458 220 l 1
 373 220 l 1
 354 111 313 -35 270 -117 c 0
 246 -163 206 -223 153 -223 c 0
 108 -223 82 -186 82 -140 c 0
 82 -108 97 -69 131 -69 c 0
194 174 m 0
 180 174 171 186 171 203 c 1
 172 214 l 1
 175 226 l 1
 175 231 172 233 167 233 c 0
 154 233 141 223 129 202 c 1
 113 170 l 1
 92 116 78 57 60 0 c 1
 0 0 l 1
 57 194 l 1
 57 199 l 2
 57 210 54 215 49 215 c 0
 34 215 29 206 19 194 c 0
 10 183 2 171 -6 158 c 1
 -20 166 l 1
 -14 181 -4 191 8 204 c 0
 27 223 58 252 91 252 c 0
 106 252 113 243 113 224 c 1
 112 217 112 210 111 203 c 1
 127 227 150 259 185 259 c 0
 206 259 225 240 225 219 c 0
 225 189 215 174 194 174 c 0
EndSplineSet
EndChar

StartChar: uniE53D
Encoding: 58685 58685 135
Width: 717
VWidth: 2048
Flags: HW
LayerCount: 2
Fore
SplineSet
630 115 m 0
 651 115 664 92 664 67 c 0
 664 44 656 25 640 9 c 1
 625 -8 601 -16 567 -16 c 0
 555 -16 546 -15 540 -12 c 2
 528 -6 l 1
 511 4 l 1
 496 11 487 14 482 14 c 0
 473 14 463 9 452 0 c 1
 421 0 l 1
 421 16 l 1
 630 193 l 1
 566 192 l 1
 543 189 534 177 522 162 c 1
 498 162 l 1
 528 249 l 1
 717 249 l 1
 717 217 l 1
 506 54 l 1
 519 60 532 63 545 63 c 0
 559 63 598 45 608 43 c 1
 617 44 622 51 622 62 c 1
 609 62 602 70 600 85 c 1
 600 102 613 115 630 115 c 0
131 -69 m 0
 152 -69 166 -100 166 -120 c 0
 166 -140 153 -152 145 -165 c 128
 140 -172 137 -177 134 -179 c 0
 128 -186 133 -189 143 -190 c 1
 178 -190 197 -135 210 -101 c 128
 217 -83 222 -66 225 -49 c 0
 246 39 264 130 283 220 c 1
 225 220 l 1
 225 258 l 1
 295 258 l 1
 308 296 318 323 335 349 c 0
 356 379 377 402 400 418 c 128
 423 434 448 442 475 442 c 0
 503 442 521 428 526 404 c 2
 530 388 l 1
 530 355 529 352 517 328 c 0
 514 321 500 303 486 301 c 128
 481 300 476 300 469 301 c 0
 456 304 452 319 450 332 c 1
 450 359 461 376 479 388 c 2
 493 398 l 1
 493 407 487 412 475 414 c 0
 473 414 471 414 469 414 c 0
 458 414 449 412 441 406 c 128
 432 399 422 385 412 363 c 1
 405 345 386 279 381 260 c 1
 458 260 l 1
 458 220 l 1
 373 220 l 1
 354 111 313 -35 270 -117 c 0
 246 -163 206 -223 153 -223 c 0
 108 -223 82 -186 82 -140 c 0
 82 -108 97 -69 131 -69 c 0
194 174 m 0
 180 174 171 186 171 203 c 1
 172 214 l 1
 175 226 l 1
 175 231 172 233 167 233 c 0
 154 233 141 223 129 202 c 1
 113 170 l 1
 92 116 78 57 60 0 c 1
 0 0 l 1
 57 194 l 1
 57 199 l 2
 57 210 54 215 49 215 c 0
 34 215 29 206 19 194 c 0
 10 183 2 171 -6 158 c 1
 -20 166 l 1
 -14 181 -4 191 8 204 c 0
 27 223 58 252 91 252 c 0
 106 252 113 243 113 224 c 1
 112 217 112 210 111 203 c 1
 127 227 150 259 185 259 c 0
 206 259 225 240 225 219 c 0
 225 189 215 174 194 174 c 0
EndSplineSet
EndChar

StartChar: uniE510
Encoding: 58640 58640 136
Width: 266
VWidth: 2048
Flags: HW
LayerCount: 2
Fore
SplineSet
86 180 m 5
 71 197 61 220 58 247 c 5
 58 258 61 269 66 280 c 132
 71 291 79 301 89 309 c 4
 110 324 136 332 167 332 c 4
 196 332 220 323 238 305 c 132
 256 287 265 268 266 247 c 4
 266 230 260 215 249 202 c 132
 238 189 221 177 198 166 c 5
 219 141 230 114 230 86 c 4
 230 63 220 42 200 25 c 5
 179 9 149 1 110 1 c 4
 76 1 49 9 30 26 c 132
 11 43 1 63 0 86 c 4
 0 104 7 122 22 141 c 4
 35 157 56 170 86 180 c 5
98 168 m 5
 79 156 64 143 55 130 c 132
 46 117 41 102 40 86 c 5
 42 63 49 48 61 39 c 132
 73 30 91 24 116 21 c 5
 133 21 145 25 154 33 c 132
 163 41 167 54 168 71 c 5
 165 92 142 125 98 168 c 5
187 180 m 5
 213 200 226 224 226 251 c 4
 226 268 221 282 210 295 c 132
 199 308 185 314 168 315 c 5
 140 315 124 300 121 271 c 5
 123 259 l 5
 130 237 152 211 187 180 c 5
EndSplineSet
EndChar

StartChar: uniE514
Encoding: 58644 58644 137
Width: 426
VWidth: 2048
Flags: HW
LayerCount: 2
Fore
SplineSet
108 41 m 6
 108 23 123 19 141 17 c 5
 153 18 l 5
 167 20 l 5
 162 0 l 5
 3 0 l 5
 8 20 l 5
 27 20 l 6
 42 20 52 21 56 23 c 4
 61 27 65 34 68 44 c 6
 120 255 l 5
 121 260 l 5
 117 264 114 266 112 266 c 6
 59 267 l 5
 64 287 l 5
 81 287 98 290 115 296 c 5
 134 301 150 308 165 318 c 5
 177 318 l 5
 110 52 l 5
 108 46 l 5
 108 41 l 6
224 137 m 5
 215 139 213 139 211 150 c 5
 211 157 216 165 227 174 c 5
 236 202 244 231 252 259 c 6
 268 320 l 5
 315 311 l 6
 320 310 328 309 340 309 c 4
 345 308 349 308 354 308 c 4
 380 308 402 312 420 321 c 5
 426 317 l 5
 408 285 385 266 337 266 c 4
 326 266 288 272 279 273 c 5
 253 187 l 5
 273 198 285 201 312 203 c 5
 363 203 393 170 393 119 c 4
 393 88 381 59 356 32 c 132
 331 5 300 -8 263 -8 c 4
 219 -8 180 16 180 62 c 4
 180 86 191 103 214 103 c 4
 228 103 240 90 240 75 c 4
 240 68 239 64 237 62 c 6
 221 49 l 5
 213 44 l 5
 211 40 l 5
 211 22 236 11 258 11 c 4
 279 11 298 21 317 41 c 132
 336 61 345 88 346 122 c 4
 346 159 325 179 291 179 c 4
 265 179 258 174 245 162 c 5
 242 149 238 137 224 137 c 5
EndSplineSet
EndChar

StartChar: uniE517
Encoding: 58647 58647 138
Width: 504
VWidth: 2048
Flags: HW
LayerCount: 2
Fore
SplineSet
166 311 m 4
 226 311 260 290 260 231 c 4
 260 204 248 180 220 167 c 6
 150 135 l 5
 113 125 81 105 54 75 c 5
 75 75 l 5
 101 73 l 5
 113 67 l 6
 127 61 141 56 155 50 c 4
 161 47 168 46 176 46 c 5
 191 50 l 5
 202 58 l 5
 207 63 213 71 221 84 c 5
 238 75 l 5
 222 47 l 6
 220 43 206 19 202 16 c 4
 183 -5 164 -15 145 -15 c 6
 135 -15 l 5
 122 -9 110 -3 99 5 c 6
 84 16 l 5
 72 23 61 26 52 26 c 5
 42 23 33 18 28 9 c 6
 23 0 l 5
 0 0 l 5
 0 27 6 51 20 72 c 4
 27 82 34 88 39 93 c 6
 67 118 l 5
 87 129 107 140 126 151 c 5
 145 160 l 6
 172 172 203 202 203 235 c 5
 204 247 l 5
 204 260 200 271 192 278 c 5
 186 287 177 292 164 292 c 4
 135 292 118 277 112 248 c 5
 115 236 l 5
 117 220 l 5
 117 200 109 191 92 191 c 4
 78 191 66 204 66 219 c 4
 66 267 118 311 166 311 c 4
410 311 m 4
 470 311 504 290 504 231 c 4
 504 204 492 180 464 167 c 6
 394 135 l 5
 357 125 325 105 298 75 c 5
 319 75 l 5
 345 73 l 5
 357 67 l 6
 371 61 385 56 399 50 c 4
 405 47 412 46 420 46 c 5
 435 50 l 5
 446 58 l 5
 451 63 457 71 465 84 c 5
 482 75 l 5
 466 47 l 6
 464 43 450 19 446 16 c 4
 427 -5 408 -15 389 -15 c 6
 379 -15 l 5
 366 -9 354 -3 343 5 c 6
 328 16 l 5
 316 23 305 26 296 26 c 5
 286 23 277 18 272 9 c 6
 267 0 l 5
 244 0 l 5
 244 27 250 51 264 72 c 4
 271 82 278 88 283 93 c 6
 311 118 l 5
 331 129 351 140 370 151 c 5
 389 160 l 6
 416 172 447 202 447 235 c 5
 448 247 l 5
 448 260 444 271 436 278 c 5
 430 287 421 292 408 292 c 4
 379 292 362 277 356 248 c 5
 359 236 l 5
 361 220 l 5
 361 200 353 191 336 191 c 4
 322 191 310 204 310 219 c 4
 310 267 362 311 410 311 c 4
EndSplineSet
EndChar

StartChar: uniE515
Encoding: 58645 58645 139
Width: 926
VWidth: 2048
Flags: HW
LayerCount: 2
Fore
SplineSet
445 145 m 6
 485 266 l 5
 487 272 490 284 490 292 c 4
 490 300 486 309 475 309 c 4
 451 309 434 270 426 251 c 5
 425 247 424 248 423 248 c 4
 421 248 420 249 420 250 c 4
 420 253 421 256 424 262 c 5
 438 293 457 325 488 325 c 4
 501 325 509 319 512 311 c 4
 514 307 512 289 524 289 c 4
 532 289 537 300 543 306 c 5
 554 318 565 326 583 326 c 4
 597 326 605 321 609 311 c 5
 611 307 609 289 621 289 c 4
 629 289 633 299 639 305 c 5
 650 316 662 326 680 326 c 4
 702 326 710 310 710 291 c 4
 710 252 675 195 675 166 c 4
 675 157 681 148 691 148 c 4
 710 148 720 172 726 188 c 5
 728 193 728 192 729 192 c 4
 731 192 731 191 731 191 c 4
 731 189 730 186 728 182 c 5
 719 158 707 138 680 138 c 4
 658 138 648 147 648 165 c 4
 648 196 682 250 682 282 c 4
 682 293 672 302 660 302 c 4
 632 302 607 266 596 233 c 4
 567 146 l 4
 566 144 567 143 567 143 c 5
 542 143 l 5
 542 143 541 144 541 145 c 4
 580 261 l 4
 583 269 583 275 583 281 c 4
 583 293 575 302 563 302 c 4
 535 302 511 266 500 233 c 4
 471 146 l 4
 471 145 470 143 470 143 c 5
 469 143 468 143 467 143 c 4
 445 143 l 5
 445 143 445 144 445 145 c 6
853 196 m 1
 844 177 835 163 825 154 c 128
 815 145 803 141 788 141 c 0
 774 141 764 146 757 155 c 128
 750 164 747 177 746 192 c 0
 746 203 746 211 747 216 c 128
 748 221 751 230 756 242 c 128
 761 254 770 267 782 282 c 0
 807 312 831 327 853 327 c 0
 868 327 879 318 885 301 c 1
 887 311 l 1
 890 321 l 1
 892 323 895 324 898 324 c 2
 905 324 l 2
 909 324 911 322 911 318 c 2
 910 310 l 1
 877 193 l 1
 874 179 l 1
 872 166 l 1
 872 157 875 153 880 153 c 0
 884 153 890 157 898 166 c 1
 903 173 906 179 909 185 c 128
 912 191 915 200 920 211 c 1
 926 208 l 1
 923 194 920 186 919 183 c 128
 918 180 915 176 912 171 c 128
 909 166 905 161 902 157 c 128
 899 153 895 150 892 148 c 1
 887 143 880 141 871 141 c 0
 856 141 849 149 849 166 c 1
 850 178 l 1
 853 196 l 1
797 150 m 0
 807 150 817 155 826 165 c 1
 844 193 l 1
 865 238 l 1
 874 268 l 2
 877 276 878 284 878 291 c 0
 878 301 876 308 871 312 c 1
 868 316 863 319 856 320 c 1
 837 320 816 297 793 250 c 1
 786 232 l 1
 782 223 l 1
 779 214 l 2
 777 207 775 200 774 195 c 128
 773 190 772 184 772 179 c 0
 772 171 774 164 777 159 c 128
 780 154 787 151 797 150 c 0
108 41 m 2
 108 23 123 19 141 17 c 1
 153 18 l 1
 167 20 l 1
 162 0 l 1
 3 0 l 1
 8 20 l 1
 27 20 l 2
 42 20 52 21 56 23 c 0
 61 27 65 34 68 44 c 2
 120 255 l 1
 121 260 l 1
 117 264 114 266 112 266 c 2
 59 267 l 1
 64 287 l 1
 81 287 98 290 115 296 c 1
 134 301 150 308 165 318 c 1
 177 318 l 1
 110 52 l 1
 108 46 l 1
 108 41 l 2
224 137 m 1
 215 139 213 139 211 150 c 1
 211 157 216 165 227 174 c 1
 236 202 244 231 252 259 c 2
 268 320 l 1
 315 311 l 2
 320 310 328 309 340 309 c 0
 345 308 349 308 354 308 c 0
 380 308 402 312 420 321 c 1
 426 317 l 1
 408 285 385 266 337 266 c 0
 326 266 288 272 279 273 c 1
 253 187 l 1
 273 198 285 201 312 203 c 1
 363 203 393 170 393 119 c 0
 393 88 381 59 356 32 c 128
 331 5 300 -8 263 -8 c 0
 219 -8 180 16 180 62 c 0
 180 86 191 103 214 103 c 0
 228 103 240 90 240 75 c 0
 240 68 239 64 237 62 c 2
 221 49 l 1
 213 44 l 1
 211 40 l 1
 211 22 236 11 258 11 c 0
 279 11 298 21 317 41 c 128
 336 61 345 88 346 122 c 0
 346 159 325 179 291 179 c 0
 265 179 258 174 245 162 c 1
 242 149 238 137 224 137 c 1
EndSplineSet
EndChar

StartChar: uniE516
Encoding: 58646 58646 140
Width: 916
VWidth: 2048
Flags: HW
LayerCount: 2
Fore
SplineSet
435 2 m 6
 475 123 l 5
 477 129 480 141 480 149 c 4
 480 157 476 166 465 166 c 4
 441 166 424 127 416 108 c 5
 415 104 414 105 413 105 c 4
 411 105 410 106 410 107 c 4
 410 110 411 113 414 119 c 5
 428 150 447 182 478 182 c 4
 491 182 499 176 502 168 c 4
 504 164 502 146 514 146 c 4
 522 146 527 157 533 163 c 5
 544 175 555 183 573 183 c 4
 587 183 595 178 599 168 c 5
 601 164 599 146 611 146 c 4
 619 146 623 156 629 162 c 5
 640 173 652 183 670 183 c 4
 692 183 700 167 700 148 c 4
 700 109 665 51 665 22 c 4
 665 13 671 5 681 5 c 4
 700 5 710 29 716 45 c 5
 718 50 718 49 719 49 c 4
 721 49 721 48 721 48 c 4
 721 46 720 43 718 39 c 5
 709 15 697 -5 670 -5 c 4
 648 -5 638 4 638 22 c 4
 638 53 672 107 672 139 c 4
 672 150 662 159 650 159 c 4
 622 159 598 123 587 90 c 4
 558 3 l 4
 558 2 557 0 557 0 c 5
 556 0 555 0 554 0 c 4
 532 0 l 5
 532 0 531 1 531 2 c 4
 570 118 l 4
 573 126 573 132 573 138 c 4
 573 150 565 159 553 159 c 4
 525 159 501 123 490 90 c 4
 461 3 l 4
 460 1 461 0 461 0 c 5
 435 0 l 5
 435 0 435 1 435 2 c 6
843 56 m 1
 834 37 825 23 815 14 c 128
 805 5 793 1 778 1 c 0
 764 1 754 6 747 15 c 128
 740 24 737 37 736 52 c 0
 736 63 736 71 737 76 c 128
 738 81 741 90 746 102 c 128
 751 114 760 127 772 142 c 0
 797 172 821 187 843 187 c 0
 858 187 869 178 875 161 c 1
 877 171 l 1
 880 181 l 1
 882 183 885 184 888 184 c 2
 895 184 l 2
 899 184 901 182 901 178 c 2
 900 170 l 1
 867 53 l 1
 864 39 l 1
 862 26 l 1
 862 17 865 13 870 13 c 0
 874 13 880 17 888 26 c 1
 893 33 896 39 899 45 c 128
 902 51 905 60 910 71 c 1
 916 68 l 1
 913 54 910 46 909 43 c 128
 908 40 905 36 902 31 c 128
 899 26 895 21 892 17 c 128
 889 13 885 10 882 8 c 1
 877 3 870 1 861 1 c 0
 846 1 839 9 839 26 c 1
 840 38 l 1
 843 56 l 1
787 10 m 0
 797 10 807 15 816 25 c 1
 834 53 l 1
 855 98 l 1
 864 128 l 2
 867 136 868 144 868 151 c 0
 868 161 866 168 861 172 c 1
 858 176 853 179 846 180 c 1
 827 180 806 157 783 110 c 1
 776 92 l 1
 772 83 l 1
 769 74 l 2
 767 67 765 60 764 55 c 128
 763 50 762 44 762 39 c 0
 762 31 764 24 767 19 c 128
 770 14 777 11 787 10 c 0
108 41 m 2
 108 23 123 19 141 17 c 1
 153 18 l 1
 167 20 l 1
 162 0 l 1
 3 0 l 1
 8 20 l 1
 27 20 l 2
 42 20 52 21 56 23 c 0
 61 27 65 34 68 44 c 2
 120 255 l 1
 121 260 l 1
 117 264 114 266 112 266 c 2
 59 267 l 1
 64 287 l 1
 81 287 98 290 115 296 c 1
 134 301 150 308 165 318 c 1
 177 318 l 1
 110 52 l 1
 108 46 l 1
 108 41 l 2
224 137 m 1
 215 139 213 139 211 150 c 1
 211 157 216 165 227 174 c 1
 236 202 244 231 252 259 c 2
 268 320 l 1
 315 311 l 2
 320 310 328 309 340 309 c 0
 345 308 349 308 354 308 c 0
 380 308 402 312 420 321 c 1
 426 317 l 1
 408 285 385 266 337 266 c 0
 326 266 288 272 279 273 c 1
 253 187 l 1
 273 198 285 201 312 203 c 1
 363 203 393 170 393 119 c 0
 393 88 381 59 356 32 c 128
 331 5 300 -8 263 -8 c 0
 219 -8 180 16 180 62 c 0
 180 86 191 103 214 103 c 0
 228 103 240 90 240 75 c 0
 240 68 239 64 237 62 c 2
 221 49 l 1
 213 44 l 1
 211 40 l 1
 211 22 236 11 258 11 c 0
 279 11 298 21 317 41 c 128
 336 61 345 88 346 122 c 0
 346 159 325 179 291 179 c 0
 265 179 258 174 245 162 c 1
 242 149 238 137 224 137 c 1
EndSplineSet
EndChar

StartChar: uniE518
Encoding: 58648 58648 141
Width: 1021
VWidth: 2048
Flags: HW
LayerCount: 2
Fore
SplineSet
540 135 m 6
 580 256 l 5
 582 262 585 274 585 282 c 4
 585 290 581 299 570 299 c 4
 546 299 529 260 521 241 c 5
 520 237 519 238 518 238 c 4
 516 238 515 239 515 240 c 4
 515 243 516 246 519 252 c 5
 533 283 552 315 583 315 c 4
 596 315 604 309 607 301 c 4
 609 297 607 279 619 279 c 4
 627 279 632 290 638 296 c 5
 649 308 660 316 678 316 c 4
 692 316 700 311 704 301 c 5
 706 297 704 279 716 279 c 4
 724 279 728 289 734 295 c 5
 745 306 756 316 774 316 c 4
 796 316 805 300 805 281 c 4
 805 242 770 185 770 156 c 4
 770 147 776 138 786 138 c 4
 805 138 815 162 821 178 c 5
 823 183 823 182 824 182 c 4
 826 182 826 181 826 181 c 4
 826 179 825 176 823 172 c 5
 814 148 801 128 774 128 c 4
 752 128 743 137 743 155 c 4
 743 186 777 240 777 272 c 4
 777 283 767 292 755 292 c 4
 727 292 703 256 692 223 c 4
 663 136 l 4
 663 135 662 133 662 133 c 5
 661 133 660 133 659 133 c 4
 637 133 l 5
 637 133 636 134 636 135 c 4
 675 251 l 4
 678 259 678 265 678 271 c 4
 678 283 670 292 658 292 c 4
 630 292 606 256 595 223 c 4
 566 136 l 4
 566 135 565 133 565 133 c 5
 564 133 563 133 562 133 c 4
 540 133 l 5
 540 133 540 134 540 135 c 6
948 186 m 1
 939 167 930 153 920 144 c 128
 910 135 898 131 883 131 c 0
 869 131 859 136 852 145 c 128
 845 154 842 167 841 182 c 0
 841 193 841 201 842 206 c 128
 843 211 846 220 851 232 c 128
 856 244 865 257 877 272 c 0
 902 302 926 317 948 317 c 0
 963 317 974 308 980 291 c 1
 982 301 l 1
 985 311 l 1
 987 313 990 314 993 314 c 2
 1000 314 l 2
 1004 314 1006 312 1006 308 c 2
 1005 300 l 1
 972 183 l 1
 969 169 l 1
 967 156 l 1
 967 147 970 143 975 143 c 0
 979 143 985 147 993 156 c 1
 998 163 1001 169 1004 175 c 128
 1007 181 1010 190 1015 201 c 1
 1021 198 l 1
 1018 184 1015 176 1014 173 c 128
 1013 170 1010 166 1007 161 c 128
 1004 156 1000 151 997 147 c 128
 994 143 990 140 987 138 c 1
 982 133 975 131 966 131 c 0
 951 131 944 139 944 156 c 1
 945 168 l 1
 948 186 l 1
892 140 m 0
 902 140 912 145 921 155 c 1
 939 183 l 1
 960 228 l 1
 969 258 l 2
 972 266 973 274 973 281 c 0
 973 291 971 298 966 302 c 1
 963 306 958 309 951 310 c 1
 932 310 911 287 888 240 c 1
 881 222 l 1
 877 213 l 1
 874 204 l 2
 872 197 870 190 869 185 c 128
 868 180 867 174 867 169 c 0
 867 161 869 154 872 149 c 128
 875 144 882 141 892 140 c 0
166 311 m 0
 226 311 260 290 260 231 c 0
 260 204 248 180 220 167 c 2
 150 135 l 1
 113 125 81 105 54 75 c 1
 75 75 l 1
 101 73 l 1
 113 67 l 2
 127 61 141 56 155 50 c 0
 161 47 168 46 176 46 c 1
 191 50 l 1
 202 58 l 1
 207 63 213 71 221 84 c 1
 238 75 l 1
 222 47 l 2
 220 43 206 19 202 16 c 0
 183 -5 164 -15 145 -15 c 2
 135 -15 l 1
 122 -9 110 -3 99 5 c 2
 84 16 l 1
 72 23 61 26 52 26 c 1
 42 23 33 18 28 9 c 2
 23 0 l 1
 0 0 l 1
 0 27 6 51 20 72 c 0
 27 82 34 88 39 93 c 2
 67 118 l 1
 87 129 107 140 126 151 c 1
 145 160 l 2
 172 172 203 202 203 235 c 1
 204 247 l 1
 204 260 200 271 192 278 c 1
 186 287 177 292 164 292 c 0
 135 292 118 277 112 248 c 1
 115 236 l 1
 117 220 l 1
 117 200 109 191 92 191 c 0
 78 191 66 204 66 219 c 0
 66 267 118 311 166 311 c 0
410 311 m 0
 470 311 504 290 504 231 c 0
 504 204 492 180 464 167 c 2
 394 135 l 1
 357 125 325 105 298 75 c 1
 319 75 l 1
 345 73 l 1
 357 67 l 2
 371 61 385 56 399 50 c 0
 405 47 412 46 420 46 c 1
 435 50 l 1
 446 58 l 1
 451 63 457 71 465 84 c 1
 482 75 l 1
 466 47 l 2
 464 43 450 19 446 16 c 0
 427 -5 408 -15 389 -15 c 2
 379 -15 l 1
 366 -9 354 -3 343 5 c 2
 328 16 l 1
 316 23 305 26 296 26 c 1
 286 23 277 18 272 9 c 2
 267 0 l 1
 244 0 l 1
 244 27 250 51 264 72 c 0
 271 82 278 88 283 93 c 2
 311 118 l 1
 331 129 351 140 370 151 c 1
 389 160 l 2
 416 172 447 202 447 235 c 1
 448 247 l 1
 448 260 444 271 436 278 c 1
 430 287 421 292 408 292 c 0
 379 292 362 277 356 248 c 1
 359 236 l 1
 361 220 l 1
 361 200 353 191 336 191 c 0
 322 191 310 204 310 219 c 0
 310 267 362 311 410 311 c 0
EndSplineSet
EndChar

StartChar: uniE519
Encoding: 58649 58649 142
Width: 991
VWidth: 2048
Flags: HW
LayerCount: 2
Fore
SplineSet
510 2 m 6
 550 123 l 5
 552 129 555 141 555 149 c 4
 555 157 551 166 540 166 c 4
 516 166 499 127 491 108 c 5
 490 104 489 105 488 105 c 4
 486 105 485 106 485 107 c 4
 485 110 486 113 489 119 c 5
 503 150 522 182 553 182 c 4
 566 182 574 176 577 168 c 4
 579 164 577 146 589 146 c 4
 597 146 602 157 608 163 c 5
 619 175 630 183 648 183 c 4
 662 183 670 178 674 168 c 5
 676 164 674 146 686 146 c 4
 694 146 698 156 704 162 c 5
 715 173 726 183 744 183 c 4
 766 183 775 167 775 148 c 4
 775 109 740 51 740 22 c 4
 740 13 746 5 756 5 c 4
 775 5 785 29 791 45 c 5
 793 50 793 49 794 49 c 4
 796 49 796 48 796 48 c 4
 796 46 795 43 793 39 c 5
 784 15 771 -5 744 -5 c 4
 722 -5 713 4 713 22 c 4
 713 53 747 107 747 139 c 4
 747 150 737 159 725 159 c 4
 697 159 673 123 662 90 c 4
 633 3 l 4
 633 2 632 0 632 0 c 5
 631 0 630 0 629 0 c 4
 607 0 l 5
 607 0 606 1 606 2 c 4
 645 118 l 4
 648 126 648 132 648 138 c 4
 648 150 640 159 628 159 c 4
 600 159 576 123 565 90 c 4
 536 3 l 4
 536 2 535 0 535 0 c 5
 534 0 533 0 532 0 c 4
 510 0 l 5
 510 0 510 1 510 2 c 6
918 56 m 1
 909 37 900 23 890 14 c 128
 880 5 868 1 853 1 c 0
 839 1 829 6 822 15 c 128
 815 24 812 37 811 52 c 0
 811 63 811 71 812 76 c 128
 813 81 816 90 821 102 c 128
 826 114 835 127 847 142 c 0
 872 172 896 187 918 187 c 0
 933 187 944 178 950 161 c 1
 952 171 l 1
 955 181 l 1
 957 183 960 184 963 184 c 2
 970 184 l 2
 974 184 976 182 976 178 c 2
 975 170 l 1
 942 53 l 1
 939 39 l 1
 937 26 l 1
 937 17 940 13 945 13 c 0
 949 13 955 17 963 26 c 1
 968 33 971 39 974 45 c 128
 977 51 980 60 985 71 c 1
 991 68 l 1
 988 54 985 46 984 43 c 128
 983 40 980 36 977 31 c 128
 974 26 970 21 967 17 c 128
 964 13 960 10 957 8 c 1
 952 3 945 1 936 1 c 0
 921 1 914 9 914 26 c 1
 915 38 l 1
 918 56 l 1
862 10 m 0
 872 10 882 15 891 25 c 1
 909 53 l 1
 930 98 l 1
 939 128 l 2
 942 136 943 144 943 151 c 0
 943 161 941 168 936 172 c 1
 933 176 928 179 921 180 c 1
 902 180 881 157 858 110 c 1
 851 92 l 1
 847 83 l 1
 844 74 l 2
 842 67 840 60 839 55 c 128
 838 50 837 44 837 39 c 0
 837 31 839 24 842 19 c 128
 845 14 852 11 862 10 c 0
166 311 m 0
 226 311 260 290 260 231 c 0
 260 204 248 180 220 167 c 2
 150 135 l 1
 113 125 81 105 54 75 c 1
 75 75 l 1
 101 73 l 1
 113 67 l 2
 127 61 141 56 155 50 c 0
 161 47 168 46 176 46 c 1
 191 50 l 1
 202 58 l 1
 207 63 213 71 221 84 c 1
 238 75 l 1
 222 47 l 2
 220 43 206 19 202 16 c 0
 183 -5 164 -15 145 -15 c 2
 135 -15 l 1
 122 -9 110 -3 99 5 c 2
 84 16 l 1
 72 23 61 26 52 26 c 1
 42 23 33 18 28 9 c 2
 23 0 l 1
 0 0 l 1
 0 27 6 51 20 72 c 0
 27 82 34 88 39 93 c 2
 67 118 l 1
 87 129 107 140 126 151 c 1
 145 160 l 2
 172 172 203 202 203 235 c 1
 204 247 l 1
 204 260 200 271 192 278 c 1
 186 287 177 292 164 292 c 0
 135 292 118 277 112 248 c 1
 115 236 l 1
 117 220 l 1
 117 200 109 191 92 191 c 0
 78 191 66 204 66 219 c 0
 66 267 118 311 166 311 c 0
410 311 m 0
 470 311 504 290 504 231 c 0
 504 204 492 180 464 167 c 2
 394 135 l 1
 357 125 325 105 298 75 c 1
 319 75 l 1
 345 73 l 1
 357 67 l 2
 371 61 385 56 399 50 c 0
 405 47 412 46 420 46 c 1
 435 50 l 1
 446 58 l 1
 451 63 457 71 465 84 c 1
 482 75 l 1
 466 47 l 2
 464 43 450 19 446 16 c 0
 427 -5 408 -15 389 -15 c 2
 379 -15 l 1
 366 -9 354 -3 343 5 c 2
 328 16 l 1
 316 23 305 26 296 26 c 1
 286 23 277 18 272 9 c 2
 267 0 l 1
 244 0 l 1
 244 27 250 51 264 72 c 0
 271 82 278 88 283 93 c 2
 311 118 l 1
 331 129 351 140 370 151 c 1
 389 160 l 2
 416 172 447 202 447 235 c 1
 448 247 l 1
 448 260 444 271 436 278 c 1
 430 287 421 292 408 292 c 0
 379 292 362 277 356 248 c 1
 359 236 l 1
 361 220 l 1
 361 200 353 191 336 191 c 0
 322 191 310 204 310 219 c 0
 310 267 362 311 410 311 c 0
EndSplineSet
EndChar

StartChar: uniE511
Encoding: 58641 58641 143
Width: 657
VWidth: 2048
Flags: HW
LayerCount: 2
Fore
SplineSet
584 213 m 1
 575 194 566 180 556 171 c 128
 546 162 534 158 519 158 c 0
 505 158 495 163 488 172 c 128
 481 181 478 194 477 209 c 0
 477 220 477 228 478 233 c 128
 479 238 482 247 487 259 c 128
 492 271 501 284 513 299 c 0
 538 329 562 344 584 344 c 0
 599 344 610 335 616 318 c 1
 618 328 l 1
 621 338 l 1
 623 340 626 341 629 341 c 2
 636 341 l 2
 640 341 642 339 642 335 c 2
 641 327 l 1
 608 210 l 1
 605 196 l 1
 603 183 l 1
 603 174 606 170 611 170 c 0
 615 170 621 174 629 183 c 1
 634 190 637 196 640 202 c 128
 643 208 646 217 651 228 c 1
 657 225 l 1
 654 211 651 203 650 200 c 128
 649 197 646 193 643 188 c 128
 640 183 636 178 633 174 c 128
 630 170 626 167 623 165 c 1
 618 160 611 158 602 158 c 0
 587 158 580 166 580 183 c 1
 581 195 l 1
 584 213 l 1
528 167 m 0
 538 167 548 172 557 182 c 1
 575 210 l 1
 596 255 l 1
 605 285 l 2
 608 293 609 301 609 308 c 0
 609 318 607 325 602 329 c 1
 599 333 594 336 587 337 c 1
 568 337 547 314 524 267 c 1
 517 249 l 1
 513 240 l 1
 510 231 l 2
 508 224 506 217 505 212 c 128
 504 207 503 201 503 196 c 0
 503 188 505 181 508 176 c 128
 511 171 518 168 528 167 c 0
352 316 m 1
 341 307 331 303 320 303 c 1
 314 304 l 1
 308 305 l 1
 291 309 l 1
 287 309 285 305 285 298 c 0
 285 295 284 293 281 292 c 1
 277 295 l 1
 275 297 l 1
 274 308 l 1
 275 316 l 1
 280 324 l 2
 283 330 289 333 296 333 c 2
 302 333 l 1
 306 333 l 1
 310 332 l 1
 316 328 l 1
 326 323 l 1
 339 319 l 1
 344 319 348 320 352 323 c 1
 353 326 l 1
 357 337 l 2
 360 344 363 349 368 350 c 1
 371 347 373 344 373 342 c 2
 371 333 l 1
 366 326 362 319 359 313 c 128
 356 307 352 296 345 279 c 1
 336 243 l 1
 333 209 l 1
 334 194 l 1
 338 180 l 1
 343 170 351 165 362 165 c 0
 373 165 385 171 396 182 c 128
 407 193 418 214 428 243 c 1
 432 267 l 1
 434 291 l 1
 431 307 l 1
 430 327 l 1
 432 343 l 1
 434 347 438 349 443 350 c 0
 448 350 452 347 455 341 c 0
 456 339 456 336 457 332 c 128
 458 328 459 323 460 318 c 1
 458 294 l 1
 456 283 l 1
 453 272 l 1
 449 254 444 239 438 226 c 128
 432 213 423 200 411 186 c 1
 404 176 394 168 383 162 c 128
 372 156 360 153 347 153 c 0
 333 153 322 157 314 165 c 128
 306 173 302 184 301 199 c 0
 301 210 306 226 317 248 c 2
 352 316 l 1
86 180 m 1
 71 197 61 220 58 247 c 1
 58 258 61 269 66 280 c 128
 71 291 79 301 89 309 c 0
 110 324 136 332 167 332 c 0
 196 332 220 323 238 305 c 128
 256 287 265 268 266 247 c 0
 266 230 260 215 249 202 c 128
 238 189 221 177 198 166 c 1
 219 141 230 114 230 86 c 0
 230 63 220 42 200 25 c 1
 179 9 149 1 110 1 c 0
 76 1 49 9 30 26 c 128
 11 43 1 63 0 86 c 0
 0 104 7 122 22 141 c 0
 35 157 56 170 86 180 c 1
98 168 m 1
 79 156 64 143 55 130 c 128
 46 117 41 102 40 86 c 1
 42 63 49 48 61 39 c 128
 73 30 91 24 116 21 c 1
 133 21 145 25 154 33 c 128
 163 41 167 54 168 71 c 1
 165 92 142 125 98 168 c 1
187 180 m 1
 213 200 226 224 226 251 c 0
 226 268 221 282 210 295 c 128
 199 308 185 314 168 315 c 1
 140 315 124 300 121 271 c 1
 123 259 l 1
 130 237 152 211 187 180 c 1
EndSplineSet
EndChar

StartChar: uniE512
Encoding: 58642 58642 144
Width: 266
VWidth: 2048
Flags: HW
LayerCount: 2
Fore
SplineSet
577 55 m 5
 568 36 559 22 549 13 c 132
 539 4 527 0 512 0 c 4
 498 0 488 5 481 14 c 132
 474 23 471 36 470 51 c 4
 470 62 470 70 471 75 c 132
 472 80 475 89 480 101 c 132
 485 113 494 126 506 141 c 4
 531 171 555 186 577 186 c 4
 592 186 603 177 609 160 c 5
 611 170 l 5
 614 180 l 5
 616 182 619 183 622 183 c 6
 629 183 l 6
 633 183 635 181 635 177 c 6
 634 169 l 5
 601 52 l 5
 598 38 l 5
 596 25 l 5
 596 16 599 12 604 12 c 4
 608 12 614 16 622 25 c 5
 627 32 630 38 633 44 c 132
 636 50 639 59 644 70 c 5
 650 67 l 5
 647 53 644 45 643 42 c 132
 642 39 639 35 636 30 c 132
 633 25 629 20 626 16 c 132
 623 12 619 9 616 7 c 5
 611 2 604 0 595 0 c 4
 580 0 573 8 573 25 c 5
 574 37 l 5
 577 55 l 5
521 9 m 4
 531 9 541 14 550 24 c 5
 568 52 l 5
 589 97 l 5
 598 127 l 6
 601 135 602 143 602 150 c 4
 602 160 600 167 595 171 c 5
 592 175 587 178 580 179 c 5
 561 179 540 156 517 109 c 5
 510 91 l 5
 506 82 l 5
 503 73 l 6
 501 66 499 59 498 54 c 132
 497 49 496 43 496 38 c 4
 496 30 498 23 501 18 c 132
 504 13 511 10 521 9 c 4
345 163 m 1
 334 154 324 150 313 150 c 1
 307 151 l 1
 301 152 l 1
 284 156 l 1
 280 156 278 152 278 145 c 0
 278 142 277 140 274 139 c 1
 270 142 l 1
 268 144 l 1
 267 155 l 1
 268 163 l 1
 273 171 l 2
 276 177 282 180 289 180 c 2
 295 180 l 1
 299 180 l 1
 303 179 l 1
 309 175 l 1
 319 170 l 1
 332 166 l 1
 337 166 341 167 345 170 c 1
 346 173 l 1
 350 184 l 2
 353 191 356 196 361 197 c 1
 364 194 366 191 366 189 c 2
 364 180 l 1
 359 173 355 166 352 160 c 128
 349 154 345 143 338 126 c 1
 329 90 l 1
 326 56 l 1
 327 41 l 1
 331 27 l 1
 336 17 344 12 355 12 c 0
 366 12 378 18 389 29 c 128
 400 40 411 61 421 90 c 1
 425 114 l 1
 427 138 l 1
 424 154 l 1
 423 174 l 1
 425 190 l 1
 427 194 431 196 436 197 c 0
 441 197 445 194 448 188 c 0
 449 186 449 183 450 179 c 128
 451 175 452 170 453 165 c 1
 451 141 l 1
 449 130 l 1
 446 119 l 1
 442 101 437 86 431 73 c 128
 425 60 416 47 404 33 c 1
 397 23 387 15 376 9 c 128
 365 3 353 0 340 0 c 0
 326 0 315 4 307 12 c 128
 299 20 295 31 294 46 c 0
 294 57 299 73 310 95 c 2
 345 163 l 1
86 180 m 1
 71 197 61 220 58 247 c 1
 58 258 61 269 66 280 c 128
 71 291 79 301 89 309 c 0
 110 324 136 332 167 332 c 0
 196 332 220 323 238 305 c 128
 256 287 265 268 266 247 c 0
 266 230 260 215 249 202 c 128
 238 189 221 177 198 166 c 1
 219 141 230 114 230 86 c 0
 230 63 220 42 200 25 c 1
 179 9 149 1 110 1 c 0
 76 1 49 9 30 26 c 128
 11 43 1 63 0 86 c 0
 0 104 7 122 22 141 c 0
 35 157 56 170 86 180 c 1
98 168 m 1
 79 156 64 143 55 130 c 128
 46 117 41 102 40 86 c 1
 42 63 49 48 61 39 c 128
 73 30 91 24 116 21 c 1
 133 21 145 25 154 33 c 128
 163 41 167 54 168 71 c 1
 165 92 142 125 98 168 c 1
187 180 m 1
 213 200 226 224 226 251 c 0
 226 268 221 282 210 295 c 128
 199 308 185 314 168 315 c 1
 140 315 124 300 121 271 c 1
 123 259 l 1
 130 237 152 211 187 180 c 1
EndSplineSet
EndChar

StartChar: uniE513
Encoding: 58643 58643 145
Width: 624
VWidth: 2048
Flags: HW
LayerCount: 2
Fore
SplineSet
314 8 m 1
 321 7 l 1
 339 7 357 26 374 64 c 0
 388 96 395 124 395 147 c 0
 395 166 388 176 375 176 c 0
 360 176 343 160 325 127 c 1
 317 111 310 95 305 79 c 1
 300 62 298 47 298 36 c 0
 298 21 303 11 314 8 c 1
283 90 m 1
 328 259 l 1
 329 265 l 1
 327 274 l 1
 324 276 319 277 314 277 c 2
 303 277 l 1
 306 286 l 1
 367 294 l 1
 322 138 l 1
 333 155 343 168 353 175 c 128
 363 182 373 186 382 187 c 1
 393 187 402 182 410 173 c 128
 418 164 422 149 422 130 c 0
 422 125 422 119 421 112 c 128
 420 105 418 98 415 89 c 0
 410 74 402 60 392 47 c 1
 370 16 344 0 314 0 c 1
 301 2 l 1
 292 5 285 9 282 14 c 1
 277 19 275 29 275 42 c 2
 275 53 l 1
 277 63 l 2
 278 69 278 73 279 74 c 2
 283 90 l 1
551 55 m 1
 542 36 533 22 523 13 c 128
 513 4 501 0 486 0 c 0
 472 0 462 5 455 14 c 128
 448 23 445 36 444 51 c 0
 444 62 444 70 445 75 c 128
 446 80 449 89 454 101 c 128
 459 113 468 126 480 141 c 0
 505 171 529 186 551 186 c 0
 566 186 577 177 583 160 c 1
 585 170 l 1
 588 180 l 1
 590 182 593 183 596 183 c 2
 603 183 l 2
 607 183 609 181 609 177 c 2
 608 169 l 1
 575 52 l 1
 572 38 l 1
 570 25 l 1
 570 16 573 12 578 12 c 0
 582 12 588 16 596 25 c 1
 601 32 604 38 607 44 c 128
 610 50 613 59 618 70 c 1
 624 67 l 1
 621 53 618 45 617 42 c 128
 616 39 613 35 610 30 c 128
 607 25 603 20 600 16 c 128
 597 12 593 9 590 7 c 1
 585 2 578 0 569 0 c 0
 554 0 547 8 547 25 c 1
 548 37 l 1
 551 55 l 1
495 9 m 0
 505 9 515 14 524 24 c 1
 542 52 l 1
 563 97 l 1
 572 127 l 2
 575 135 576 143 576 150 c 0
 576 160 574 167 569 171 c 1
 566 175 561 178 554 179 c 1
 535 179 514 156 491 109 c 1
 484 91 l 1
 480 82 l 1
 477 73 l 2
 475 66 473 59 472 54 c 128
 471 49 470 43 470 38 c 0
 470 30 472 23 475 18 c 128
 478 13 485 10 495 9 c 0
86 180 m 1
 71 197 61 220 58 247 c 1
 58 258 61 269 66 280 c 128
 71 291 79 301 89 309 c 0
 110 324 136 332 167 332 c 0
 196 332 220 323 238 305 c 128
 256 287 265 268 266 247 c 0
 266 230 260 215 249 202 c 128
 238 189 221 177 198 166 c 1
 219 141 230 114 230 86 c 0
 230 63 220 42 200 25 c 1
 179 9 149 1 110 1 c 0
 76 1 49 9 30 26 c 128
 11 43 1 63 0 86 c 0
 0 104 7 122 22 141 c 0
 35 157 56 170 86 180 c 1
98 168 m 1
 79 156 64 143 55 130 c 128
 46 117 41 102 40 86 c 1
 42 63 49 48 61 39 c 128
 73 30 91 24 116 21 c 1
 133 21 145 25 154 33 c 128
 163 41 167 54 168 71 c 1
 165 92 142 125 98 168 c 1
187 180 m 1
 213 200 226 224 226 251 c 0
 226 268 221 282 210 295 c 128
 199 308 185 314 168 315 c 1
 140 315 124 300 121 271 c 1
 123 259 l 1
 130 237 152 211 187 180 c 1
EndSplineSet
EndChar

StartChar: uniE069
Encoding: 57449 57449 147
Width: 330
VWidth: 0
Flags: HW
LayerCount: 2
Fore
SplineSet
200 250 m 29
 330 250 l 29
 330 -250 l 29
 200 -250 l 29
 200 250 l 29
0 250 m 29
 130 250 l 29
 130 -250 l 29
 0 -250 l 29
 0 250 l 29
EndSplineSet
EndChar

StartChar: uniE06A
Encoding: 57450 57450 148
Width: 257
VWidth: 2048
Flags: HW
LayerCount: 2
Fore
SplineSet
0 395 m 1
 257 395 l 1
 257 -396 l 1
 0 -396 l 1
 0 395 l 1
41 311 m 1
 41 -311 l 1
 215 -311 l 1
 215 311 l 1
 41 311 l 1
EndSplineSet
EndChar

StartChar: uniE902
Encoding: 59650 59650 149
Width: 181
VWidth: 2048
Flags: HW
LayerCount: 2
Fore
SplineSet
181 -131 m 0
 181 -152 178 -167 171 -177 c 0
 160 -194 138 -202 107 -202 c 0
 60 -202 30 -193 16 -174 c 0
 5 -159 -1 -127 -1 -80 c 2
 -1 -37 l 2
 -1 -24 -1 -11 0 0 c 2
 0 41 l 2
 0 54 0 67 -1 80 c 0
 -1 128 4 159 15 174 c 0
 29 193 60 202 107 202 c 0
 139 202 160 194 171 178 c 0
 178 168 181 152 181 131 c 0
 181 103 172 84 155 73 c 0
 142 65 122 61 97 61 c 2
 74 61 l 2
 67 61 60 61 53 62 c 0
 36 62 27 58 27 51 c 2
 27 0 l 1
 27 -51 l 2
 27 -59 35 -63 51 -63 c 0
 55 -63 62 -63 73 -62 c 0
 84 -61 92 -61 98 -61 c 0
 123 -61 142 -65 154 -72 c 0
 172 -83 181 -102 181 -131 c 0
-33 -230 m 2
 -34 -221 l 1
 -35 -127 l 1
 -35 -76 l 2
 -35 -69 -44 -65 -61 -65 c 0
 -68 -66 -75 -66 -82 -66 c 2
 -105 -66 l 2
 -126 -66 -151 -79 -166 -79 c 0
 -169 -79 -172 -78 -174 -77 c 0
 -188 -69 -189 -40 -189 -15 c 0
 -189 -8 -189 -2 -189 4 c 0
 -189 25 -186 41 -179 51 c 0
 -168 67 -147 75 -115 75 c 0
 -68 75 -37 66 -23 47 c 0
 -12 32 -7 1 -7 -47 c 0
 -8 -60 -8 -73 -8 -86 c 2
 -8 -127 l 2
 -7 -151 -7 -163 -7 -164 c 2
 -8 -230 l 2
 -10 -260 -5 -268 -20 -268 c 0
 -32 -268 -32 -262 -33 -230 c 2
EndSplineSet
EndChar

StartChar: uniE906
Encoding: 59654 59654 150
Width: 181
VWidth: 2048
Flags: HW
LayerCount: 2
Fore
SplineSet
181 -131 m 4
 181 -152 178 -167 171 -177 c 4
 160 -194 138 -202 107 -202 c 4
 60 -202 30 -193 16 -174 c 4
 5 -159 -1 -127 -1 -80 c 4
 -1 -57 -1 -57 -1 -37 c 132
 -1 -24 -1 -11 0 0 c 5
 0 21 0 21 0 41 c 132
 0 54 0 67 -1 80 c 5
 -1 128 4 159 15 174 c 4
 29 193 60 202 107 202 c 4
 139 202 160 194 171 178 c 4
 178 168 181 152 181 131 c 4
 181 103 172 84 155 73 c 4
 142 65 122 61 97 61 c 4
 85 61 85 61 74 61 c 132
 67 61 60 61 53 62 c 5
 36 62 27 58 27 51 c 6
 27 0 l 5
 27 -51 l 6
 27 -59 35 -63 51 -63 c 4
 55 -63 62 -63 73 -62 c 132
 84 -61 92 -61 98 -61 c 4
 123 -61 142 -65 154 -72 c 4
 172 -83 181 -102 181 -131 c 4
EndSplineSet
EndChar

StartChar: uniE4A2
Encoding: 58530 58530 151
Width: 96
VWidth: 2048
Flags: HW
LayerCount: 2
Fore
SplineSet
0 45 m 4
 0 58 4 70 13 79 c 132
 22 88 32 93 45 94 c 5
 59 94 71 90 80 82 c 132
 89 74 94 63 95 49 c 4
 95 36 91 24 82 15 c 132
 73 6 63 1 50 0 c 5
 36 0 24 4 15 12 c 132
 6 20 1 31 0 45 c 4
EndSplineSet
EndChar

StartChar: uniE4A3
Encoding: 58531 58531 152
Width: 96
VWidth: 2048
Flags: HW
LayerCount: 2
Fore
SplineSet
0 -45 m 0
 1 -31 6 -20 15 -12 c 128
 24 -4 36 0 50 0 c 1
 63 -1 73 -6 82 -15 c 128
 91 -24 95 -36 95 -49 c 4
 94 -63 89 -74 80 -82 c 128
 71 -90 59 -94 45 -94 c 1
 32 -93 22 -88 13 -79 c 128
 4 -70 0 -58 0 -45 c 0
EndSplineSet
EndChar

StartChar: uniE4A4
Encoding: 58532 58532 153
Width: 347
VWidth: 0
Flags: HW
LayerCount: 2
Fore
SplineSet
0 0 m 25
 0 33 l 29
 347 33 l 29
 347 0 l 25
 0 0 l 25
EndSplineSet
EndChar

StartChar: uniE4A5
Encoding: 58533 58533 154
Width: 347
VWidth: 0
Flags: HW
LayerCount: 2
Fore
SplineSet
0 0 m 25
 347 0 l 25
 347 -33 l 29
 0 -33 l 29
 0 0 l 25
EndSplineSet
EndChar

StartChar: uniE4A6
Encoding: 58534 58534 155
Width: 110
VWidth: 2048
Flags: HW
LayerCount: 2
Fore
SplineSet
110 224 m 5
 55 0 l 1
 0 224 l 5
 0 229 l 5
 3 234 4 234 14 237 c 4
 28 241 42 242 56 244 c 5
 67 243 77 244 91 239 c 4
 103 235 113 233 110 229 c 5
 110 224 l 5
EndSplineSet
EndChar

StartChar: uniE4A7
Encoding: 58535 58535 156
Width: 110
VWidth: 2048
Flags: HW
LayerCount: 2
Fore
SplineSet
110 -224 m 5
 110 -229 l 5
 113 -233 103 -235 91 -239 c 4
 77 -244 67 -243 56 -244 c 5
 42 -242 28 -241 14 -237 c 4
 4 -234 3 -234 0 -229 c 5
 0 -224 l 5
 55 0 l 1
 110 -224 l 5
EndSplineSet
EndChar

StartChar: uniE4AE
Encoding: 58542 58542 157
Width: 274
VWidth: 2048
Flags: HW
LayerCount: 2
Fore
SplineSet
273 110 m 1
 191 110 l 1
 107 264 l 1
 29 110 l 1
 0 110 l 1
 137 375 l 1
 273 110 l 1
87 45 m 0
 87 58 91 70 100 79 c 128
 109 88 119 93 132 94 c 1
 146 94 158 90 167 82 c 128
 176 74 181 63 182 49 c 0
 182 36 178 24 169 15 c 128
 160 6 150 1 137 0 c 1
 123 0 111 4 102 12 c 128
 93 20 88 31 87 45 c 0
EndSplineSet
EndChar

